G04*
G04 #@! TF.GenerationSoftware,Altium Limited,Altium Designer,23.10.1 (27)*
G04*
G04 Layer_Physical_Order=2*
G04 Layer_Color=16711680*
%FSLAX44Y44*%
%MOMM*%
G71*
G04*
G04 #@! TF.SameCoordinates,E252026D-ABAD-487A-9E39-ED487C9B17EB*
G04*
G04*
G04 #@! TF.FilePolarity,Positive*
G04*
G01*
G75*
%ADD13C,0.2540*%
%ADD55C,0.5100*%
%ADD57C,1.5000*%
%ADD58R,1.5000X1.5000*%
%ADD59C,2.7000*%
%ADD60C,4.0500*%
%ADD61C,1.2700*%
G36*
X191746Y598451D02*
Y598451D01*
X196748Y593626D01*
X197121Y593090D01*
X197143Y593037D01*
X199180Y591030D01*
Y410210D01*
X199180Y410210D01*
X198553D01*
X201774Y402434D01*
X209550Y399213D01*
X209550Y397781D01*
X209550Y397781D01*
X209550Y397781D01*
X210986Y399217D01*
X211129Y399360D01*
X216290Y399840D01*
X1383206D01*
X1389357Y397790D01*
X1394730Y393861D01*
X1396001Y391160D01*
X1396022Y391108D01*
X1398060Y389100D01*
Y9679D01*
X1396010Y7643D01*
X1396010D01*
X1391921Y2912D01*
X1391921Y2349D01*
X1391920Y1480D01*
X1391920Y1480D01*
X-1385513D01*
X-1391920Y2912D01*
X-1396628Y7620D01*
X-1396970D01*
X-1398060Y7620D01*
Y392269D01*
X-1396629Y393700D01*
X-1391866Y397803D01*
X-1391866Y397803D01*
X-1391087Y398595D01*
X-1385513Y399840D01*
X-196850D01*
Y399213D01*
X-189074Y402434D01*
X-185859Y410196D01*
X-184431Y410187D01*
X-184421Y410209D01*
X-186481Y417210D01*
X-186480Y593090D01*
X-185153D01*
X-184504Y594658D01*
X-180910Y597160D01*
X-179070Y598441D01*
X-179070Y598441D01*
X-179023Y598461D01*
X-178128Y599367D01*
X-172620Y600500D01*
X185595D01*
X191746Y598451D01*
D02*
G37*
%LPC*%
G36*
X-39370Y585350D02*
X-48140D01*
Y579933D01*
X-55140Y579353D01*
X-59867Y584080D01*
X-67133D01*
X-72270Y578943D01*
Y571677D01*
X-67635Y567042D01*
Y239203D01*
X-86559Y220278D01*
X-86985Y219250D01*
X-88246D01*
X-92710Y214786D01*
Y208473D01*
X-88246Y204010D01*
X-81934D01*
X-77470Y208473D01*
Y214786D01*
X-78913Y216229D01*
X-60576Y234566D01*
X-60576Y234566D01*
X-59365Y237490D01*
Y566169D01*
X-55140Y570174D01*
X-48140Y568619D01*
Y565270D01*
X-39370D01*
Y575310D01*
Y585350D01*
D02*
G37*
G36*
X-28060D02*
X-36830D01*
Y576580D01*
X-28060D01*
Y585350D01*
D02*
G37*
G36*
X-110667Y584080D02*
X-117933D01*
X-123070Y578943D01*
Y578854D01*
X-130070Y574688D01*
X-130930Y575154D01*
Y578943D01*
X-136067Y584080D01*
X-143333D01*
X-148470Y578943D01*
Y571677D01*
X-143333Y566540D01*
X-136685D01*
X-136067Y566540D01*
X-135297Y567019D01*
X-129442Y561164D01*
X-122129Y553851D01*
X-122129Y551935D01*
Y360501D01*
X-129129Y357602D01*
X-129668Y358140D01*
X-132080D01*
Y349250D01*
Y340360D01*
X-129668D01*
X-129129Y340898D01*
X-122129Y337999D01*
Y197989D01*
X-251133Y68985D01*
X-257790Y68156D01*
X-260670Y71036D01*
X-261660Y75000D01*
X-260670Y78964D01*
X-257790Y81844D01*
Y88156D01*
X-262254Y92620D01*
X-262661D01*
Y184301D01*
X-225221Y221741D01*
X-210808Y236154D01*
X-197446Y249516D01*
X-197446Y249516D01*
X-196641Y251460D01*
X-196641Y253751D01*
X-196641Y256524D01*
Y261052D01*
Y294458D01*
X-196234Y294640D01*
X-195513Y295361D01*
X-191770Y299104D01*
Y305416D01*
X-196234Y309880D01*
X-202546D01*
X-207010Y305416D01*
Y299104D01*
X-203320Y295414D01*
X-202546Y294640D01*
X-202139Y294458D01*
Y262693D01*
X-202139Y260171D01*
X-203641Y259549D01*
X-209139Y257272D01*
X-212218Y260350D01*
X-214630D01*
Y251460D01*
X-217170D01*
Y260350D01*
X-218851D01*
X-219582Y260350D01*
X-224349Y263111D01*
X-225851Y263981D01*
Y266470D01*
Y294458D01*
X-225444Y294640D01*
X-224723Y295361D01*
X-220980Y299104D01*
Y305416D01*
X-225444Y309880D01*
X-231756D01*
X-236220Y305416D01*
Y299104D01*
X-232530Y295414D01*
X-231756Y294640D01*
X-231349Y294458D01*
Y265023D01*
X-231349Y260356D01*
Y231009D01*
X-233013Y229345D01*
X-277534Y184824D01*
X-278339Y182880D01*
X-278339Y182880D01*
Y85279D01*
Y64721D01*
Y45279D01*
X-278339Y35160D01*
X-278339Y35160D01*
X-277534Y33216D01*
X-272891Y28573D01*
X-273050Y28156D01*
Y21844D01*
X-268586Y17380D01*
X-262274D01*
X-257810Y21844D01*
Y28156D01*
X-260684Y31030D01*
X-261669Y35017D01*
X-260676Y38958D01*
X-258276Y41358D01*
X-257790Y41844D01*
Y48156D01*
X-257790D01*
Y48732D01*
X-112356Y194166D01*
X-112356Y194166D01*
X-111551Y196110D01*
X-111551Y196110D01*
Y552376D01*
X-111551Y566333D01*
X-110667Y566540D01*
X-110230Y566977D01*
X-105530Y571677D01*
Y578943D01*
X-110667Y584080D01*
D02*
G37*
G36*
X-85267D02*
X-92533D01*
X-97670Y578943D01*
Y571677D01*
X-92533Y566540D01*
X-85267D01*
X-80130Y571677D01*
Y578943D01*
X-85267Y584080D01*
D02*
G37*
G36*
X-28060Y574040D02*
X-36830D01*
Y565270D01*
X-28060D01*
Y574040D01*
D02*
G37*
G36*
X177204Y513880D02*
X171830D01*
Y499110D01*
X186600D01*
Y504484D01*
X177204Y513880D01*
D02*
G37*
G36*
X169290D02*
X163916D01*
X154520Y504484D01*
Y499110D01*
X169290D01*
Y513880D01*
D02*
G37*
G36*
X42204D02*
X36830D01*
Y499110D01*
X51600D01*
Y504484D01*
X42204Y513880D01*
D02*
G37*
G36*
X34290D02*
X28916D01*
X19520Y504484D01*
Y499110D01*
X34290D01*
Y513880D01*
D02*
G37*
G36*
X186600Y496570D02*
X171830D01*
Y481800D01*
X177204D01*
X186600Y491196D01*
Y496570D01*
D02*
G37*
G36*
X169290D02*
X154520D01*
Y491196D01*
X163916Y481800D01*
X169290D01*
Y496570D01*
D02*
G37*
G36*
X51600D02*
X36830D01*
Y481800D01*
X42204D01*
X51600Y491196D01*
Y496570D01*
D02*
G37*
G36*
X34290D02*
X19520D01*
Y491196D01*
X28916Y481800D01*
X34290D01*
Y496570D01*
D02*
G37*
G36*
X-161467Y584080D02*
X-168733D01*
X-173870Y578943D01*
Y571677D01*
X-169235Y567042D01*
Y532130D01*
X-168024Y529206D01*
X-151455Y512637D01*
Y482010D01*
X-158455Y479111D01*
X-160674Y481330D01*
X-166986D01*
X-171450Y476866D01*
Y470554D01*
X-167965Y467068D01*
Y387675D01*
X-321310D01*
X-324234Y386464D01*
X-329817Y380880D01*
X-336373D01*
X-341510Y375743D01*
Y368477D01*
X-336373Y363340D01*
X-329107D01*
X-323970Y368477D01*
Y368783D01*
X-323110Y369347D01*
X-316110Y368477D01*
X-310973Y363340D01*
X-304326D01*
X-303707Y363340D01*
X-302937Y363819D01*
X-292879Y353761D01*
X-292879Y353761D01*
X-290496Y351378D01*
X-275911Y336792D01*
X-275910Y336792D01*
X-273967Y335987D01*
X-270248D01*
X-213955D01*
X-211178Y335987D01*
X-210273Y335082D01*
X-183305Y308113D01*
X-181819Y306628D01*
Y305408D01*
X-181819Y271451D01*
X-181819Y264342D01*
X-182226Y264160D01*
X-182947Y263440D01*
X-186690Y259696D01*
Y253384D01*
X-182712Y249406D01*
X-182226Y248920D01*
X-175914D01*
X-174965Y249869D01*
X-167965Y246970D01*
Y222542D01*
X-171450Y219056D01*
Y212744D01*
X-166986Y208280D01*
X-160674D01*
X-156210Y212744D01*
Y219056D01*
X-159695Y222542D01*
Y383540D01*
Y461246D01*
X-158455Y462075D01*
X-151455Y458333D01*
Y246367D01*
X-151034Y245352D01*
X-151930Y244456D01*
Y238144D01*
X-147466Y233680D01*
X-146779Y233680D01*
X-141154D01*
X-136690Y238144D01*
Y244456D01*
X-141154Y248920D01*
X-143185D01*
Y336613D01*
X-137032Y340360D01*
X-136185Y340360D01*
X-134620D01*
Y349250D01*
Y358140D01*
X-136185D01*
X-137032Y358140D01*
X-143185Y361887D01*
Y514350D01*
X-144396Y517274D01*
X-144396Y517274D01*
X-160965Y533843D01*
Y567042D01*
X-156330Y571677D01*
Y578943D01*
X-161467Y584080D01*
D02*
G37*
G36*
X-89028Y471170D02*
X-91440D01*
Y463550D01*
X-83820D01*
Y465962D01*
X-89028Y471170D01*
D02*
G37*
G36*
X-93980D02*
X-96392D01*
X-101600Y465962D01*
Y463550D01*
X-93980D01*
Y471170D01*
D02*
G37*
G36*
X-83820Y461010D02*
X-91440D01*
Y453390D01*
X-89028D01*
X-83820Y458598D01*
Y461010D01*
D02*
G37*
G36*
X-93980D02*
X-101600D01*
Y458598D01*
X-96392Y453390D01*
X-93980D01*
Y461010D01*
D02*
G37*
G36*
X76500Y460630D02*
X68330D01*
Y439110D01*
X89850D01*
Y447280D01*
X76500Y460630D01*
D02*
G37*
G36*
X65790D02*
X57620D01*
X44270Y447280D01*
Y439110D01*
X65790D01*
Y460630D01*
D02*
G37*
G36*
X147974Y459360D02*
X130146D01*
X117540Y446754D01*
Y428926D01*
X130146Y416320D01*
X147974D01*
X160580Y428926D01*
Y446754D01*
X147974Y459360D01*
D02*
G37*
G36*
X89850Y436570D02*
X68330D01*
Y415050D01*
X76500D01*
X89850Y428400D01*
Y436570D01*
D02*
G37*
G36*
X65790D02*
X44270D01*
Y428400D01*
X57620Y415050D01*
X65790D01*
Y436570D01*
D02*
G37*
G36*
X416432Y350520D02*
X414020D01*
Y342900D01*
X421640D01*
Y345312D01*
X416432Y350520D01*
D02*
G37*
G36*
X411480D02*
X409068D01*
X403860Y345312D01*
Y342900D01*
X411480D01*
Y350520D01*
D02*
G37*
G36*
X238632D02*
X236220D01*
Y342900D01*
X243840D01*
Y345312D01*
X238632Y350520D01*
D02*
G37*
G36*
X233680D02*
X231268D01*
X226060Y345312D01*
Y342900D01*
X233680D01*
Y350520D01*
D02*
G37*
G36*
X421640Y340360D02*
X403860D01*
Y337948D01*
X405668Y336139D01*
X402783Y329174D01*
X402761Y329139D01*
X395714D01*
X251987D01*
X244939D01*
X244917Y329174D01*
X244309Y330641D01*
X242032Y336139D01*
X243840Y337948D01*
Y340360D01*
X226060D01*
Y337948D01*
X227868Y336139D01*
X225128Y329523D01*
X224952Y329139D01*
X219867D01*
X87624D01*
X83820D01*
X83820Y329139D01*
X81876Y328334D01*
X79224Y325682D01*
X-29597Y216861D01*
X-30717Y215741D01*
X-31134Y215900D01*
X-32153Y215900D01*
X-37446D01*
X-41253Y212094D01*
X-41265Y212087D01*
X-48260Y213006D01*
Y217786D01*
X-52724Y222250D01*
X-59036D01*
X-63500Y217786D01*
Y211474D01*
X-59036Y207010D01*
X-55018D01*
X-53845Y207010D01*
X-39170Y192335D01*
X-39170D01*
X-36687Y189852D01*
X-23941Y177106D01*
X-23941Y177106D01*
X-21997Y176301D01*
X-21997Y176301D01*
X-18201D01*
X268306D01*
X270123D01*
X271110Y175313D01*
X274544Y171880D01*
X280856D01*
X285320Y176343D01*
Y182656D01*
X281343Y186634D01*
X280857Y187120D01*
X274544D01*
X274058Y186634D01*
X270549Y183125D01*
X270080Y182656D01*
X269870Y181800D01*
X268349D01*
X-18049D01*
X-20858Y181800D01*
X-32719Y193660D01*
X-32327Y195391D01*
X-31134Y200660D01*
X-30476Y201317D01*
X-26670Y205124D01*
Y210342D01*
X-26670Y211436D01*
X-26829Y211853D01*
X-25712Y212970D01*
X83050Y321732D01*
X84959Y323641D01*
X87658Y323641D01*
X222303D01*
X227511D01*
X234950Y323641D01*
X241284Y323641D01*
X248458D01*
X399242D01*
X406416D01*
X412750Y323641D01*
X419084Y323641D01*
X425344D01*
X569746D01*
X571318D01*
X571500Y323234D01*
X572220Y322513D01*
X575964Y318770D01*
X582276D01*
X586740Y323234D01*
Y329546D01*
X582276Y334010D01*
X575964D01*
X572274Y330320D01*
X571500Y329546D01*
X571318Y329139D01*
X569721D01*
X427953D01*
X422752D01*
X422583Y329496D01*
X422109Y330641D01*
X419832Y336139D01*
X421640Y337948D01*
Y340360D01*
D02*
G37*
G36*
X1353682Y308890D02*
X1351270D01*
Y301270D01*
X1358890D01*
Y303682D01*
X1353682Y308890D01*
D02*
G37*
G36*
X1348730D02*
X1346318D01*
X1341110Y303682D01*
Y301270D01*
X1348730D01*
Y308890D01*
D02*
G37*
G36*
X1203682D02*
X1201270D01*
Y301270D01*
X1208890D01*
Y303682D01*
X1203682Y308890D01*
D02*
G37*
G36*
X1198730D02*
X1196318D01*
X1191110Y303682D01*
Y301270D01*
X1198730D01*
Y308890D01*
D02*
G37*
G36*
X1053682D02*
X1051270D01*
Y301270D01*
X1058890D01*
Y303682D01*
X1053682Y308890D01*
D02*
G37*
G36*
X1048730D02*
X1046318D01*
X1041110Y303682D01*
Y301270D01*
X1048730D01*
Y308890D01*
D02*
G37*
G36*
X903682D02*
X901270D01*
Y301270D01*
X908890D01*
Y303682D01*
X903682Y308890D01*
D02*
G37*
G36*
X898730D02*
X896318D01*
X891110Y303682D01*
Y301270D01*
X898730D01*
Y308890D01*
D02*
G37*
G36*
X753682D02*
X751270D01*
Y301270D01*
X758890D01*
Y303682D01*
X753682Y308890D01*
D02*
G37*
G36*
X748730D02*
X746318D01*
X741110Y303682D01*
Y301270D01*
X748730D01*
Y308890D01*
D02*
G37*
G36*
X1358890Y298730D02*
X1351270D01*
Y291110D01*
X1353682D01*
X1358890Y296318D01*
Y298730D01*
D02*
G37*
G36*
X1348730D02*
X1341110D01*
Y296318D01*
X1346318Y291110D01*
X1348730D01*
Y298730D01*
D02*
G37*
G36*
X1208890D02*
X1201270D01*
Y291110D01*
X1203682D01*
X1208890Y296318D01*
Y298730D01*
D02*
G37*
G36*
X1198730D02*
X1191110D01*
Y296318D01*
X1196318Y291110D01*
X1198730D01*
Y298730D01*
D02*
G37*
G36*
X1058890D02*
X1051270D01*
Y291110D01*
X1053682D01*
X1058890Y296318D01*
Y298730D01*
D02*
G37*
G36*
X1048730D02*
X1041110D01*
Y296318D01*
X1046318Y291110D01*
X1048730D01*
Y298730D01*
D02*
G37*
G36*
X908890D02*
X901270D01*
Y291110D01*
X903682D01*
X908890Y296318D01*
Y298730D01*
D02*
G37*
G36*
X898730D02*
X891110D01*
Y296318D01*
X896318Y291110D01*
X898730D01*
Y298730D01*
D02*
G37*
G36*
X758890D02*
X751270D01*
Y291110D01*
X753682D01*
X758890Y296318D01*
Y298730D01*
D02*
G37*
G36*
X748730D02*
X741110D01*
Y296318D01*
X746318Y291110D01*
X748730D01*
Y298730D01*
D02*
G37*
G36*
X-756478Y282920D02*
X-758890D01*
Y275300D01*
X-751270D01*
Y277712D01*
X-756478Y282920D01*
D02*
G37*
G36*
X-761430D02*
X-763842D01*
X-769050Y277712D01*
Y275300D01*
X-761430D01*
Y282920D01*
D02*
G37*
G36*
X-906478D02*
X-908890D01*
Y275300D01*
X-901270D01*
Y277712D01*
X-906478Y282920D01*
D02*
G37*
G36*
X-911430D02*
X-913842D01*
X-919050Y277712D01*
Y275300D01*
X-911430D01*
Y282920D01*
D02*
G37*
G36*
X-1056478D02*
X-1058890D01*
Y275300D01*
X-1051270D01*
Y277712D01*
X-1056478Y282920D01*
D02*
G37*
G36*
X-1061430D02*
X-1063842D01*
X-1069050Y277712D01*
Y275300D01*
X-1061430D01*
Y282920D01*
D02*
G37*
G36*
X-1206478D02*
X-1208890D01*
Y275300D01*
X-1201270D01*
Y277712D01*
X-1206478Y282920D01*
D02*
G37*
G36*
X-1211430D02*
X-1213842D01*
X-1219050Y277712D01*
Y275300D01*
X-1211430D01*
Y282920D01*
D02*
G37*
G36*
X-1356478D02*
X-1358890D01*
Y275300D01*
X-1351270D01*
Y277712D01*
X-1356478Y282920D01*
D02*
G37*
G36*
X-1361430D02*
X-1363842D01*
X-1369050Y277712D01*
Y275300D01*
X-1361430D01*
Y282920D01*
D02*
G37*
G36*
X-751270Y272760D02*
X-758890D01*
Y265140D01*
X-756478D01*
X-751270Y270347D01*
Y272760D01*
D02*
G37*
G36*
X-761430D02*
X-769050D01*
Y270347D01*
X-763842Y265140D01*
X-761430D01*
Y272760D01*
D02*
G37*
G36*
X-901270D02*
X-908890D01*
Y265140D01*
X-906478D01*
X-901270Y270347D01*
Y272760D01*
D02*
G37*
G36*
X-911430D02*
X-919050D01*
Y270347D01*
X-913842Y265140D01*
X-911430D01*
Y272760D01*
D02*
G37*
G36*
X-1051270D02*
X-1058890D01*
Y265140D01*
X-1056478D01*
X-1051270Y270347D01*
Y272760D01*
D02*
G37*
G36*
X-1061430D02*
X-1069050D01*
Y270347D01*
X-1063842Y265140D01*
X-1061430D01*
Y272760D01*
D02*
G37*
G36*
X-1201270D02*
X-1208890D01*
Y265140D01*
X-1206478D01*
X-1201270Y270347D01*
Y272760D01*
D02*
G37*
G36*
X-1211430D02*
X-1219050D01*
Y270347D01*
X-1213842Y265140D01*
X-1211430D01*
Y272760D01*
D02*
G37*
G36*
X-1351270D02*
X-1358890D01*
Y265140D01*
X-1356478D01*
X-1351270Y270347D01*
Y272760D01*
D02*
G37*
G36*
X-1361430D02*
X-1369050D01*
Y270347D01*
X-1363842Y265140D01*
X-1361430D01*
Y272760D01*
D02*
G37*
G36*
X154812Y148590D02*
X152400D01*
Y140970D01*
X160020D01*
Y143382D01*
X154812Y148590D01*
D02*
G37*
G36*
X149860D02*
X147448D01*
X142240Y143382D01*
Y140970D01*
X149860D01*
Y148590D01*
D02*
G37*
G36*
X29082D02*
X26670D01*
Y140970D01*
X34290D01*
Y143382D01*
X29082Y148590D01*
D02*
G37*
G36*
X24130D02*
X21718D01*
X16510Y143382D01*
Y140970D01*
X24130D01*
Y148590D01*
D02*
G37*
G36*
X160020Y138430D02*
X152400D01*
Y130810D01*
X154812D01*
X160020Y136018D01*
Y138430D01*
D02*
G37*
G36*
X149860D02*
X142240D01*
Y136018D01*
X147448Y130810D01*
X149860D01*
Y138430D01*
D02*
G37*
G36*
X34290D02*
X26670D01*
Y130810D01*
X29082D01*
X34290Y136018D01*
Y138430D01*
D02*
G37*
G36*
X24130D02*
X16510D01*
Y136018D01*
X21718Y130810D01*
X24130D01*
Y138430D01*
D02*
G37*
G36*
X398652Y68580D02*
X396240D01*
Y60960D01*
X403860D01*
Y63372D01*
X398652Y68580D01*
D02*
G37*
G36*
X393700D02*
X391288D01*
X386080Y63372D01*
Y60960D01*
X393700D01*
Y68580D01*
D02*
G37*
G36*
X283082Y67310D02*
X280670D01*
Y59690D01*
X288290D01*
Y62102D01*
X283082Y67310D01*
D02*
G37*
G36*
X278130D02*
X275718D01*
X270510Y62102D01*
Y59690D01*
X278130D01*
Y67310D01*
D02*
G37*
G36*
X1353682Y58890D02*
X1351270D01*
Y51270D01*
X1358890D01*
Y53682D01*
X1353682Y58890D01*
D02*
G37*
G36*
X1348730D02*
X1346318D01*
X1341110Y53682D01*
Y51270D01*
X1348730D01*
Y58890D01*
D02*
G37*
G36*
X1203682D02*
X1201270D01*
Y51270D01*
X1208890D01*
Y53682D01*
X1203682Y58890D01*
D02*
G37*
G36*
X1198730D02*
X1196318D01*
X1191110Y53682D01*
Y51270D01*
X1198730D01*
Y58890D01*
D02*
G37*
G36*
X1053682D02*
X1051270D01*
Y51270D01*
X1058890D01*
Y53682D01*
X1053682Y58890D01*
D02*
G37*
G36*
X1048730D02*
X1046318D01*
X1041110Y53682D01*
Y51270D01*
X1048730D01*
Y58890D01*
D02*
G37*
G36*
X903682D02*
X901270D01*
Y51270D01*
X908890D01*
Y53682D01*
X903682Y58890D01*
D02*
G37*
G36*
X898730D02*
X896318D01*
X891110Y53682D01*
Y51270D01*
X898730D01*
Y58890D01*
D02*
G37*
G36*
X753682D02*
X751270D01*
Y51270D01*
X758890D01*
Y53682D01*
X753682Y58890D01*
D02*
G37*
G36*
X748730D02*
X746318D01*
X741110Y53682D01*
Y51270D01*
X748730D01*
Y58890D01*
D02*
G37*
G36*
X403860Y58420D02*
X396240D01*
Y50800D01*
X398652D01*
X403860Y56008D01*
Y58420D01*
D02*
G37*
G36*
X393700D02*
X386080D01*
Y56008D01*
X391288Y50800D01*
X393700D01*
Y58420D01*
D02*
G37*
G36*
X288290Y57150D02*
X280670D01*
Y49530D01*
X283082D01*
X288290Y54738D01*
Y57150D01*
D02*
G37*
G36*
X278130D02*
X270510D01*
Y54738D01*
X275718Y49530D01*
X278130D01*
Y57150D01*
D02*
G37*
G36*
X698730Y50040D02*
X689960D01*
Y44622D01*
X682960Y44043D01*
X678233Y48770D01*
X670967D01*
X665830Y43633D01*
Y36367D01*
X670967Y31230D01*
X678233D01*
X682960Y35957D01*
X689960Y35378D01*
Y29960D01*
X698730D01*
Y40000D01*
Y50040D01*
D02*
G37*
G36*
X710040D02*
X701270D01*
Y41270D01*
X710040D01*
Y50040D01*
D02*
G37*
G36*
X-701270D02*
X-710040D01*
Y41270D01*
X-701270D01*
Y50040D01*
D02*
G37*
G36*
X1358890Y48730D02*
X1351270D01*
Y41110D01*
X1353682D01*
X1358890Y46318D01*
Y48730D01*
D02*
G37*
G36*
X1348730D02*
X1341110D01*
Y46318D01*
X1346318Y41110D01*
X1348730D01*
Y48730D01*
D02*
G37*
G36*
X1208890D02*
X1201270D01*
Y41110D01*
X1203682D01*
X1208890Y46318D01*
Y48730D01*
D02*
G37*
G36*
X1198730D02*
X1191110D01*
Y46318D01*
X1196318Y41110D01*
X1198730D01*
Y48730D01*
D02*
G37*
G36*
X1058890D02*
X1051270D01*
Y41110D01*
X1053682D01*
X1058890Y46318D01*
Y48730D01*
D02*
G37*
G36*
X1048730D02*
X1041110D01*
Y46318D01*
X1046318Y41110D01*
X1048730D01*
Y48730D01*
D02*
G37*
G36*
X908890D02*
X901270D01*
Y41110D01*
X903682D01*
X908890Y46318D01*
Y48730D01*
D02*
G37*
G36*
X898730D02*
X891110D01*
Y46318D01*
X896318Y41110D01*
X898730D01*
Y48730D01*
D02*
G37*
G36*
X758890D02*
X751270D01*
Y41110D01*
X753682D01*
X758890Y46318D01*
Y48730D01*
D02*
G37*
G36*
X748730D02*
X741110D01*
Y46318D01*
X746318Y41110D01*
X748730D01*
Y48730D01*
D02*
G37*
G36*
X-747588Y40160D02*
X-750000D01*
Y32540D01*
X-742380D01*
Y34952D01*
X-747588Y40160D01*
D02*
G37*
G36*
X-752540D02*
X-754952D01*
X-760160Y34952D01*
Y32540D01*
X-752540D01*
Y40160D01*
D02*
G37*
G36*
X-897588D02*
X-900000D01*
Y32540D01*
X-892380D01*
Y34952D01*
X-897588Y40160D01*
D02*
G37*
G36*
X-902540D02*
X-904952D01*
X-910160Y34952D01*
Y32540D01*
X-902540D01*
Y40160D01*
D02*
G37*
G36*
X-1047588D02*
X-1050000D01*
Y32540D01*
X-1042380D01*
Y34952D01*
X-1047588Y40160D01*
D02*
G37*
G36*
X-1052540D02*
X-1054952D01*
X-1060160Y34952D01*
Y32540D01*
X-1052540D01*
Y40160D01*
D02*
G37*
G36*
X-1197588D02*
X-1200000D01*
Y32540D01*
X-1192380D01*
Y34952D01*
X-1197588Y40160D01*
D02*
G37*
G36*
X-1202540D02*
X-1204952D01*
X-1210160Y34952D01*
Y32540D01*
X-1202540D01*
Y40160D01*
D02*
G37*
G36*
X-1347588D02*
X-1350000D01*
Y32540D01*
X-1342380D01*
Y34952D01*
X-1347588Y40160D01*
D02*
G37*
G36*
X-1352540D02*
X-1354952D01*
X-1360160Y34952D01*
Y32540D01*
X-1352540D01*
Y40160D01*
D02*
G37*
G36*
X608770Y48770D02*
X591230D01*
Y31230D01*
X608770D01*
Y48770D01*
D02*
G37*
G36*
X578232D02*
X570967D01*
X565830Y43633D01*
Y36367D01*
X570967Y31230D01*
X578232D01*
X583370Y36367D01*
Y43633D01*
X578232Y48770D01*
D02*
G37*
G36*
X-570967D02*
X-578232D01*
X-583370Y43633D01*
Y36367D01*
X-578232Y31230D01*
X-570967D01*
X-565830Y36367D01*
Y43633D01*
X-570967Y48770D01*
D02*
G37*
G36*
X-591230D02*
X-608770D01*
Y31230D01*
X-591230D01*
Y48770D01*
D02*
G37*
G36*
X-689960Y50040D02*
X-698730D01*
Y40000D01*
Y29960D01*
X-689960D01*
Y35378D01*
X-682960Y35957D01*
X-678233Y31230D01*
X-670967D01*
X-665830Y36367D01*
Y43633D01*
X-670967Y48770D01*
X-678233D01*
X-682960Y44043D01*
X-689960Y44622D01*
Y50040D01*
D02*
G37*
G36*
X710040Y38730D02*
X701270D01*
Y29960D01*
X710040D01*
Y38730D01*
D02*
G37*
G36*
X-701270D02*
X-710040D01*
Y29960D01*
X-701270D01*
Y38730D01*
D02*
G37*
G36*
X-742380Y30000D02*
X-750000D01*
Y22380D01*
X-747588D01*
X-742380Y27587D01*
Y30000D01*
D02*
G37*
G36*
X-752540D02*
X-760160D01*
Y27587D01*
X-754952Y22380D01*
X-752540D01*
Y30000D01*
D02*
G37*
G36*
X-892380D02*
X-900000D01*
Y22380D01*
X-897588D01*
X-892380Y27587D01*
Y30000D01*
D02*
G37*
G36*
X-902540D02*
X-910160D01*
Y27587D01*
X-904952Y22380D01*
X-902540D01*
Y30000D01*
D02*
G37*
G36*
X-1042380D02*
X-1050000D01*
Y22380D01*
X-1047588D01*
X-1042380Y27587D01*
Y30000D01*
D02*
G37*
G36*
X-1052540D02*
X-1060160D01*
Y27587D01*
X-1054952Y22380D01*
X-1052540D01*
Y30000D01*
D02*
G37*
G36*
X-1192380D02*
X-1200000D01*
Y22380D01*
X-1197588D01*
X-1192380Y27587D01*
Y30000D01*
D02*
G37*
G36*
X-1202540D02*
X-1210160D01*
Y27587D01*
X-1204952Y22380D01*
X-1202540D01*
Y30000D01*
D02*
G37*
G36*
X-1342380D02*
X-1350000D01*
Y22380D01*
X-1347588D01*
X-1342380Y27587D01*
Y30000D01*
D02*
G37*
G36*
X-1352540D02*
X-1360160D01*
Y27587D01*
X-1354952Y22380D01*
X-1352540D01*
Y30000D01*
D02*
G37*
%LPD*%
G36*
X-167965Y273062D02*
X-174965Y269320D01*
X-176321Y270226D01*
Y305209D01*
X-176321Y307767D01*
X-177126Y309711D01*
X-179469Y312054D01*
X-205987Y338572D01*
X-208096Y340681D01*
X-210040Y341486D01*
X-213758Y341486D01*
X-270051D01*
X-272828Y341486D01*
X-286412Y355070D01*
X-285790Y356571D01*
X-283512Y362070D01*
X-283210D01*
Y372110D01*
X-281940D01*
Y373380D01*
X-271900D01*
Y379405D01*
X-167965D01*
Y273062D01*
D02*
G37*
%LPC*%
G36*
X-271900Y370840D02*
X-280670D01*
Y362070D01*
X-271900D01*
Y370840D01*
D02*
G37*
%LPD*%
D13*
X277251Y179050D02*
X277700Y179500D01*
X-21997Y179050D02*
X277251D01*
X-139700Y575310D02*
X-119380Y554990D01*
Y196850D02*
Y554990D01*
X-251230Y65000D02*
X-119380Y196850D01*
X-265410Y65000D02*
X-251230D01*
X-265410Y45000D02*
X-114300Y196110D01*
Y575310D01*
X-275590Y35160D02*
X-265430Y25000D01*
X-275590Y35160D02*
Y182880D01*
X-55880Y212933D02*
Y214630D01*
Y212933D02*
X-21997Y179050D01*
X-179070Y256540D02*
Y307767D01*
X-199390Y251460D02*
Y302260D01*
X-265410Y185440D02*
X-199390Y251460D01*
X-265410Y85090D02*
Y185440D01*
X-275590Y182880D02*
X-228600Y229870D01*
Y302260D01*
X-210040Y338736D02*
X-179070Y307767D01*
X-273966Y338736D02*
X-210040D01*
X83820Y326390D02*
X579120D01*
X-34290Y208280D02*
X83820Y326390D01*
X-307340Y372110D02*
X-273966Y338736D01*
D55*
X-163830Y215900D02*
Y383540D01*
X-332740Y372110D02*
X-321310Y383540D01*
X-163830D02*
Y473710D01*
X-321310Y383540D02*
X-163830D01*
X-147320Y246367D02*
X-144310Y243356D01*
X-165100Y532130D02*
X-147320Y514350D01*
X-144310Y241300D02*
Y243356D01*
X-147320Y246367D02*
Y514350D01*
X-165100Y532130D02*
Y575310D01*
X-83636Y217354D02*
X-63500Y237490D01*
X-83636Y213084D02*
Y217354D01*
X-85090Y211630D02*
X-83636Y213084D01*
X-63500Y237490D02*
Y575310D01*
D57*
X-332740Y372110D02*
D03*
X-307340D02*
D03*
X-674600Y40000D02*
D03*
X-165100Y575310D02*
D03*
X-139700D02*
D03*
X-114300D02*
D03*
X-88900D02*
D03*
X-63500D02*
D03*
X574600Y40000D02*
D03*
X674600D02*
D03*
X-574600D02*
D03*
D58*
X-281940Y372110D02*
D03*
X-700000Y40000D02*
D03*
X-38100Y575310D02*
D03*
X600000Y40000D02*
D03*
X700000D02*
D03*
X-600000D02*
D03*
D59*
X35560Y497840D02*
D03*
X170560D02*
D03*
D60*
X139060Y437840D02*
D03*
X67060D02*
D03*
D61*
X277700Y179500D02*
D03*
X-265410Y45000D02*
D03*
X-133350Y349250D02*
D03*
X-215900Y251460D02*
D03*
X-92710Y462280D02*
D03*
X412750Y341630D02*
D03*
X234950D02*
D03*
X394970Y59690D02*
D03*
X279400Y58420D02*
D03*
X25400Y139700D02*
D03*
X151130D02*
D03*
X-144310Y241300D02*
D03*
X-55880Y214630D02*
D03*
X-179070Y256540D02*
D03*
X-1351270Y31270D02*
D03*
X-1360160Y274030D02*
D03*
X-1201270Y31270D02*
D03*
X-1210160Y274030D02*
D03*
X-1060160D02*
D03*
X-1051270Y31270D02*
D03*
X-910160Y274030D02*
D03*
X-901270Y31270D02*
D03*
X-760160Y274030D02*
D03*
X-751270Y31270D02*
D03*
X750000Y50000D02*
D03*
Y300000D02*
D03*
X900000Y50000D02*
D03*
Y300000D02*
D03*
X1050000Y50000D02*
D03*
Y300000D02*
D03*
X1200000D02*
D03*
Y50000D02*
D03*
X1350000Y300000D02*
D03*
Y50000D02*
D03*
X-199390Y302260D02*
D03*
X-228600D02*
D03*
X-265410Y85000D02*
D03*
Y65000D02*
D03*
X-265430Y25000D02*
D03*
X-163830Y473710D02*
D03*
Y215900D02*
D03*
X-85090Y211630D02*
D03*
X-34290Y208280D02*
D03*
X579120Y326390D02*
D03*
M02*
