M48
;Layer_Color=9474304
;FILE_FORMAT=4:4
METRIC,LZ
;TYPE=PLATED
T01F00S00C0.7112
T02F00S00C0.9000
T03F00S00C1.8000
T04F00S00C2.7000
%
T01
X-0135127Y0003127
X-0120127
X-0105127
X-0090127
X-0075127
X-0026543Y00025
X-0026541Y00045
Y00065
Y00085
X000254Y001397
X0015113
X002794Y0005842
X0039497Y0005969
X0075Y0005
X009
X0105
X012
X0135
Y003
X012
X0105
X009
X0075
X0057912Y0032639
X0041275Y0034163
X0023495
X002777Y001795
X-0003429Y0020828
X-0005588Y0021463
X-0008509Y0021163
X-0016383Y002159
X-0014431Y002413
X-0017907Y0025654
X-002159Y0025146
X-002286Y0030226
X-0019939
X-0013335Y0034925
X-0009271Y0046228
X-0016383Y0047371
X-0076016Y0027403
X-0091016
X-0106016
X-0121016
X-0136016
T02
X-007Y0004
X-006746
X-006
X-005746
X005746
X006
X006746
X007
X-0028194Y0037211
X-0030734
X-0033274
X-001651Y0057531
X-001397
X-001143
X-000889
X-000635
X-000381
T03
X0003556Y0049784
X0017056
T04
X0006706Y0043784
X0013906
M30
