G04*
G04 #@! TF.GenerationSoftware,Altium Limited,Altium Designer,23.10.1 (27)*
G04*
G04 Layer_Color=16711935*
%FSLAX44Y44*%
%MOMM*%
G71*
G04*
G04 #@! TF.SameCoordinates,E252026D-ABAD-487A-9E39-ED487C9B17EB*
G04*
G04*
G04 #@! TF.FilePolarity,Positive*
G04*
G01*
G75*
%ADD64C,0.2560*%
%ADD65C,0.2560*%
%ADD66R,18.0000X6.1900*%
D64*
X201940Y593090D02*
G03*
X201940Y593109I-1280J0D01*
G01*
X201940Y410210D02*
G03*
X209550Y402600I7610J0D01*
G01*
X1389388Y402600D02*
G03*
X1389380Y402600I-8J-1280D01*
G01*
X191779Y603260D02*
G03*
X191770Y603260I-9J-1280D01*
G01*
X191779Y603260D02*
G03*
X191770Y603260I-9J-10170D01*
G01*
X201940Y593109D02*
G03*
X191779Y603260I-10170J-19D01*
G01*
X201940Y593090D02*
G03*
X201940Y593109I-10170J0D01*
G01*
X1400820Y391160D02*
G03*
X1400820Y391179I-1280J0D01*
G01*
Y391160D02*
G03*
X1400820Y391162I-11438J2D01*
G01*
Y391159D02*
Y391160D01*
X1389388Y402600D02*
G03*
X1389380Y402600I-7J-11438D01*
G01*
X1400820Y391179D02*
G03*
X1389388Y402600I-11438J-16D01*
G01*
X1400820Y391162D02*
G03*
X1400820Y391179I-11438J0D01*
G01*
X1400820Y7617D02*
G03*
X1400820Y7620I-8898J0D01*
G01*
Y7612D02*
G03*
X1400820Y7620I-1280J8D01*
G01*
X1400820Y7612D02*
G03*
X1400820Y7617I-8898J6D01*
G01*
X1391919Y-1280D02*
G03*
X1400820Y7612I3J8898D01*
G01*
X-179070Y603260D02*
G03*
X-179087Y603260I0J-1280D01*
G01*
D02*
G03*
X-189240Y593090I17J-10170D01*
G01*
X-179070Y603260D02*
G03*
X-179087Y603260I0J-10170D01*
G01*
X-189241Y410218D02*
G03*
X-189241Y410210I1280J-8D01*
G01*
X-196850Y402600D02*
G03*
X-189241Y410210I0J7609D01*
G01*
X-1391920Y402600D02*
G03*
X-1391940Y402600I0J-1280D01*
G01*
X-1391921Y-1280D02*
G03*
X-1391920Y-1280I0J8899D01*
G01*
X-1400820Y7619D02*
G03*
X-1391921Y-1280I8899J0D01*
G01*
X-1400820Y7620D02*
G03*
X-1400820Y7619I8899J-1D01*
G01*
X-1391940Y402600D02*
G03*
X-1400820Y393700I19J-8900D01*
G01*
X-1391920Y402600D02*
G03*
X-1391940Y402600I0J-8900D01*
G01*
X201940Y410210D02*
Y593090D01*
X209550Y402600D02*
X1389380D01*
X1400820Y7620D02*
Y391160D01*
X-179070Y603260D02*
X191770D01*
X-189241Y410218D02*
X-189240Y593090D01*
X-189241Y410210D02*
Y410218D01*
X-1391920Y402600D02*
X-196850D01*
X-1391920Y-1280D02*
X1391920D01*
X-1391921D02*
X-1391920D01*
X-1400820Y7620D02*
Y393700D01*
Y7619D02*
Y7620D01*
D65*
X209550Y402600D02*
D03*
X209550D02*
D03*
X201940Y593090D02*
D03*
X1389380Y402600D02*
D03*
X1400820Y7620D02*
D03*
X-179070Y603260D02*
D03*
X-1391920Y402600D02*
D03*
D66*
X-160000Y-36574D02*
D03*
M02*
