G04*
G04 #@! TF.GenerationSoftware,Altium Limited,Altium Designer,23.10.1 (27)*
G04*
G04 Layer_Color=8388736*
%FSLAX44Y44*%
%MOMM*%
G71*
G04*
G04 #@! TF.SameCoordinates,E252026D-ABAD-487A-9E39-ED487C9B17EB*
G04*
G04*
G04 #@! TF.FilePolarity,Negative*
G04*
G01*
G75*
%ADD20R,3.6800X1.6500*%
%ADD23R,0.9000X0.9000*%
%ADD24R,1.5000X0.9000*%
%ADD25R,0.9000X1.5000*%
G04:AMPARAMS|DCode=27|XSize=1.5052mm|YSize=0.4549mm|CornerRadius=0.2275mm|HoleSize=0mm|Usage=FLASHONLY|Rotation=180.000|XOffset=0mm|YOffset=0mm|HoleType=Round|Shape=RoundedRectangle|*
%AMROUNDEDRECTD27*
21,1,1.5052,0.0000,0,0,180.0*
21,1,1.0503,0.4549,0,0,180.0*
1,1,0.4549,-0.5252,0.0000*
1,1,0.4549,0.5252,0.0000*
1,1,0.4549,0.5252,0.0000*
1,1,0.4549,-0.5252,0.0000*
%
%ADD27ROUNDEDRECTD27*%
%ADD28R,1.5052X0.4549*%
%ADD29R,1.5242X0.5780*%
G04:AMPARAMS|DCode=30|XSize=1.5242mm|YSize=0.578mm|CornerRadius=0.289mm|HoleSize=0mm|Usage=FLASHONLY|Rotation=0.000|XOffset=0mm|YOffset=0mm|HoleType=Round|Shape=RoundedRectangle|*
%AMROUNDEDRECTD30*
21,1,1.5242,0.0000,0,0,0.0*
21,1,0.9463,0.5780,0,0,0.0*
1,1,0.5780,0.4731,0.0000*
1,1,0.5780,-0.4731,0.0000*
1,1,0.5780,-0.4731,0.0000*
1,1,0.5780,0.4731,0.0000*
%
%ADD30ROUNDEDRECTD30*%
%ADD36R,0.8000X0.5500*%
%ADD38R,4.0032X1.2532*%
%ADD39R,9.6532X10.8732*%
%ADD40R,1.7272X2.2352*%
%ADD41R,2.2352X1.7272*%
%ADD42R,1.7272X1.2192*%
%ADD43O,0.6532X2.2032*%
%ADD44R,6.7032X3.7032*%
%ADD45R,1.9532X1.6032*%
%ADD46R,2.4032X1.0032*%
%ADD47R,6.6032X6.0032*%
%ADD48R,1.1032X1.0032*%
%ADD49C,0.4000*%
%ADD50C,1.7032*%
%ADD51R,1.7032X1.7032*%
%ADD52C,2.9032*%
%ADD53C,4.2532*%
%ADD54C,1.4732*%
D20*
X-26670Y382930D02*
D03*
Y440030D02*
D03*
D23*
X-159000Y70600D02*
D03*
Y84600D02*
D03*
Y98600D02*
D03*
X-131000D02*
D03*
Y84600D02*
D03*
Y70600D02*
D03*
X-145000Y98600D02*
D03*
Y84600D02*
D03*
Y70600D02*
D03*
D24*
X-247500Y7400D02*
D03*
Y20100D02*
D03*
Y32800D02*
D03*
Y45500D02*
D03*
Y58200D02*
D03*
Y70900D02*
D03*
Y83600D02*
D03*
Y96300D02*
D03*
Y109000D02*
D03*
Y121700D02*
D03*
Y134400D02*
D03*
Y147100D02*
D03*
Y159800D02*
D03*
Y172500D02*
D03*
X-72500D02*
D03*
Y159800D02*
D03*
Y147100D02*
D03*
Y134400D02*
D03*
Y121700D02*
D03*
Y109000D02*
D03*
Y96300D02*
D03*
Y83600D02*
D03*
Y70900D02*
D03*
Y58200D02*
D03*
Y45500D02*
D03*
Y32800D02*
D03*
Y20100D02*
D03*
Y7400D02*
D03*
D25*
X-217150Y185000D02*
D03*
X-204450D02*
D03*
X-191750D02*
D03*
X-179050D02*
D03*
X-166350D02*
D03*
X-153650D02*
D03*
X-140950D02*
D03*
X-128250D02*
D03*
X-115550D02*
D03*
X-102850D02*
D03*
D27*
X-161005Y418240D02*
D03*
Y424740D02*
D03*
Y431240D02*
D03*
Y437740D02*
D03*
X-138995D02*
D03*
Y431240D02*
D03*
Y424740D02*
D03*
D28*
Y418240D02*
D03*
D29*
X-329102Y179500D02*
D03*
X310898D02*
D03*
D30*
X-329102Y160500D02*
D03*
X-310898Y170000D02*
D03*
X329102D02*
D03*
X310898Y160500D02*
D03*
D36*
X173290Y179500D02*
D03*
Y160500D02*
D03*
X149290D02*
D03*
Y170000D02*
D03*
Y179500D02*
D03*
D38*
X383080Y225400D02*
D03*
Y174600D02*
D03*
X-383080Y225400D02*
D03*
Y174600D02*
D03*
D39*
X483070Y200000D02*
D03*
X-483070D02*
D03*
D40*
X223970Y160000D02*
D03*
X196030D02*
D03*
D41*
X172720Y113970D02*
D03*
Y86030D02*
D03*
X-280000Y243970D02*
D03*
Y216030D02*
D03*
X-70000Y373970D02*
D03*
Y346030D02*
D03*
X-230000Y334010D02*
D03*
Y361950D02*
D03*
X-200000Y334010D02*
D03*
Y361950D02*
D03*
X-70000Y433970D02*
D03*
Y406030D02*
D03*
X-330000Y243970D02*
D03*
Y216030D02*
D03*
X-165100Y508000D02*
D03*
Y535940D02*
D03*
X-88900Y508000D02*
D03*
Y535940D02*
D03*
X330000Y243970D02*
D03*
Y216030D02*
D03*
X290000D02*
D03*
Y243970D02*
D03*
X110000Y193970D02*
D03*
Y166030D02*
D03*
X-25400Y119380D02*
D03*
Y91440D02*
D03*
X210000Y113970D02*
D03*
Y86030D02*
D03*
D42*
X-130000Y480160D02*
D03*
Y459840D02*
D03*
X-100000Y404840D02*
D03*
Y425160D02*
D03*
X-62230Y524510D02*
D03*
Y504190D02*
D03*
X11430Y92710D02*
D03*
Y72390D02*
D03*
Y40640D02*
D03*
Y20320D02*
D03*
X-24130Y40640D02*
D03*
Y20320D02*
D03*
X-48260Y40640D02*
D03*
Y20320D02*
D03*
D43*
X640250Y328500D02*
D03*
X646750D02*
D03*
X653250D02*
D03*
X659750D02*
D03*
X640250Y371500D02*
D03*
X646750D02*
D03*
X653250D02*
D03*
X659750D02*
D03*
X-1309750Y328500D02*
D03*
X-1303250D02*
D03*
X-1296750D02*
D03*
X-1290250D02*
D03*
X-1309750Y371500D02*
D03*
X-1303250D02*
D03*
X-1296750D02*
D03*
X-1290250D02*
D03*
X-659750Y328500D02*
D03*
X-653250D02*
D03*
X-646750D02*
D03*
X-640250D02*
D03*
X-659750Y371500D02*
D03*
X-653250D02*
D03*
X-646750D02*
D03*
X-640250D02*
D03*
X1290250Y328500D02*
D03*
X1296750D02*
D03*
X1303250D02*
D03*
X1309750D02*
D03*
X1290250Y371500D02*
D03*
X1296750D02*
D03*
X1303250D02*
D03*
X1309750D02*
D03*
D44*
X35290Y314960D02*
D03*
X160290D02*
D03*
D45*
X-332740Y343930D02*
D03*
Y313930D02*
D03*
D46*
X49530Y73630D02*
D03*
Y62230D02*
D03*
Y39430D02*
D03*
Y28030D02*
D03*
D47*
X112530Y50830D02*
D03*
D48*
X100000Y129500D02*
D03*
Y110500D02*
D03*
X120000Y120000D02*
D03*
D49*
X-133852Y413097D02*
Y417965D01*
X-138721D02*
X-133852D01*
X-125595Y404840D02*
X-100000D01*
X-133852Y413097D02*
X-125595Y404840D01*
D50*
X-332740Y372110D02*
D03*
X-307340D02*
D03*
X-674600Y40000D02*
D03*
X-165100Y575310D02*
D03*
X-139700D02*
D03*
X-114300D02*
D03*
X-88900D02*
D03*
X-63500D02*
D03*
X574600Y40000D02*
D03*
X674600D02*
D03*
X-574600D02*
D03*
D51*
X-281940Y372110D02*
D03*
X-700000Y40000D02*
D03*
X-38100Y575310D02*
D03*
X600000Y40000D02*
D03*
X700000D02*
D03*
X-600000D02*
D03*
D52*
X35560Y497840D02*
D03*
X170560D02*
D03*
D53*
X139060Y437840D02*
D03*
X67060D02*
D03*
D54*
X277700Y179500D02*
D03*
X-265410Y45000D02*
D03*
X-133350Y349250D02*
D03*
X-215900Y251460D02*
D03*
X-92710Y462280D02*
D03*
X412750Y341630D02*
D03*
X234950D02*
D03*
X394970Y59690D02*
D03*
X279400Y58420D02*
D03*
X25400Y139700D02*
D03*
X151130D02*
D03*
X-144310Y241300D02*
D03*
X-55880Y214630D02*
D03*
X-179070Y256540D02*
D03*
X-1351270Y31270D02*
D03*
X-1360160Y274030D02*
D03*
X-1201270Y31270D02*
D03*
X-1210160Y274030D02*
D03*
X-1060160D02*
D03*
X-1051270Y31270D02*
D03*
X-910160Y274030D02*
D03*
X-901270Y31270D02*
D03*
X-760160Y274030D02*
D03*
X-751270Y31270D02*
D03*
X750000Y50000D02*
D03*
Y300000D02*
D03*
X900000Y50000D02*
D03*
Y300000D02*
D03*
X1050000Y50000D02*
D03*
Y300000D02*
D03*
X1200000D02*
D03*
Y50000D02*
D03*
X1350000Y300000D02*
D03*
Y50000D02*
D03*
X-199390Y302260D02*
D03*
X-228600D02*
D03*
X-265410Y85000D02*
D03*
Y65000D02*
D03*
X-265430Y25000D02*
D03*
X-163830Y473710D02*
D03*
Y215900D02*
D03*
X-85090Y211630D02*
D03*
X-34290Y208280D02*
D03*
X579120Y326390D02*
D03*
M02*
