G04*
G04 #@! TF.GenerationSoftware,Altium Limited,Altium Designer,23.10.1 (27)*
G04*
G04 Layer_Color=65535*
%FSLAX44Y44*%
%MOMM*%
G71*
G04*
G04 #@! TF.SameCoordinates,03B978FF-55A4-44C7-B640-70ACE0D70F40*
G04*
G04*
G04 #@! TF.FilePolarity,Positive*
G04*
G01*
G75*
%ADD10C,0.2500*%
%ADD11C,0.1000*%
%ADD12C,0.2000*%
%ADD13C,0.2032*%
%ADD14C,0.3048*%
%ADD15C,0.1524*%
%ADD16C,0.2540*%
D10*
X-58000Y7400D02*
G03*
X-58000Y7400I-1250J0D01*
G01*
X-123750Y418240D02*
G03*
X-123750Y418240I-1250J0D01*
G01*
X633750Y328500D02*
G03*
X633750Y328500I-1250J0D01*
G01*
X-1316250D02*
G03*
X-1316250Y328500I-1250J0D01*
G01*
X-666250D02*
G03*
X-666250Y328500I-1250J0D01*
G01*
X1283750D02*
G03*
X1283750Y328500I-1250J0D01*
G01*
X140040Y178500D02*
G03*
X140040Y178500I-1250J0D01*
G01*
X101250Y139000D02*
G03*
X101250Y139000I-1250J0D01*
G01*
D11*
X-359000Y174600D02*
G03*
X-360000Y174600I-500J0D01*
G01*
D02*
G03*
X-359000Y174600I500J0D01*
G01*
X359000Y225400D02*
G03*
X360000Y225400I500J0D01*
G01*
D02*
G03*
X359000Y225400I-500J0D01*
G01*
X180560Y419340D02*
Y467840D01*
X157060Y419340D02*
X180560D01*
X25560D02*
X47060D01*
X25560D02*
Y467840D01*
X180560Y507840D02*
Y601340D01*
X25560D02*
X180560D01*
X25560Y507840D02*
Y601340D01*
X72330Y83330D02*
X134530D01*
X72330Y18330D02*
Y83330D01*
Y18330D02*
X134530D01*
D12*
X33530Y72830D02*
G03*
X33530Y74830I0J1000D01*
G01*
D02*
G03*
X33530Y72830I0J-1000D01*
G01*
X-69250Y-68250D02*
Y-850D01*
Y180750D02*
Y188250D01*
X-250750D02*
X-225400D01*
X-94600D02*
X-69250D01*
X-250750Y-68250D02*
Y-850D01*
Y180750D02*
Y188250D01*
Y-68250D02*
X-69250D01*
X-164000Y410990D02*
X-136000D01*
X-164000Y444990D02*
X-136000D01*
X-317731Y184500D02*
X-313500D01*
Y155500D02*
Y163360D01*
Y176640D02*
Y184500D01*
X-317731Y155500D02*
X-313500D01*
X-326500Y167140D02*
Y172860D01*
X634500Y342500D02*
X665500D01*
X634500Y357500D02*
X665500D01*
X634500Y342500D02*
Y357500D01*
X665500Y342500D02*
Y357500D01*
X-1315500Y342500D02*
X-1284500D01*
X-1315500Y357500D02*
X-1284500D01*
X-1315500Y342500D02*
Y357500D01*
X-1284500Y342500D02*
Y357500D01*
X-665500Y342500D02*
X-634500D01*
X-665500Y357500D02*
X-634500D01*
X-665500Y342500D02*
Y357500D01*
X-634500Y342500D02*
Y357500D01*
X1284500Y342500D02*
X1315500D01*
X1284500Y357500D02*
X1315500D01*
X1284500Y342500D02*
Y357500D01*
X1315500Y342500D02*
Y357500D01*
X36290Y401460D02*
X184290D01*
X11290Y376460D02*
X36290Y401460D01*
X184290Y335460D02*
Y401460D01*
X11290Y335460D02*
Y376460D01*
Y253460D02*
Y294460D01*
X184290Y228460D02*
Y294460D01*
X11290Y253460D02*
X36290Y228460D01*
X184290D01*
X313500Y167140D02*
Y172860D01*
X322269Y155500D02*
X326500D01*
Y176640D02*
Y184500D01*
Y155500D02*
Y163360D01*
X322269Y184500D02*
X326500D01*
X-426780Y149200D02*
Y250800D01*
X-324990Y324930D02*
Y332930D01*
X-340490Y324930D02*
Y332930D01*
X-269240Y359410D02*
Y384810D01*
X-345440Y359410D02*
X-269240D01*
X-345440D02*
Y384810D01*
X-269240D01*
X-712700Y52700D02*
X-661900D01*
X-712700Y27300D02*
Y52700D01*
Y27300D02*
X-661900D01*
Y52700D01*
X-177800Y588010D02*
X-25400D01*
X-29633D02*
X-25400Y592243D01*
X-169333Y600710D02*
Y634577D01*
X-165100Y638810D01*
X-160866Y634577D01*
Y600710D02*
Y634577D01*
X-143933Y600710D02*
Y634577D01*
X-139700Y638810D01*
X-135466Y634577D01*
Y600710D02*
Y634577D01*
X-118533Y600710D02*
Y634577D01*
X-114300Y638810D01*
X-110066Y634577D01*
Y600710D02*
Y634577D01*
X-93133Y600710D02*
Y634577D01*
X-88900Y638810D01*
X-84667Y634577D01*
Y600710D02*
Y634577D01*
X-67733Y600710D02*
Y634577D01*
X-63500Y638810D01*
X-59267Y634577D01*
Y600710D02*
Y634577D01*
X-42333Y600710D02*
Y634577D01*
X-38100Y638810D01*
X-33867Y634577D01*
Y600710D02*
Y634577D01*
X-177800Y588010D02*
Y600710D01*
X-25400D01*
Y588010D02*
Y600710D01*
X426780Y149200D02*
Y250800D01*
X202250Y156000D02*
Y164000D01*
X217750Y156000D02*
Y164000D01*
X157040Y154500D02*
X165540D01*
X169790Y167000D02*
Y173000D01*
X157040Y185500D02*
X165540D01*
X108350Y134600D02*
X116500D01*
Y128000D02*
Y134600D01*
X108350Y105400D02*
X116500D01*
Y112000D01*
X-10420Y394980D02*
Y427980D01*
X-42920Y394980D02*
Y427980D01*
X561900Y27300D02*
Y52700D01*
X612700D01*
Y27300D02*
Y52700D01*
X561900Y27300D02*
X612700D01*
X661900D02*
Y52700D01*
X712700D01*
Y27300D02*
Y52700D01*
X661900Y27300D02*
X712700D01*
X-561900D02*
Y52700D01*
X-612700Y27300D02*
X-561900D01*
X-612700D02*
Y52700D01*
X-561900D01*
D13*
X161290Y122860D02*
X184150D01*
Y77140D02*
Y122860D01*
X161290Y77140D02*
X184150D01*
X161290D02*
Y122860D01*
X-291430Y252860D02*
X-268570D01*
Y207140D02*
Y252860D01*
X-291430Y207140D02*
X-268570D01*
X-291430D02*
Y252860D01*
X-81430Y382860D02*
X-58570D01*
Y337140D02*
Y382860D01*
X-81430Y337140D02*
X-58570D01*
X-81430D02*
Y382860D01*
X-241430Y325120D02*
Y370840D01*
Y325120D02*
X-218570D01*
Y370840D01*
X-241430D02*
X-218570D01*
X-211430Y325120D02*
Y370840D01*
Y325120D02*
X-188570D01*
Y370840D01*
X-211430D02*
X-188570D01*
X-58570Y397140D02*
Y442860D01*
X-81430D02*
X-58570D01*
X-81430Y397140D02*
Y442860D01*
Y397140D02*
X-58570D01*
X-318570Y207140D02*
Y252860D01*
X-341430D02*
X-318570D01*
X-341430Y207140D02*
Y252860D01*
Y207140D02*
X-318570D01*
X-176530Y499110D02*
Y544830D01*
Y499110D02*
X-153670D01*
Y544830D01*
X-176530D02*
X-153670D01*
X-100330Y499110D02*
Y544830D01*
Y499110D02*
X-77470D01*
Y544830D01*
X-100330D02*
X-77470D01*
X341430Y207140D02*
Y252860D01*
X318570D02*
X341430D01*
X318570Y207140D02*
Y252860D01*
Y207140D02*
X341430D01*
X278570D02*
Y252860D01*
Y207140D02*
X301430D01*
Y252860D01*
X278570D02*
X301430D01*
X98570Y202860D02*
X121430D01*
Y157140D02*
Y202860D01*
X98570Y157140D02*
X121430D01*
X98570D02*
Y202860D01*
X-36830Y128270D02*
X-13970D01*
Y82550D02*
Y128270D01*
X-36830Y82550D02*
X-13970D01*
X-36830D02*
Y128270D01*
X198570Y122860D02*
X221430D01*
Y77140D02*
Y122860D01*
X198570Y77140D02*
X221430D01*
X198570D02*
Y122860D01*
D14*
X-136249Y470003D02*
X-123751D01*
X-106249Y414998D02*
X-93751D01*
X-68479Y514352D02*
X-55981D01*
X5181Y82548D02*
X17679D01*
X5181Y30477D02*
X17679D01*
X-30379D02*
X-17881D01*
X-54509D02*
X-42011D01*
D15*
X-3638Y313104D02*
Y319960D01*
X-210Y316532D02*
X-7066D01*
D16*
X-175260Y560718D02*
X-172927D01*
X-174094D01*
Y553720D01*
X-175260D01*
X-172927D01*
X-165930Y560718D02*
X-168262D01*
X-169429Y559552D01*
Y554886D01*
X-168262Y553720D01*
X-165930D01*
X-164763Y554886D01*
Y559552D01*
X-165930Y560718D01*
X-162431Y559552D02*
X-161264Y560718D01*
X-158932D01*
X-157766Y559552D01*
Y554886D01*
X-158932Y553720D01*
X-161264D01*
X-162431Y554886D01*
Y559552D01*
X-41055D02*
X-42221Y560718D01*
X-44554D01*
X-45720Y559552D01*
Y554886D01*
X-44554Y553720D01*
X-42221D01*
X-41055Y554886D01*
Y557219D01*
X-43387D01*
X-38722Y553720D02*
Y560718D01*
X-34057Y553720D01*
Y560718D01*
X-31725D02*
Y553720D01*
X-28226D01*
X-27059Y554886D01*
Y559552D01*
X-28226Y560718D01*
X-31725D01*
X-97790Y559552D02*
X-96624Y560718D01*
X-94291D01*
X-93125Y559552D01*
Y558385D01*
X-94291Y557219D01*
X-95457D01*
X-94291D01*
X-93125Y556053D01*
Y554886D01*
X-94291Y553720D01*
X-96624D01*
X-97790Y554886D01*
X-90792Y553720D02*
Y554886D01*
X-89626D01*
Y553720D01*
X-90792D01*
X-84961Y559552D02*
X-83794Y560718D01*
X-81462D01*
X-80296Y559552D01*
Y558385D01*
X-81462Y557219D01*
X-82628D01*
X-81462D01*
X-80296Y556053D01*
Y554886D01*
X-81462Y553720D01*
X-83794D01*
X-84961Y554886D01*
X-71120Y553720D02*
Y560718D01*
X-67621D01*
X-66455Y559552D01*
Y557219D01*
X-67621Y556053D01*
X-71120D01*
X-68787D02*
X-66455Y553720D01*
X-59457Y559552D02*
X-60623Y560718D01*
X-62956D01*
X-64122Y559552D01*
Y558385D01*
X-62956Y557219D01*
X-60623D01*
X-59457Y556053D01*
Y554886D01*
X-60623Y553720D01*
X-62956D01*
X-64122Y554886D01*
X-57125Y560718D02*
X-52459D01*
X-54792D01*
Y553720D01*
X-120650Y560718D02*
X-115985D01*
X-118317D01*
Y553720D01*
X-113652Y558385D02*
X-108987Y553720D01*
X-111320Y556053D01*
X-108987Y558385D01*
X-113652Y553720D01*
X-146050D02*
Y560718D01*
X-142551D01*
X-141385Y559552D01*
Y557219D01*
X-142551Y556053D01*
X-146050D01*
X-143717D02*
X-141385Y553720D01*
X-139052Y558385D02*
X-134387Y553720D01*
X-136720Y556053D01*
X-134387Y558385D01*
X-139052Y553720D01*
X-343592Y261001D02*
Y268999D01*
X-339593D01*
X-338260Y267666D01*
Y265000D01*
X-339593Y263667D01*
X-343592D01*
X-340926D02*
X-338260Y261001D01*
X-335594D02*
Y268999D01*
X-331596D01*
X-330263Y267666D01*
Y265000D01*
X-331596Y263667D01*
X-335594D01*
X-327597Y268999D02*
Y262334D01*
X-326264Y261001D01*
X-323598D01*
X-322266Y262334D01*
Y268999D01*
X-314268Y261001D02*
X-319600D01*
X-314268Y266333D01*
Y267666D01*
X-315601Y268999D01*
X-318267D01*
X-319600Y267666D01*
X-264508Y198999D02*
Y191001D01*
X-268507D01*
X-269840Y192334D01*
Y195000D01*
X-268507Y196333D01*
X-264508D01*
X-267174D02*
X-269840Y198999D01*
X-272505D02*
Y191001D01*
X-276504D01*
X-277837Y192334D01*
Y195000D01*
X-276504Y196333D01*
X-272505D01*
X-280503Y191001D02*
Y198999D01*
X-284502D01*
X-285835Y197666D01*
Y192334D01*
X-284502Y191001D01*
X-280503D01*
X-293832Y198999D02*
X-288500D01*
X-293832Y193667D01*
Y192334D01*
X-292499Y191001D01*
X-289833D01*
X-288500Y192334D01*
X-370332Y272334D02*
Y277666D01*
X-371665Y278999D01*
X-374330D01*
X-375663Y277666D01*
Y272334D01*
X-374330Y271001D01*
X-371665D01*
X-372997Y273667D02*
X-370332Y271001D01*
X-371665D02*
X-370332Y272334D01*
X-367666Y271001D02*
Y278999D01*
X-363667D01*
X-362334Y277666D01*
Y275000D01*
X-363667Y273667D01*
X-367666D01*
X-354337Y271001D02*
X-359668D01*
X-354337Y276333D01*
Y277666D01*
X-355670Y278999D01*
X-358335D01*
X-359668Y277666D01*
X-332992Y141794D02*
Y147126D01*
X-334324Y148459D01*
X-336990D01*
X-338323Y147126D01*
Y141794D01*
X-336990Y140461D01*
X-334324D01*
X-335657Y143127D02*
X-332992Y140461D01*
X-334324D02*
X-332992Y141794D01*
X-330326Y140461D02*
Y148459D01*
X-324994Y140461D01*
Y148459D01*
X-316997Y140461D02*
X-322328D01*
X-316997Y145793D01*
Y147126D01*
X-318330Y148459D01*
X-320995D01*
X-322328Y147126D01*
X-140154Y405319D02*
Y398654D01*
X-138822Y397321D01*
X-136156D01*
X-134823Y398654D01*
Y405319D01*
X-132157Y403986D02*
X-130824Y405319D01*
X-128158D01*
X-126826Y403986D01*
Y402653D01*
X-128158Y401320D01*
X-129491D01*
X-128158D01*
X-126826Y399987D01*
Y398654D01*
X-128158Y397321D01*
X-130824D01*
X-132157Y398654D01*
X-56597Y461488D02*
Y469485D01*
X-52599D01*
X-51266Y468152D01*
Y465486D01*
X-52599Y464154D01*
X-56597D01*
X-53932D02*
X-51266Y461488D01*
X-48600Y460155D02*
X-43268D01*
X-40603Y461488D02*
X-36604D01*
X-35271Y462821D01*
X-36604Y464154D01*
X-39270D01*
X-40603Y465486D01*
X-39270Y466819D01*
X-35271D01*
X-32605Y469485D02*
Y461488D01*
Y465486D01*
X-31272Y466819D01*
X-28606D01*
X-27274Y465486D01*
Y461488D01*
X-24608Y466819D02*
Y462821D01*
X-23275Y461488D01*
X-19276D01*
Y466819D01*
X-16610Y461488D02*
Y466819D01*
X-12612D01*
X-11279Y465486D01*
Y461488D01*
X-7280Y468152D02*
Y466819D01*
X-8613D01*
X-5947D01*
X-7280D01*
Y462821D01*
X-5947Y461488D01*
X-1948D02*
X717D01*
X-615D01*
Y469485D01*
X-1948Y468152D01*
X-206665Y310961D02*
Y318959D01*
X-202666D01*
X-201333Y317626D01*
Y314960D01*
X-202666Y313627D01*
X-206665D01*
X-203999D02*
X-201333Y310961D01*
X-198667Y317626D02*
X-197334Y318959D01*
X-194668D01*
X-193335Y317626D01*
Y316293D01*
X-194668Y314960D01*
X-193335Y313627D01*
Y312294D01*
X-194668Y310961D01*
X-197334D01*
X-198667Y312294D01*
Y313627D01*
X-197334Y314960D01*
X-198667Y316293D01*
Y317626D01*
X-197334Y314960D02*
X-194668D01*
X-236665Y310961D02*
Y318959D01*
X-232666D01*
X-231333Y317626D01*
Y314960D01*
X-232666Y313627D01*
X-236665D01*
X-233999D02*
X-231333Y310961D01*
X-228667Y318959D02*
X-223335D01*
Y317626D01*
X-228667Y312294D01*
Y310961D01*
X-76665Y322981D02*
Y330979D01*
X-72666D01*
X-71333Y329646D01*
Y326980D01*
X-72666Y325647D01*
X-76665D01*
X-73999D02*
X-71333Y322981D01*
X-63335Y330979D02*
X-66001Y329646D01*
X-68667Y326980D01*
Y324314D01*
X-67334Y322981D01*
X-64668D01*
X-63335Y324314D01*
Y325647D01*
X-64668Y326980D01*
X-68667D01*
X-76665Y450291D02*
Y458289D01*
X-72666D01*
X-71333Y456956D01*
Y454290D01*
X-72666Y452957D01*
X-76665D01*
X-73999D02*
X-71333Y450291D01*
X-63335Y458289D02*
X-68667D01*
Y454290D01*
X-66001Y455623D01*
X-64668D01*
X-63335Y454290D01*
Y451624D01*
X-64668Y450291D01*
X-67334D01*
X-68667Y451624D01*
X-131333Y496796D02*
X-132666Y498129D01*
X-135332D01*
X-136664Y496796D01*
Y491464D01*
X-135332Y490131D01*
X-132666D01*
X-131333Y491464D01*
X-128667Y496796D02*
X-127334Y498129D01*
X-124668D01*
X-123336Y496796D01*
Y495463D01*
X-124668Y494130D01*
X-123336Y492797D01*
Y491464D01*
X-124668Y490131D01*
X-127334D01*
X-128667Y491464D01*
Y492797D01*
X-127334Y494130D01*
X-128667Y495463D01*
Y496796D01*
X-127334Y494130D02*
X-124668D01*
X-102603Y390996D02*
X-103936Y392329D01*
X-106602D01*
X-107935Y390996D01*
Y385664D01*
X-106602Y384331D01*
X-103936D01*
X-102603Y385664D01*
X-99937Y392329D02*
X-94606D01*
Y390996D01*
X-99937Y385664D01*
Y384331D01*
X1252987Y382459D02*
Y375794D01*
X1254320Y374461D01*
X1256985D01*
X1258318Y375794D01*
Y382459D01*
X1260984D02*
X1266316D01*
X1263650D01*
Y374461D01*
X1272980D02*
Y382459D01*
X1268982Y378460D01*
X1274313D01*
X602747Y379919D02*
Y373254D01*
X604080Y371921D01*
X606745D01*
X608078Y373254D01*
Y379919D01*
X610744D02*
X616076D01*
X613410D01*
Y371921D01*
X618742Y378586D02*
X620075Y379919D01*
X622740D01*
X624073Y378586D01*
Y377253D01*
X622740Y375920D01*
X621407D01*
X622740D01*
X624073Y374587D01*
Y373254D01*
X622740Y371921D01*
X620075D01*
X618742Y373254D01*
X-697733Y381189D02*
Y374524D01*
X-696400Y373191D01*
X-693735D01*
X-692402Y374524D01*
Y381189D01*
X-689736D02*
X-684404D01*
X-687070D01*
Y373191D01*
X-676407D02*
X-681738D01*
X-676407Y378523D01*
Y379856D01*
X-677740Y381189D01*
X-680406D01*
X-681738Y379856D01*
X-1346640Y379919D02*
Y373254D01*
X-1345307Y371921D01*
X-1342642D01*
X-1341309Y373254D01*
Y379919D01*
X-1338643D02*
X-1333311D01*
X-1335977D01*
Y371921D01*
X-1330645D02*
X-1327980D01*
X-1329313D01*
Y379919D01*
X-1330645Y378586D01*
X34931Y105599D02*
Y98934D01*
X36264Y97601D01*
X38930D01*
X40263Y98934D01*
Y105599D01*
X42928D02*
Y97601D01*
X48260D01*
X50926D02*
Y105599D01*
X54925D01*
X56257Y104266D01*
Y101600D01*
X54925Y100267D01*
X50926D01*
X53592D02*
X56257Y97601D01*
X58923D02*
X61589D01*
X60256D01*
Y105599D01*
X58923Y104266D01*
X-254508Y210181D02*
Y203517D01*
X-253175Y202184D01*
X-250509D01*
X-249176Y203517D01*
Y210181D01*
X-241179Y202184D02*
X-246511D01*
X-241179Y207516D01*
Y208848D01*
X-242512Y210181D01*
X-245178D01*
X-246511Y208848D01*
X146458Y199739D02*
Y193074D01*
X147791Y191741D01*
X150457D01*
X151790Y193074D01*
Y199739D01*
X154456Y191741D02*
X157122D01*
X155789D01*
Y199739D01*
X154456Y198406D01*
X-347402Y289371D02*
Y297369D01*
X-343403D01*
X-342070Y296036D01*
Y293370D01*
X-343403Y292037D01*
X-347402D01*
X-344736D02*
X-342070Y289371D01*
X-339404D02*
Y297369D01*
X-335406D01*
X-334073Y296036D01*
Y293370D01*
X-335406Y292037D01*
X-339404D01*
X-331407Y297369D02*
Y290704D01*
X-330074Y289371D01*
X-327408D01*
X-326076Y290704D01*
Y297369D01*
X-319411Y289371D02*
Y297369D01*
X-323410Y293370D01*
X-318078D01*
X-38792Y134431D02*
Y142429D01*
X-34793D01*
X-33460Y141096D01*
Y138430D01*
X-34793Y137097D01*
X-38792D01*
X-36126D02*
X-33460Y134431D01*
X-30794D02*
Y142429D01*
X-26796D01*
X-25463Y141096D01*
Y138430D01*
X-26796Y137097D01*
X-30794D01*
X-22797Y142429D02*
Y135764D01*
X-21464Y134431D01*
X-18798D01*
X-17465Y135764D01*
Y142429D01*
X-14800Y141096D02*
X-13467Y142429D01*
X-10801D01*
X-9468Y141096D01*
Y139763D01*
X-10801Y138430D01*
X-12134D01*
X-10801D01*
X-9468Y137097D01*
Y135764D01*
X-10801Y134431D01*
X-13467D01*
X-14800Y135764D01*
X315601Y261001D02*
Y268999D01*
X319600D01*
X320933Y267666D01*
Y265000D01*
X319600Y263667D01*
X315601D01*
X318267D02*
X320933Y261001D01*
X323598D02*
Y268999D01*
X327597D01*
X328930Y267666D01*
Y265000D01*
X327597Y263667D01*
X323598D01*
X331596Y268999D02*
Y262334D01*
X332929Y261001D01*
X335594D01*
X336927Y262334D01*
Y268999D01*
X339593Y261001D02*
X342259D01*
X340926D01*
Y268999D01*
X339593Y267666D01*
X277501Y261001D02*
Y268999D01*
X281500D01*
X282833Y267666D01*
Y265000D01*
X281500Y263667D01*
X277501D01*
X280167D02*
X282833Y261001D01*
X285498D02*
Y268999D01*
X289497D01*
X290830Y267666D01*
Y265000D01*
X289497Y263667D01*
X285498D01*
X293496Y268999D02*
Y261001D01*
X297495D01*
X298827Y262334D01*
Y267666D01*
X297495Y268999D01*
X293496D01*
X301493Y261001D02*
X304159D01*
X302826D01*
Y268999D01*
X301493Y267666D01*
X-181761Y483681D02*
Y491679D01*
X-177763D01*
X-176430Y490346D01*
Y487680D01*
X-177763Y486347D01*
X-181761D01*
X-179095D02*
X-176430Y483681D01*
X-173764Y491679D02*
X-171098D01*
X-172431D01*
Y483681D01*
X-173764D01*
X-171098D01*
X-163101Y491679D02*
X-165766D01*
X-167099Y490346D01*
Y485014D01*
X-165766Y483681D01*
X-163101D01*
X-161768Y485014D01*
Y490346D01*
X-163101Y491679D01*
X-159102Y490346D02*
X-157769Y491679D01*
X-155103D01*
X-153770Y490346D01*
Y485014D01*
X-155103Y483681D01*
X-157769D01*
X-159102Y485014D01*
Y490346D01*
X-151104Y483681D02*
X-148439D01*
X-149772D01*
Y491679D01*
X-151104Y490346D01*
X-103499Y486221D02*
Y494219D01*
X-99500D01*
X-98167Y492886D01*
Y490220D01*
X-99500Y488887D01*
X-103499D01*
X-100833D02*
X-98167Y486221D01*
X-91503D02*
X-94169D01*
X-95502Y487554D01*
Y490220D01*
X-94169Y491553D01*
X-91503D01*
X-90170Y490220D01*
Y488887D01*
X-95502D01*
X-87504Y486221D02*
Y491553D01*
X-83505D01*
X-82173Y490220D01*
Y486221D01*
X-79507D02*
X-76841D01*
X-78174D01*
Y494219D01*
X-79507Y492886D01*
X204156Y63311D02*
Y71309D01*
X208154D01*
X209487Y69976D01*
Y67310D01*
X208154Y65977D01*
X204156D01*
X206821D02*
X209487Y63311D01*
X216152D02*
Y71309D01*
X212153Y67310D01*
X217484D01*
X202885Y190311D02*
Y198309D01*
X206884D01*
X208217Y196976D01*
Y194310D01*
X206884Y192977D01*
X202885D01*
X205551D02*
X208217Y190311D01*
X210883Y196976D02*
X212216Y198309D01*
X214882D01*
X216215Y196976D01*
Y195643D01*
X214882Y194310D01*
X213549D01*
X214882D01*
X216215Y192977D01*
Y191644D01*
X214882Y190311D01*
X212216D01*
X210883Y191644D01*
X102556Y208091D02*
Y216089D01*
X106554D01*
X107887Y214756D01*
Y212090D01*
X106554Y210757D01*
X102556D01*
X105221D02*
X107887Y208091D01*
X115885D02*
X110553D01*
X115885Y213423D01*
Y214756D01*
X114552Y216089D01*
X111886D01*
X110553Y214756D01*
X168208Y63631D02*
Y71629D01*
X172207D01*
X173540Y70296D01*
Y67630D01*
X172207Y66297D01*
X168208D01*
X170874D02*
X173540Y63631D01*
X176206D02*
X178872D01*
X177539D01*
Y71629D01*
X176206Y70296D01*
X361001Y272334D02*
Y277666D01*
X359668Y278999D01*
X357003D01*
X355670Y277666D01*
Y272334D01*
X357003Y271001D01*
X359668D01*
X358335Y273667D02*
X361001Y271001D01*
X359668D02*
X361001Y272334D01*
X363667Y271001D02*
Y278999D01*
X367666D01*
X368999Y277666D01*
Y275000D01*
X367666Y273667D01*
X363667D01*
X371665Y271001D02*
X374330D01*
X372998D01*
Y278999D01*
X371665Y277666D01*
X326201Y141954D02*
Y147286D01*
X324868Y148619D01*
X322203D01*
X320870Y147286D01*
Y141954D01*
X322203Y140621D01*
X324868D01*
X323535Y143287D02*
X326201Y140621D01*
X324868D02*
X326201Y141954D01*
X328867Y140621D02*
Y148619D01*
X334199Y140621D01*
Y148619D01*
X336865Y140621D02*
X339530D01*
X338197D01*
Y148619D01*
X336865Y147286D01*
X-371280Y374461D02*
Y382459D01*
X-367282D01*
X-365949Y381126D01*
Y378460D01*
X-367282Y377127D01*
X-371280D01*
X-363283Y382459D02*
X-357951D01*
X-360617D01*
Y374461D01*
X-355285D02*
X-352620D01*
X-353953D01*
Y382459D01*
X-355285Y381126D01*
X-711200Y61214D02*
Y69211D01*
X-707201D01*
X-705868Y67878D01*
Y65213D01*
X-707201Y63880D01*
X-711200D01*
X-703203Y61214D02*
Y69211D01*
X-699204D01*
X-697871Y67878D01*
Y65213D01*
X-699204Y63880D01*
X-703203D01*
X-700537D02*
X-697871Y61214D01*
X-689874D02*
X-695205D01*
X-689874Y66546D01*
Y67878D01*
X-691206Y69211D01*
X-693872D01*
X-695205Y67878D01*
X-681876Y61214D02*
X-687208D01*
X-681876Y66546D01*
Y67878D01*
X-683209Y69211D01*
X-685875D01*
X-687208Y67878D01*
X-611124Y61214D02*
Y69211D01*
X-607125D01*
X-605792Y67878D01*
Y65213D01*
X-607125Y63880D01*
X-611124D01*
X-603127Y61214D02*
Y69211D01*
X-599128D01*
X-597795Y67878D01*
Y65213D01*
X-599128Y63880D01*
X-603127D01*
X-600461D02*
X-597795Y61214D01*
X-589798D02*
X-595129D01*
X-589798Y66546D01*
Y67878D01*
X-591130Y69211D01*
X-593796D01*
X-595129Y67878D01*
X-587132Y61214D02*
X-584466D01*
X-585799D01*
Y69211D01*
X-587132Y67878D01*
X663448Y61214D02*
Y69211D01*
X667447D01*
X668780Y67878D01*
Y65213D01*
X667447Y63880D01*
X663448D01*
X671445Y61214D02*
Y69211D01*
X675444D01*
X676777Y67878D01*
Y65213D01*
X675444Y63880D01*
X671445D01*
X674111D02*
X676777Y61214D01*
X679443D02*
X682109D01*
X680776D01*
Y69211D01*
X679443Y67878D01*
X691439Y61214D02*
X686107D01*
X691439Y66546D01*
Y67878D01*
X690106Y69211D01*
X687440D01*
X686107Y67878D01*
X563372Y61214D02*
Y69211D01*
X567371D01*
X568704Y67878D01*
Y65213D01*
X567371Y63880D01*
X563372D01*
X571369Y61214D02*
Y69211D01*
X575368D01*
X576701Y67878D01*
Y65213D01*
X575368Y63880D01*
X571369D01*
X574035D02*
X576701Y61214D01*
X579367D02*
X582033D01*
X580700D01*
Y69211D01*
X579367Y67878D01*
X586031Y61214D02*
X588697D01*
X587364D01*
Y69211D01*
X586031Y67878D01*
X-12763Y597089D02*
X-15429D01*
X-14096D01*
Y590424D01*
X-15429Y589091D01*
X-16762D01*
X-18095Y590424D01*
X-4766Y589091D02*
X-10097D01*
X-4766Y594423D01*
Y595756D01*
X-6098Y597089D01*
X-8764D01*
X-10097Y595756D01*
X6350Y581849D02*
X3684D01*
X5017D01*
Y575184D01*
X3684Y573851D01*
X2351D01*
X1018Y575184D01*
X9016Y573851D02*
X11682D01*
X10349D01*
Y581849D01*
X9016Y580516D01*
X77998Y141779D02*
Y133781D01*
X81997D01*
X83330Y135114D01*
Y140446D01*
X81997Y141779D01*
X77998D01*
X85996Y133781D02*
X88662D01*
X87329D01*
Y141779D01*
X85996Y140446D01*
X-63563Y492886D02*
X-64896Y494219D01*
X-67562D01*
X-68895Y492886D01*
Y487554D01*
X-67562Y486221D01*
X-64896D01*
X-63563Y487554D01*
X-55566Y494219D02*
X-58231Y492886D01*
X-60897Y490220D01*
Y487554D01*
X-59564Y486221D01*
X-56898D01*
X-55566Y487554D01*
Y488887D01*
X-56898Y490220D01*
X-60897D01*
X-25463Y58546D02*
X-26796Y59879D01*
X-29462D01*
X-30794Y58546D01*
Y53214D01*
X-29462Y51881D01*
X-26796D01*
X-25463Y53214D01*
X-17465Y59879D02*
X-22797D01*
Y55880D01*
X-20131Y57213D01*
X-18798D01*
X-17465Y55880D01*
Y53214D01*
X-18798Y51881D01*
X-21464D01*
X-22797Y53214D01*
X-49593Y58546D02*
X-50926Y59879D01*
X-53592D01*
X-54925Y58546D01*
Y53214D01*
X-53592Y51881D01*
X-50926D01*
X-49593Y53214D01*
X-42928Y51881D02*
Y59879D01*
X-46927Y55880D01*
X-41596D01*
X10097Y58546D02*
X8764Y59879D01*
X6098D01*
X4766Y58546D01*
Y53214D01*
X6098Y51881D01*
X8764D01*
X10097Y53214D01*
X12763Y58546D02*
X14096Y59879D01*
X16762D01*
X18095Y58546D01*
Y57213D01*
X16762Y55880D01*
X15429D01*
X16762D01*
X18095Y54547D01*
Y53214D01*
X16762Y51881D01*
X14096D01*
X12763Y53214D01*
X8827Y110616D02*
X7494Y111949D01*
X4828D01*
X3496Y110616D01*
Y105284D01*
X4828Y103951D01*
X7494D01*
X8827Y105284D01*
X16825Y103951D02*
X11493D01*
X16825Y109283D01*
Y110616D01*
X15492Y111949D01*
X12826D01*
X11493Y110616D01*
X-11160Y355726D02*
X-12493Y357059D01*
X-15159D01*
X-16492Y355726D01*
Y350394D01*
X-15159Y349061D01*
X-12493D01*
X-11160Y350394D01*
X-8494Y349061D02*
X-5828D01*
X-7161D01*
Y357059D01*
X-8494Y355726D01*
M02*
