G04*
G04 #@! TF.GenerationSoftware,Altium Limited,Altium Designer,23.10.1 (27)*
G04*
G04 Layer_Color=16711935*
%FSLAX44Y44*%
%MOMM*%
G71*
G04*
G04 #@! TF.SameCoordinates,E252026D-ABAD-487A-9E39-ED487C9B17EB*
G04*
G04*
G04 #@! TF.FilePolarity,Negative*
G04*
G01*
G75*
%ADD50C,1.7032*%
%ADD51R,1.7032X1.7032*%
%ADD52C,2.9032*%
%ADD53C,4.2532*%
%ADD54C,1.4732*%
D50*
X-332740Y372110D02*
D03*
X-307340D02*
D03*
X-674600Y40000D02*
D03*
X-165100Y575310D02*
D03*
X-139700D02*
D03*
X-114300D02*
D03*
X-88900D02*
D03*
X-63500D02*
D03*
X574600Y40000D02*
D03*
X674600D02*
D03*
X-574600D02*
D03*
D51*
X-281940Y372110D02*
D03*
X-700000Y40000D02*
D03*
X-38100Y575310D02*
D03*
X600000Y40000D02*
D03*
X700000D02*
D03*
X-600000D02*
D03*
D52*
X35560Y497840D02*
D03*
X170560D02*
D03*
D53*
X139060Y437840D02*
D03*
X67060D02*
D03*
D54*
X277700Y179500D02*
D03*
X-265410Y45000D02*
D03*
X-133350Y349250D02*
D03*
X-215900Y251460D02*
D03*
X-92710Y462280D02*
D03*
X412750Y341630D02*
D03*
X234950D02*
D03*
X394970Y59690D02*
D03*
X279400Y58420D02*
D03*
X25400Y139700D02*
D03*
X151130D02*
D03*
X-144310Y241300D02*
D03*
X-55880Y214630D02*
D03*
X-179070Y256540D02*
D03*
X-1351270Y31270D02*
D03*
X-1360160Y274030D02*
D03*
X-1201270Y31270D02*
D03*
X-1210160Y274030D02*
D03*
X-1060160D02*
D03*
X-1051270Y31270D02*
D03*
X-910160Y274030D02*
D03*
X-901270Y31270D02*
D03*
X-760160Y274030D02*
D03*
X-751270Y31270D02*
D03*
X750000Y50000D02*
D03*
Y300000D02*
D03*
X900000Y50000D02*
D03*
Y300000D02*
D03*
X1050000Y50000D02*
D03*
Y300000D02*
D03*
X1200000D02*
D03*
Y50000D02*
D03*
X1350000Y300000D02*
D03*
Y50000D02*
D03*
X-199390Y302260D02*
D03*
X-228600D02*
D03*
X-265410Y85000D02*
D03*
Y65000D02*
D03*
X-265430Y25000D02*
D03*
X-163830Y473710D02*
D03*
Y215900D02*
D03*
X-85090Y211630D02*
D03*
X-34290Y208280D02*
D03*
X579120Y326390D02*
D03*
M02*
