G04*
G04 #@! TF.GenerationSoftware,Altium Limited,Altium Designer,23.10.1 (27)*
G04*
G04 Layer_Color=16711935*
%FSLAX44Y44*%
%MOMM*%
G71*
G04*
G04 #@! TF.SameCoordinates,E252026D-ABAD-487A-9E39-ED487C9B17EB*
G04*
G04*
G04 #@! TF.FilePolarity,Positive*
G04*
G01*
G75*
%ADD12C,0.2000*%
G36*
X-18497Y408512D02*
X-18506Y408438D01*
Y408355D01*
X-18515Y408161D01*
X-18543Y407957D01*
X-18571Y407736D01*
X-18617Y407532D01*
X-18645Y407430D01*
X-18673Y407347D01*
Y407338D01*
X-18682Y407329D01*
X-18710Y407273D01*
X-18747Y407190D01*
X-18811Y407088D01*
X-18895Y406978D01*
X-19006Y406857D01*
X-19135Y406746D01*
X-19283Y406635D01*
X-19292D01*
X-19301Y406626D01*
X-19357Y406589D01*
X-19449Y406552D01*
X-19569Y406497D01*
X-19708Y406451D01*
X-19875Y406404D01*
X-20050Y406376D01*
X-20244Y406367D01*
X-20254D01*
X-20272D01*
X-20309D01*
X-20355Y406376D01*
X-20420D01*
X-20485Y406386D01*
X-20642Y406423D01*
X-20827Y406478D01*
X-21021Y406552D01*
X-21215Y406663D01*
X-21308Y406737D01*
X-21400Y406811D01*
X-21409Y406820D01*
X-21419Y406829D01*
X-21446Y406857D01*
X-21474Y406894D01*
X-21511Y406940D01*
X-21548Y406996D01*
X-21594Y407070D01*
X-21650Y407144D01*
X-21696Y407236D01*
X-21742Y407338D01*
X-21798Y407449D01*
X-21844Y407569D01*
X-21881Y407708D01*
X-21927Y407847D01*
X-21955Y408004D01*
X-21983Y408170D01*
X-21992Y408152D01*
X-22010Y408115D01*
X-22047Y408059D01*
X-22084Y407985D01*
X-22186Y407819D01*
X-22251Y407736D01*
X-22306Y407662D01*
X-22325Y407643D01*
X-22371Y407597D01*
X-22445Y407523D01*
X-22537Y407430D01*
X-22667Y407329D01*
X-22806Y407209D01*
X-22972Y407088D01*
X-23157Y406959D01*
X-24895Y405859D01*
Y406913D01*
X-23564Y407754D01*
X-23554D01*
X-23536Y407773D01*
X-23508Y407791D01*
X-23471Y407819D01*
X-23369Y407883D01*
X-23240Y407967D01*
X-23101Y408068D01*
X-22953Y408170D01*
X-22815Y408272D01*
X-22685Y408364D01*
X-22676Y408374D01*
X-22639Y408401D01*
X-22584Y408447D01*
X-22519Y408512D01*
X-22380Y408651D01*
X-22315Y408725D01*
X-22260Y408799D01*
X-22251Y408808D01*
X-22241Y408827D01*
X-22223Y408864D01*
X-22195Y408919D01*
X-22167Y408974D01*
X-22140Y409039D01*
X-22094Y409187D01*
Y409196D01*
X-22084Y409215D01*
Y409252D01*
X-22075Y409298D01*
X-22066Y409363D01*
Y409437D01*
X-22057Y409538D01*
Y410630D01*
X-24895D01*
Y411480D01*
X-18497D01*
Y408512D01*
D02*
G37*
G36*
X-26106Y400663D02*
X-26670D01*
Y405868D01*
X-26106D01*
Y400663D01*
D02*
G37*
G36*
X-23388Y399701D02*
X-23397D01*
X-23406D01*
X-23462Y399683D01*
X-23554Y399664D01*
X-23656Y399627D01*
X-23767Y399581D01*
X-23887Y399525D01*
X-24007Y399442D01*
X-24109Y399341D01*
X-24118Y399322D01*
X-24146Y399285D01*
X-24183Y399211D01*
X-24229Y399119D01*
X-24276Y398998D01*
X-24313Y398860D01*
X-24340Y398693D01*
X-24350Y398499D01*
Y398407D01*
X-24340Y398314D01*
X-24322Y398194D01*
X-24294Y398065D01*
X-24257Y397926D01*
X-24211Y397806D01*
X-24137Y397695D01*
X-24128Y397686D01*
X-24100Y397649D01*
X-24054Y397612D01*
X-23989Y397556D01*
X-23915Y397510D01*
X-23823Y397464D01*
X-23730Y397436D01*
X-23619Y397427D01*
X-23610D01*
X-23573D01*
X-23527Y397436D01*
X-23462Y397454D01*
X-23397Y397482D01*
X-23333Y397528D01*
X-23259Y397584D01*
X-23203Y397667D01*
X-23194Y397676D01*
X-23184Y397704D01*
X-23157Y397750D01*
X-23129Y397824D01*
X-23092Y397935D01*
X-23064Y398000D01*
X-23046Y398074D01*
X-23018Y398157D01*
X-22990Y398250D01*
X-22963Y398351D01*
X-22935Y398471D01*
Y398481D01*
X-22926Y398508D01*
X-22916Y398555D01*
X-22898Y398610D01*
X-22879Y398684D01*
X-22852Y398767D01*
X-22806Y398943D01*
X-22741Y399146D01*
X-22685Y399341D01*
X-22621Y399525D01*
X-22584Y399609D01*
X-22556Y399673D01*
X-22547Y399692D01*
X-22528Y399729D01*
X-22491Y399784D01*
X-22445Y399858D01*
X-22380Y399942D01*
X-22306Y400025D01*
X-22223Y400108D01*
X-22121Y400182D01*
X-22112Y400191D01*
X-22075Y400210D01*
X-22010Y400237D01*
X-21936Y400265D01*
X-21844Y400293D01*
X-21733Y400321D01*
X-21622Y400339D01*
X-21493Y400348D01*
X-21474D01*
X-21437D01*
X-21382Y400339D01*
X-21298Y400330D01*
X-21215Y400311D01*
X-21114Y400293D01*
X-21021Y400256D01*
X-20919Y400210D01*
X-20910Y400200D01*
X-20873Y400182D01*
X-20827Y400154D01*
X-20762Y400108D01*
X-20698Y400052D01*
X-20614Y399988D01*
X-20540Y399914D01*
X-20476Y399821D01*
X-20466Y399812D01*
X-20457Y399784D01*
X-20429Y399747D01*
X-20402Y399692D01*
X-20365Y399618D01*
X-20328Y399535D01*
X-20291Y399433D01*
X-20254Y399322D01*
X-20244Y399304D01*
X-20235Y399267D01*
X-20217Y399202D01*
X-20198Y399119D01*
X-20180Y399017D01*
X-20171Y398906D01*
X-20152Y398777D01*
Y398555D01*
X-20161Y398453D01*
X-20171Y398314D01*
X-20189Y398166D01*
X-20226Y398009D01*
X-20263Y397843D01*
X-20318Y397686D01*
Y397676D01*
X-20328Y397667D01*
X-20346Y397621D01*
X-20383Y397547D01*
X-20429Y397454D01*
X-20494Y397353D01*
X-20568Y397251D01*
X-20651Y397159D01*
X-20744Y397075D01*
X-20753Y397066D01*
X-20790Y397048D01*
X-20855Y397011D01*
X-20929Y396964D01*
X-21040Y396918D01*
X-21160Y396872D01*
X-21298Y396835D01*
X-21456Y396798D01*
X-21557Y397565D01*
X-21539D01*
X-21502Y397575D01*
X-21437Y397593D01*
X-21354Y397621D01*
X-21271Y397667D01*
X-21178Y397723D01*
X-21086Y397787D01*
X-21003Y397880D01*
X-20993Y397889D01*
X-20975Y397926D01*
X-20938Y397981D01*
X-20901Y398065D01*
X-20864Y398157D01*
X-20827Y398277D01*
X-20808Y398425D01*
X-20799Y398582D01*
Y398675D01*
X-20808Y398767D01*
X-20818Y398888D01*
X-20845Y399008D01*
X-20873Y399137D01*
X-20919Y399257D01*
X-20984Y399359D01*
X-20993Y399368D01*
X-21012Y399396D01*
X-21049Y399433D01*
X-21104Y399470D01*
X-21160Y399516D01*
X-21234Y399553D01*
X-21317Y399581D01*
X-21400Y399590D01*
X-21409D01*
X-21428D01*
X-21456Y399581D01*
X-21493D01*
X-21585Y399553D01*
X-21677Y399498D01*
X-21687Y399488D01*
X-21696Y399479D01*
X-21724Y399461D01*
X-21751Y399424D01*
X-21779Y399387D01*
X-21816Y399331D01*
X-21844Y399267D01*
X-21881Y399193D01*
Y399183D01*
X-21890Y399165D01*
X-21899Y399128D01*
X-21927Y399063D01*
X-21955Y398971D01*
X-21983Y398851D01*
X-22010Y398777D01*
X-22029Y398693D01*
X-22057Y398601D01*
X-22084Y398499D01*
Y398490D01*
X-22094Y398462D01*
X-22103Y398416D01*
X-22121Y398361D01*
X-22140Y398296D01*
X-22158Y398213D01*
X-22214Y398037D01*
X-22269Y397843D01*
X-22334Y397649D01*
X-22399Y397473D01*
X-22426Y397399D01*
X-22454Y397334D01*
X-22463Y397316D01*
X-22482Y397279D01*
X-22510Y397223D01*
X-22556Y397140D01*
X-22611Y397057D01*
X-22685Y396974D01*
X-22768Y396890D01*
X-22861Y396817D01*
X-22870Y396807D01*
X-22907Y396789D01*
X-22963Y396752D01*
X-23046Y396715D01*
X-23148Y396687D01*
X-23259Y396650D01*
X-23388Y396632D01*
X-23536Y396622D01*
X-23554D01*
X-23601D01*
X-23675Y396632D01*
X-23776Y396650D01*
X-23887Y396678D01*
X-24007Y396724D01*
X-24146Y396780D01*
X-24276Y396853D01*
X-24294Y396863D01*
X-24331Y396900D01*
X-24396Y396946D01*
X-24470Y397020D01*
X-24553Y397122D01*
X-24645Y397233D01*
X-24729Y397362D01*
X-24812Y397519D01*
Y397528D01*
X-24821Y397538D01*
X-24839Y397593D01*
X-24867Y397686D01*
X-24904Y397806D01*
X-24941Y397954D01*
X-24969Y398120D01*
X-24987Y398296D01*
X-24997Y398499D01*
Y398582D01*
X-24987Y398647D01*
Y398721D01*
X-24978Y398814D01*
X-24969Y398906D01*
X-24950Y399008D01*
X-24904Y399230D01*
X-24839Y399461D01*
X-24747Y399683D01*
X-24692Y399784D01*
X-24627Y399877D01*
X-24618Y399886D01*
X-24608Y399895D01*
X-24553Y399951D01*
X-24470Y400034D01*
X-24340Y400126D01*
X-24183Y400228D01*
X-23998Y400330D01*
X-23767Y400413D01*
X-23508Y400478D01*
X-23388Y399701D01*
D02*
G37*
G36*
X-18497Y394903D02*
X-20790D01*
X-20781Y394893D01*
X-20762Y394875D01*
X-20735Y394847D01*
X-20688Y394801D01*
X-20642Y394755D01*
X-20587Y394690D01*
X-20531Y394607D01*
X-20466Y394524D01*
X-20411Y394431D01*
X-20355Y394329D01*
X-20254Y394089D01*
X-20208Y393960D01*
X-20180Y393821D01*
X-20161Y393673D01*
X-20152Y393525D01*
Y393442D01*
X-20161Y393340D01*
X-20180Y393220D01*
X-20198Y393081D01*
X-20235Y392933D01*
X-20291Y392785D01*
X-20355Y392637D01*
X-20365Y392619D01*
X-20392Y392573D01*
X-20439Y392508D01*
X-20503Y392425D01*
X-20587Y392342D01*
X-20679Y392249D01*
X-20790Y392166D01*
X-20919Y392092D01*
X-20938Y392083D01*
X-20984Y392064D01*
X-21067Y392037D01*
X-21188Y392009D01*
X-21335Y391981D01*
X-21511Y391953D01*
X-21724Y391935D01*
X-21964Y391926D01*
X-24895D01*
Y392711D01*
X-21955D01*
X-21946D01*
X-21927D01*
X-21899D01*
X-21862D01*
X-21761Y392721D01*
X-21631Y392739D01*
X-21493Y392776D01*
X-21354Y392822D01*
X-21215Y392887D01*
X-21104Y392970D01*
X-21095Y392980D01*
X-21058Y393017D01*
X-21012Y393072D01*
X-20966Y393155D01*
X-20910Y393257D01*
X-20873Y393377D01*
X-20836Y393525D01*
X-20827Y393691D01*
Y393747D01*
X-20836Y393812D01*
X-20845Y393904D01*
X-20873Y393997D01*
X-20901Y394108D01*
X-20947Y394218D01*
X-21012Y394339D01*
X-21021Y394348D01*
X-21049Y394385D01*
X-21086Y394440D01*
X-21141Y394505D01*
X-21215Y394579D01*
X-21298Y394653D01*
X-21400Y394718D01*
X-21511Y394773D01*
X-21530Y394782D01*
X-21567Y394792D01*
X-21641Y394810D01*
X-21733Y394838D01*
X-21853Y394866D01*
X-22001Y394884D01*
X-22167Y394893D01*
X-22362Y394903D01*
X-24895D01*
Y395689D01*
X-18497D01*
Y394903D01*
D02*
G37*
G36*
X-20254Y389947D02*
X-22833D01*
X-22842D01*
X-22861D01*
X-22889D01*
X-22935D01*
X-23037D01*
X-23166Y389938D01*
X-23305D01*
X-23443Y389929D01*
X-23564Y389919D01*
X-23665Y389901D01*
X-23675D01*
X-23712Y389882D01*
X-23767Y389864D01*
X-23841Y389836D01*
X-23915Y389790D01*
X-23998Y389734D01*
X-24072Y389670D01*
X-24146Y389586D01*
X-24155Y389577D01*
X-24174Y389540D01*
X-24202Y389494D01*
X-24229Y389420D01*
X-24266Y389337D01*
X-24294Y389235D01*
X-24313Y389124D01*
X-24322Y388995D01*
Y388930D01*
X-24313Y388865D01*
X-24303Y388782D01*
X-24276Y388680D01*
X-24248Y388569D01*
X-24202Y388449D01*
X-24146Y388329D01*
X-24137Y388311D01*
X-24109Y388274D01*
X-24072Y388218D01*
X-24017Y388153D01*
X-23943Y388079D01*
X-23860Y388005D01*
X-23767Y387941D01*
X-23656Y387885D01*
X-23638Y387876D01*
X-23601Y387867D01*
X-23527Y387848D01*
X-23425Y387821D01*
X-23296Y387793D01*
X-23138Y387774D01*
X-22953Y387765D01*
X-22741Y387756D01*
X-20254D01*
Y386970D01*
X-24895D01*
Y387673D01*
X-24220D01*
X-24229Y387682D01*
X-24257Y387700D01*
X-24294Y387728D01*
X-24340Y387774D01*
X-24396Y387830D01*
X-24470Y387895D01*
X-24534Y387968D01*
X-24608Y388061D01*
X-24682Y388163D01*
X-24747Y388274D01*
X-24812Y388394D01*
X-24876Y388523D01*
X-24923Y388671D01*
X-24960Y388819D01*
X-24987Y388985D01*
X-24997Y389152D01*
Y389217D01*
X-24987Y389300D01*
X-24978Y389402D01*
X-24960Y389522D01*
X-24932Y389651D01*
X-24895Y389781D01*
X-24839Y389919D01*
X-24830Y389938D01*
X-24812Y389975D01*
X-24775Y390039D01*
X-24729Y390113D01*
X-24673Y390206D01*
X-24608Y390289D01*
X-24534Y390372D01*
X-24451Y390446D01*
X-24442Y390456D01*
X-24405Y390474D01*
X-24359Y390502D01*
X-24285Y390539D01*
X-24202Y390585D01*
X-24100Y390622D01*
X-23989Y390659D01*
X-23869Y390687D01*
X-23860D01*
X-23823Y390696D01*
X-23767Y390705D01*
X-23693D01*
X-23582Y390714D01*
X-23462Y390724D01*
X-23305Y390733D01*
X-23129D01*
X-20254D01*
Y389947D01*
D02*
G37*
G36*
Y385038D02*
X-20919D01*
X-20910Y385028D01*
X-20882Y385010D01*
X-20845Y384982D01*
X-20799Y384945D01*
X-20744Y384890D01*
X-20679Y384825D01*
X-20605Y384751D01*
X-20531Y384659D01*
X-20466Y384566D01*
X-20392Y384455D01*
X-20328Y384335D01*
X-20272Y384206D01*
X-20226Y384058D01*
X-20189Y383910D01*
X-20161Y383743D01*
X-20152Y383568D01*
Y383494D01*
X-20161Y383420D01*
X-20171Y383318D01*
X-20189Y383198D01*
X-20217Y383068D01*
X-20254Y382930D01*
X-20309Y382800D01*
X-20318Y382782D01*
X-20337Y382745D01*
X-20365Y382680D01*
X-20411Y382606D01*
X-20466Y382514D01*
X-20540Y382430D01*
X-20614Y382347D01*
X-20707Y382273D01*
X-20716Y382264D01*
X-20753Y382245D01*
X-20799Y382218D01*
X-20864Y382172D01*
X-20956Y382135D01*
X-21049Y382098D01*
X-21160Y382051D01*
X-21280Y382024D01*
X-21289D01*
X-21326Y382014D01*
X-21382Y382005D01*
X-21456Y381996D01*
X-21567D01*
X-21696Y381987D01*
X-21853Y381977D01*
X-22047D01*
X-24895D01*
Y382763D01*
X-22084D01*
X-22075D01*
X-22066D01*
X-22001D01*
X-21918D01*
X-21816Y382772D01*
X-21696Y382782D01*
X-21576Y382800D01*
X-21465Y382828D01*
X-21363Y382856D01*
X-21354D01*
X-21326Y382874D01*
X-21280Y382902D01*
X-21225Y382930D01*
X-21169Y382976D01*
X-21104Y383031D01*
X-21040Y383105D01*
X-20984Y383189D01*
X-20975Y383198D01*
X-20956Y383226D01*
X-20938Y383281D01*
X-20910Y383346D01*
X-20882Y383420D01*
X-20855Y383512D01*
X-20845Y383623D01*
X-20836Y383734D01*
Y383780D01*
X-20845Y383817D01*
X-20855Y383910D01*
X-20873Y384030D01*
X-20919Y384159D01*
X-20975Y384307D01*
X-21049Y384455D01*
X-21160Y384594D01*
X-21178Y384612D01*
X-21225Y384649D01*
X-21261Y384677D01*
X-21308Y384705D01*
X-21363Y384742D01*
X-21428Y384770D01*
X-21502Y384807D01*
X-21594Y384843D01*
X-21696Y384871D01*
X-21807Y384899D01*
X-21927Y384917D01*
X-22057Y384936D01*
X-22214Y384954D01*
X-22371D01*
X-24895D01*
Y385740D01*
X-20254D01*
Y385038D01*
D02*
G37*
G36*
Y380637D02*
X-19107D01*
X-18636Y379851D01*
X-20254D01*
Y379056D01*
X-20864D01*
Y379851D01*
X-23591D01*
X-23610D01*
X-23647D01*
X-23702D01*
X-23767Y379842D01*
X-23915Y379832D01*
X-23980Y379823D01*
X-24026Y379814D01*
X-24044Y379805D01*
X-24081Y379777D01*
X-24128Y379740D01*
X-24174Y379675D01*
X-24183Y379657D01*
X-24202Y379610D01*
X-24220Y379527D01*
X-24229Y379407D01*
Y379315D01*
X-24220Y379268D01*
Y379204D01*
X-24211Y379130D01*
X-24202Y379056D01*
X-24895Y378954D01*
Y378973D01*
X-24904Y379010D01*
X-24913Y379074D01*
X-24923Y379157D01*
X-24941Y379250D01*
X-24950Y379352D01*
X-24960Y379555D01*
Y379629D01*
X-24950Y379703D01*
X-24941Y379795D01*
X-24932Y379906D01*
X-24904Y380017D01*
X-24876Y380119D01*
X-24830Y380221D01*
X-24821Y380230D01*
X-24802Y380258D01*
X-24775Y380295D01*
X-24729Y380350D01*
X-24682Y380396D01*
X-24618Y380452D01*
X-24553Y380507D01*
X-24470Y380544D01*
X-24460D01*
X-24423Y380563D01*
X-24359Y380572D01*
X-24266Y380591D01*
X-24146Y380609D01*
X-24072Y380618D01*
X-23989D01*
X-23887Y380628D01*
X-23786Y380637D01*
X-23675D01*
X-23545D01*
X-20864D01*
Y381219D01*
X-20254D01*
Y380637D01*
D02*
G37*
G36*
X-20078Y377891D02*
X-20059Y377872D01*
X-20050Y377835D01*
X-20022Y377789D01*
X-19995Y377734D01*
X-19958Y377669D01*
X-19865Y377512D01*
X-19764Y377327D01*
X-19634Y377142D01*
X-19486Y376948D01*
X-19329Y376754D01*
X-19320Y376744D01*
X-19311Y376735D01*
X-19283Y376707D01*
X-19255Y376670D01*
X-19163Y376587D01*
X-19052Y376476D01*
X-18922Y376365D01*
X-18774Y376245D01*
X-18627Y376143D01*
X-18469Y376051D01*
Y375542D01*
X-24895D01*
Y376328D01*
X-19893D01*
X-19902Y376338D01*
X-19939Y376384D01*
X-19995Y376439D01*
X-20059Y376532D01*
X-20143Y376633D01*
X-20235Y376763D01*
X-20337Y376911D01*
X-20439Y377077D01*
Y377086D01*
X-20448Y377096D01*
X-20485Y377151D01*
X-20531Y377244D01*
X-20587Y377355D01*
X-20651Y377484D01*
X-20716Y377623D01*
X-20781Y377761D01*
X-20836Y377900D01*
X-20078D01*
Y377891D01*
D02*
G37*
G36*
X-162376Y62116D02*
X-162302D01*
X-162210Y62107D01*
X-162108Y62097D01*
X-162006Y62088D01*
X-161775Y62051D01*
X-161525Y61996D01*
X-161285Y61922D01*
X-161054Y61820D01*
X-161045D01*
X-161026Y61802D01*
X-160998Y61783D01*
X-160961Y61764D01*
X-160860Y61691D01*
X-160739Y61589D01*
X-160601Y61459D01*
X-160471Y61311D01*
X-160342Y61126D01*
X-160240Y60923D01*
Y60914D01*
X-160231Y60895D01*
X-160222Y60858D01*
X-160203Y60812D01*
X-160185Y60757D01*
X-160166Y60683D01*
X-160139Y60599D01*
X-160120Y60498D01*
X-160102Y60387D01*
X-160074Y60267D01*
X-160055Y60137D01*
X-160037Y59999D01*
X-160018Y59841D01*
X-160009Y59675D01*
X-160000Y59499D01*
Y59314D01*
Y55616D01*
X-160851D01*
Y59314D01*
Y59324D01*
Y59351D01*
Y59398D01*
Y59453D01*
X-160860Y59518D01*
Y59601D01*
X-160869Y59777D01*
X-160888Y59980D01*
X-160915Y60184D01*
X-160952Y60378D01*
X-160971Y60461D01*
X-160998Y60544D01*
X-161008Y60563D01*
X-161026Y60609D01*
X-161072Y60673D01*
X-161128Y60766D01*
X-161193Y60858D01*
X-161285Y60960D01*
X-161396Y61062D01*
X-161525Y61145D01*
X-161544Y61154D01*
X-161590Y61182D01*
X-161673Y61210D01*
X-161784Y61247D01*
X-161914Y61293D01*
X-162080Y61321D01*
X-162256Y61348D01*
X-162450Y61358D01*
X-162542D01*
X-162598Y61348D01*
X-162681D01*
X-162764Y61339D01*
X-162968Y61302D01*
X-163190Y61256D01*
X-163402Y61182D01*
X-163606Y61080D01*
X-163698Y61016D01*
X-163781Y60942D01*
X-163791Y60932D01*
X-163800Y60923D01*
X-163818Y60895D01*
X-163846Y60858D01*
X-163874Y60803D01*
X-163911Y60747D01*
X-163948Y60664D01*
X-163985Y60581D01*
X-164022Y60479D01*
X-164049Y60359D01*
X-164086Y60220D01*
X-164114Y60072D01*
X-164142Y59906D01*
X-164160Y59731D01*
X-164179Y59527D01*
Y59314D01*
Y55616D01*
X-165030D01*
Y59314D01*
Y59324D01*
Y59361D01*
Y59407D01*
Y59472D01*
X-165020Y59555D01*
Y59647D01*
X-165011Y59758D01*
X-165002Y59869D01*
X-164974Y60119D01*
X-164937Y60378D01*
X-164882Y60627D01*
X-164845Y60747D01*
X-164808Y60858D01*
Y60868D01*
X-164798Y60886D01*
X-164780Y60914D01*
X-164761Y60951D01*
X-164706Y61053D01*
X-164623Y61182D01*
X-164512Y61330D01*
X-164382Y61478D01*
X-164216Y61635D01*
X-164013Y61774D01*
X-164003D01*
X-163985Y61792D01*
X-163957Y61802D01*
X-163911Y61829D01*
X-163855Y61857D01*
X-163781Y61885D01*
X-163707Y61912D01*
X-163615Y61949D01*
X-163513Y61986D01*
X-163402Y62014D01*
X-163282Y62042D01*
X-163143Y62070D01*
X-163005Y62088D01*
X-162857Y62107D01*
X-162524Y62125D01*
X-162441D01*
X-162376Y62116D01*
D02*
G37*
G36*
X-166010Y62005D02*
Y61968D01*
Y61912D01*
X-166019Y61838D01*
X-166028Y61755D01*
X-166047Y61663D01*
X-166065Y61570D01*
X-166102Y61469D01*
Y61459D01*
X-166111Y61450D01*
X-166130Y61395D01*
X-166167Y61311D01*
X-166222Y61200D01*
X-166296Y61071D01*
X-166389Y60923D01*
X-166490Y60775D01*
X-166620Y60618D01*
Y60609D01*
X-166638Y60599D01*
X-166684Y60544D01*
X-166768Y60461D01*
X-166888Y60341D01*
X-167027Y60202D01*
X-167202Y60036D01*
X-167415Y59851D01*
X-167646Y59657D01*
X-167655Y59647D01*
X-167692Y59619D01*
X-167748Y59573D01*
X-167812Y59518D01*
X-167896Y59444D01*
X-167997Y59361D01*
X-168099Y59268D01*
X-168219Y59166D01*
X-168450Y58945D01*
X-168682Y58723D01*
X-168792Y58612D01*
X-168894Y58501D01*
X-168987Y58399D01*
X-169061Y58297D01*
Y58288D01*
X-169079Y58279D01*
X-169098Y58251D01*
X-169116Y58214D01*
X-169181Y58113D01*
X-169255Y57992D01*
X-169319Y57844D01*
X-169384Y57687D01*
X-169421Y57512D01*
X-169440Y57345D01*
Y57336D01*
Y57327D01*
X-169430Y57271D01*
X-169421Y57179D01*
X-169393Y57077D01*
X-169356Y56947D01*
X-169292Y56818D01*
X-169209Y56689D01*
X-169098Y56559D01*
X-169079Y56541D01*
X-169033Y56504D01*
X-168968Y56458D01*
X-168866Y56393D01*
X-168737Y56337D01*
X-168589Y56282D01*
X-168413Y56245D01*
X-168219Y56236D01*
X-168164D01*
X-168127Y56245D01*
X-168016Y56254D01*
X-167886Y56282D01*
X-167748Y56319D01*
X-167591Y56384D01*
X-167443Y56467D01*
X-167304Y56578D01*
X-167285Y56596D01*
X-167248Y56642D01*
X-167193Y56716D01*
X-167138Y56827D01*
X-167073Y56957D01*
X-167017Y57123D01*
X-166980Y57308D01*
X-166962Y57521D01*
X-166157Y57438D01*
Y57428D01*
X-166167Y57401D01*
Y57354D01*
X-166176Y57290D01*
X-166194Y57216D01*
X-166213Y57132D01*
X-166241Y57031D01*
X-166268Y56929D01*
X-166342Y56707D01*
X-166453Y56485D01*
X-166518Y56374D01*
X-166601Y56263D01*
X-166684Y56162D01*
X-166777Y56069D01*
X-166786Y56060D01*
X-166805Y56051D01*
X-166832Y56023D01*
X-166879Y55995D01*
X-166934Y55958D01*
X-166999Y55921D01*
X-167073Y55875D01*
X-167165Y55829D01*
X-167267Y55783D01*
X-167378Y55736D01*
X-167498Y55699D01*
X-167628Y55662D01*
X-167766Y55635D01*
X-167914Y55607D01*
X-168071Y55598D01*
X-168238Y55588D01*
X-168330D01*
X-168395Y55598D01*
X-168469Y55607D01*
X-168561Y55616D01*
X-168663Y55635D01*
X-168765Y55653D01*
X-169005Y55718D01*
X-169245Y55810D01*
X-169366Y55866D01*
X-169486Y55931D01*
X-169597Y56014D01*
X-169699Y56106D01*
X-169708Y56115D01*
X-169726Y56125D01*
X-169745Y56162D01*
X-169782Y56199D01*
X-169828Y56245D01*
X-169874Y56310D01*
X-169920Y56374D01*
X-169976Y56458D01*
X-170068Y56633D01*
X-170161Y56855D01*
X-170198Y56966D01*
X-170216Y57095D01*
X-170235Y57225D01*
X-170244Y57364D01*
Y57382D01*
Y57428D01*
X-170235Y57502D01*
X-170226Y57604D01*
X-170207Y57715D01*
X-170170Y57844D01*
X-170133Y57983D01*
X-170078Y58122D01*
X-170068Y58140D01*
X-170050Y58186D01*
X-170013Y58260D01*
X-169957Y58362D01*
X-169883Y58473D01*
X-169791Y58612D01*
X-169680Y58750D01*
X-169551Y58908D01*
X-169532Y58926D01*
X-169486Y58982D01*
X-169440Y59028D01*
X-169393Y59074D01*
X-169338Y59130D01*
X-169264Y59204D01*
X-169190Y59277D01*
X-169098Y59361D01*
X-169005Y59453D01*
X-168894Y59555D01*
X-168774Y59657D01*
X-168645Y59777D01*
X-168497Y59897D01*
X-168349Y60026D01*
X-168339Y60036D01*
X-168321Y60054D01*
X-168284Y60082D01*
X-168238Y60119D01*
X-168182Y60174D01*
X-168118Y60230D01*
X-167970Y60350D01*
X-167812Y60489D01*
X-167665Y60627D01*
X-167535Y60747D01*
X-167480Y60794D01*
X-167433Y60840D01*
X-167424Y60849D01*
X-167396Y60877D01*
X-167359Y60914D01*
X-167313Y60969D01*
X-167267Y61034D01*
X-167211Y61099D01*
X-167101Y61256D01*
X-170253D01*
Y62014D01*
X-166010D01*
Y62005D01*
D02*
G37*
G36*
X-158016Y427981D02*
X-157942Y427972D01*
X-157859Y427962D01*
X-157766Y427944D01*
X-157664Y427925D01*
X-157443Y427870D01*
X-157212Y427777D01*
X-157091Y427722D01*
X-156980Y427657D01*
X-156869Y427574D01*
X-156758Y427491D01*
X-156749Y427482D01*
X-156731Y427463D01*
X-156703Y427435D01*
X-156675Y427398D01*
X-156629Y427352D01*
X-156583Y427287D01*
X-156527Y427223D01*
X-156472Y427140D01*
X-156416Y427047D01*
X-156361Y426955D01*
X-156259Y426733D01*
X-156176Y426474D01*
X-156148Y426335D01*
X-156130Y426187D01*
X-156916Y426086D01*
Y426095D01*
X-156925Y426113D01*
X-156934Y426150D01*
X-156943Y426196D01*
X-156953Y426252D01*
X-156971Y426317D01*
X-157017Y426455D01*
X-157082Y426622D01*
X-157165Y426779D01*
X-157258Y426927D01*
X-157369Y427056D01*
X-157387Y427066D01*
X-157424Y427103D01*
X-157498Y427149D01*
X-157591Y427195D01*
X-157702Y427250D01*
X-157840Y427297D01*
X-157997Y427334D01*
X-158164Y427343D01*
X-158219D01*
X-158256Y427334D01*
X-158358Y427324D01*
X-158487Y427297D01*
X-158635Y427250D01*
X-158792Y427186D01*
X-158950Y427093D01*
X-159098Y426964D01*
X-159116Y426945D01*
X-159162Y426890D01*
X-159218Y426807D01*
X-159292Y426696D01*
X-159366Y426557D01*
X-159421Y426400D01*
X-159467Y426215D01*
X-159486Y426012D01*
Y426002D01*
Y425984D01*
Y425956D01*
X-159477Y425919D01*
X-159467Y425817D01*
X-159440Y425697D01*
X-159403Y425549D01*
X-159338Y425401D01*
X-159246Y425253D01*
X-159125Y425115D01*
X-159107Y425096D01*
X-159061Y425059D01*
X-158987Y425004D01*
X-158885Y424939D01*
X-158756Y424874D01*
X-158598Y424819D01*
X-158423Y424782D01*
X-158229Y424763D01*
X-158145D01*
X-158081Y424773D01*
X-157997Y424782D01*
X-157905Y424800D01*
X-157794Y424819D01*
X-157674Y424847D01*
X-157766Y424153D01*
X-157812D01*
X-157849Y424162D01*
X-157970D01*
X-158071Y424144D01*
X-158191Y424125D01*
X-158330Y424098D01*
X-158487Y424052D01*
X-158635Y423987D01*
X-158792Y423904D01*
X-158802D01*
X-158811Y423894D01*
X-158857Y423857D01*
X-158922Y423793D01*
X-158996Y423709D01*
X-159070Y423589D01*
X-159135Y423451D01*
X-159181Y423293D01*
X-159199Y423201D01*
Y423099D01*
Y423090D01*
Y423081D01*
Y423025D01*
X-159181Y422951D01*
X-159162Y422850D01*
X-159125Y422739D01*
X-159079Y422618D01*
X-159005Y422498D01*
X-158903Y422387D01*
X-158894Y422378D01*
X-158848Y422341D01*
X-158783Y422295D01*
X-158700Y422239D01*
X-158589Y422193D01*
X-158460Y422147D01*
X-158312Y422110D01*
X-158145Y422101D01*
X-158071D01*
X-157988Y422119D01*
X-157877Y422138D01*
X-157757Y422175D01*
X-157637Y422221D01*
X-157507Y422295D01*
X-157387Y422387D01*
X-157378Y422397D01*
X-157341Y422443D01*
X-157285Y422507D01*
X-157221Y422600D01*
X-157156Y422720D01*
X-157091Y422868D01*
X-157036Y423044D01*
X-156999Y423247D01*
X-156213Y423108D01*
Y423099D01*
X-156222Y423071D01*
X-156231Y423034D01*
X-156241Y422979D01*
X-156259Y422914D01*
X-156287Y422840D01*
X-156342Y422665D01*
X-156435Y422461D01*
X-156546Y422258D01*
X-156685Y422064D01*
X-156860Y421888D01*
X-156869Y421879D01*
X-156888Y421870D01*
X-156916Y421851D01*
X-156953Y421823D01*
X-156999Y421786D01*
X-157064Y421749D01*
X-157128Y421712D01*
X-157212Y421666D01*
X-157396Y421592D01*
X-157609Y421518D01*
X-157859Y421472D01*
X-157988Y421453D01*
X-158219D01*
X-158321Y421463D01*
X-158441Y421481D01*
X-158589Y421509D01*
X-158756Y421555D01*
X-158922Y421611D01*
X-159088Y421685D01*
X-159098D01*
X-159107Y421694D01*
X-159162Y421722D01*
X-159246Y421777D01*
X-159338Y421842D01*
X-159449Y421934D01*
X-159560Y422036D01*
X-159671Y422156D01*
X-159763Y422295D01*
X-159773Y422313D01*
X-159800Y422360D01*
X-159837Y422443D01*
X-159883Y422544D01*
X-159930Y422665D01*
X-159967Y422803D01*
X-159994Y422961D01*
X-160004Y423118D01*
Y423136D01*
Y423192D01*
X-159994Y423266D01*
X-159976Y423367D01*
X-159948Y423488D01*
X-159902Y423617D01*
X-159846Y423746D01*
X-159773Y423876D01*
X-159763Y423894D01*
X-159735Y423931D01*
X-159680Y423996D01*
X-159606Y424070D01*
X-159514Y424153D01*
X-159403Y424246D01*
X-159273Y424329D01*
X-159116Y424412D01*
X-159125D01*
X-159144Y424421D01*
X-159172Y424431D01*
X-159208Y424440D01*
X-159310Y424477D01*
X-159440Y424532D01*
X-159588Y424606D01*
X-159735Y424699D01*
X-159874Y424819D01*
X-160004Y424958D01*
X-160013Y424976D01*
X-160050Y425032D01*
X-160105Y425124D01*
X-160161Y425244D01*
X-160216Y425392D01*
X-160272Y425568D01*
X-160309Y425771D01*
X-160318Y425993D01*
Y426002D01*
Y426030D01*
Y426076D01*
X-160309Y426132D01*
X-160299Y426206D01*
X-160281Y426289D01*
X-160263Y426381D01*
X-160244Y426483D01*
X-160170Y426705D01*
X-160115Y426825D01*
X-160059Y426936D01*
X-159985Y427056D01*
X-159902Y427177D01*
X-159810Y427297D01*
X-159699Y427408D01*
X-159689Y427417D01*
X-159671Y427435D01*
X-159634Y427463D01*
X-159588Y427500D01*
X-159532Y427546D01*
X-159458Y427593D01*
X-159375Y427648D01*
X-159273Y427694D01*
X-159172Y427750D01*
X-159051Y427805D01*
X-158931Y427851D01*
X-158792Y427898D01*
X-158645Y427935D01*
X-158487Y427962D01*
X-158330Y427981D01*
X-158154Y427990D01*
X-158071D01*
X-158016Y427981D01*
D02*
G37*
G36*
X-152376D02*
X-152302D01*
X-152210Y427972D01*
X-152108Y427962D01*
X-152006Y427953D01*
X-151775Y427916D01*
X-151525Y427861D01*
X-151285Y427787D01*
X-151054Y427685D01*
X-151045D01*
X-151026Y427667D01*
X-150998Y427648D01*
X-150962Y427630D01*
X-150860Y427556D01*
X-150740Y427454D01*
X-150601Y427324D01*
X-150471Y427177D01*
X-150342Y426992D01*
X-150240Y426788D01*
Y426779D01*
X-150231Y426760D01*
X-150222Y426723D01*
X-150203Y426677D01*
X-150185Y426622D01*
X-150166Y426548D01*
X-150139Y426465D01*
X-150120Y426363D01*
X-150102Y426252D01*
X-150074Y426132D01*
X-150055Y426002D01*
X-150037Y425864D01*
X-150018Y425706D01*
X-150009Y425540D01*
X-150000Y425364D01*
Y425179D01*
Y421481D01*
X-150850D01*
Y425179D01*
Y425189D01*
Y425216D01*
Y425263D01*
Y425318D01*
X-150860Y425383D01*
Y425466D01*
X-150869Y425642D01*
X-150887Y425845D01*
X-150915Y426049D01*
X-150952Y426243D01*
X-150971Y426326D01*
X-150998Y426409D01*
X-151008Y426428D01*
X-151026Y426474D01*
X-151072Y426539D01*
X-151128Y426631D01*
X-151193Y426723D01*
X-151285Y426825D01*
X-151396Y426927D01*
X-151525Y427010D01*
X-151544Y427019D01*
X-151590Y427047D01*
X-151673Y427075D01*
X-151784Y427112D01*
X-151914Y427158D01*
X-152080Y427186D01*
X-152256Y427213D01*
X-152450Y427223D01*
X-152542D01*
X-152598Y427213D01*
X-152681D01*
X-152764Y427204D01*
X-152968Y427167D01*
X-153190Y427121D01*
X-153402Y427047D01*
X-153606Y426945D01*
X-153698Y426881D01*
X-153781Y426807D01*
X-153791Y426797D01*
X-153800Y426788D01*
X-153818Y426760D01*
X-153846Y426723D01*
X-153874Y426668D01*
X-153911Y426613D01*
X-153948Y426529D01*
X-153985Y426446D01*
X-154022Y426344D01*
X-154050Y426224D01*
X-154087Y426086D01*
X-154114Y425938D01*
X-154142Y425771D01*
X-154160Y425596D01*
X-154179Y425392D01*
Y425179D01*
Y421481D01*
X-155029D01*
Y425179D01*
Y425189D01*
Y425226D01*
Y425272D01*
Y425337D01*
X-155020Y425420D01*
Y425512D01*
X-155011Y425623D01*
X-155002Y425734D01*
X-154974Y425984D01*
X-154937Y426243D01*
X-154882Y426492D01*
X-154845Y426613D01*
X-154808Y426723D01*
Y426733D01*
X-154798Y426751D01*
X-154780Y426779D01*
X-154761Y426816D01*
X-154706Y426918D01*
X-154623Y427047D01*
X-154512Y427195D01*
X-154382Y427343D01*
X-154216Y427500D01*
X-154012Y427639D01*
X-154003D01*
X-153985Y427657D01*
X-153957Y427667D01*
X-153911Y427694D01*
X-153855Y427722D01*
X-153781Y427750D01*
X-153707Y427777D01*
X-153615Y427814D01*
X-153513Y427851D01*
X-153402Y427879D01*
X-153282Y427907D01*
X-153143Y427935D01*
X-153005Y427953D01*
X-152857Y427972D01*
X-152524Y427990D01*
X-152441D01*
X-152376Y427981D01*
D02*
G37*
G36*
X-307713Y168617D02*
X-308591D01*
X-311938Y173637D01*
Y168617D01*
X-312751D01*
Y175015D01*
X-311882D01*
X-308526Y169985D01*
Y175015D01*
X-307713D01*
Y168617D01*
D02*
G37*
G36*
X-304338Y175033D02*
X-304264Y175024D01*
X-304172Y175015D01*
X-304070Y174996D01*
X-303968Y174978D01*
X-303728Y174913D01*
X-303487Y174821D01*
X-303367Y174765D01*
X-303247Y174700D01*
X-303136Y174617D01*
X-303034Y174525D01*
X-303025Y174515D01*
X-303007Y174506D01*
X-302988Y174469D01*
X-302951Y174432D01*
X-302905Y174386D01*
X-302859Y174321D01*
X-302812Y174257D01*
X-302757Y174173D01*
X-302665Y173998D01*
X-302572Y173776D01*
X-302535Y173665D01*
X-302517Y173535D01*
X-302498Y173406D01*
X-302489Y173267D01*
Y173249D01*
Y173203D01*
X-302498Y173129D01*
X-302507Y173027D01*
X-302526Y172916D01*
X-302563Y172787D01*
X-302600Y172648D01*
X-302655Y172509D01*
X-302665Y172491D01*
X-302683Y172444D01*
X-302720Y172370D01*
X-302775Y172269D01*
X-302849Y172158D01*
X-302942Y172019D01*
X-303053Y171880D01*
X-303182Y171723D01*
X-303201Y171705D01*
X-303247Y171649D01*
X-303293Y171603D01*
X-303339Y171557D01*
X-303395Y171501D01*
X-303469Y171427D01*
X-303543Y171353D01*
X-303635Y171270D01*
X-303728Y171178D01*
X-303839Y171076D01*
X-303959Y170974D01*
X-304088Y170854D01*
X-304236Y170734D01*
X-304384Y170605D01*
X-304393Y170595D01*
X-304412Y170577D01*
X-304449Y170549D01*
X-304495Y170512D01*
X-304551Y170457D01*
X-304615Y170401D01*
X-304763Y170281D01*
X-304920Y170142D01*
X-305068Y170004D01*
X-305198Y169883D01*
X-305253Y169837D01*
X-305299Y169791D01*
X-305309Y169782D01*
X-305336Y169754D01*
X-305373Y169717D01*
X-305420Y169662D01*
X-305466Y169597D01*
X-305521Y169532D01*
X-305632Y169375D01*
X-302480D01*
Y168617D01*
X-306723D01*
Y168626D01*
Y168663D01*
Y168718D01*
X-306714Y168792D01*
X-306705Y168876D01*
X-306686Y168968D01*
X-306668Y169061D01*
X-306631Y169162D01*
Y169172D01*
X-306622Y169181D01*
X-306603Y169236D01*
X-306566Y169319D01*
X-306511Y169430D01*
X-306437Y169560D01*
X-306344Y169708D01*
X-306243Y169856D01*
X-306113Y170013D01*
Y170022D01*
X-306095Y170031D01*
X-306048Y170087D01*
X-305965Y170170D01*
X-305845Y170290D01*
X-305706Y170429D01*
X-305531Y170595D01*
X-305318Y170780D01*
X-305087Y170974D01*
X-305078Y170984D01*
X-305041Y171011D01*
X-304985Y171058D01*
X-304920Y171113D01*
X-304837Y171187D01*
X-304736Y171270D01*
X-304634Y171363D01*
X-304514Y171465D01*
X-304282Y171686D01*
X-304051Y171908D01*
X-303940Y172019D01*
X-303839Y172130D01*
X-303746Y172232D01*
X-303672Y172334D01*
Y172343D01*
X-303654Y172352D01*
X-303635Y172380D01*
X-303617Y172417D01*
X-303552Y172519D01*
X-303478Y172639D01*
X-303413Y172787D01*
X-303349Y172944D01*
X-303312Y173119D01*
X-303293Y173286D01*
Y173295D01*
Y173304D01*
X-303302Y173360D01*
X-303312Y173452D01*
X-303339Y173554D01*
X-303376Y173683D01*
X-303441Y173813D01*
X-303524Y173942D01*
X-303635Y174072D01*
X-303654Y174090D01*
X-303700Y174127D01*
X-303765Y174173D01*
X-303866Y174238D01*
X-303996Y174294D01*
X-304144Y174349D01*
X-304319Y174386D01*
X-304514Y174395D01*
X-304569D01*
X-304606Y174386D01*
X-304717Y174377D01*
X-304846Y174349D01*
X-304985Y174312D01*
X-305142Y174247D01*
X-305290Y174164D01*
X-305429Y174053D01*
X-305447Y174035D01*
X-305484Y173988D01*
X-305540Y173915D01*
X-305595Y173804D01*
X-305660Y173674D01*
X-305716Y173508D01*
X-305753Y173323D01*
X-305771Y173110D01*
X-306575Y173193D01*
Y173203D01*
X-306566Y173230D01*
Y173277D01*
X-306557Y173341D01*
X-306538Y173415D01*
X-306520Y173498D01*
X-306492Y173600D01*
X-306464Y173702D01*
X-306390Y173924D01*
X-306280Y174146D01*
X-306215Y174257D01*
X-306132Y174368D01*
X-306048Y174469D01*
X-305956Y174562D01*
X-305947Y174571D01*
X-305928Y174580D01*
X-305900Y174608D01*
X-305854Y174636D01*
X-305799Y174673D01*
X-305734Y174710D01*
X-305660Y174756D01*
X-305568Y174802D01*
X-305466Y174848D01*
X-305355Y174895D01*
X-305235Y174932D01*
X-305105Y174968D01*
X-304967Y174996D01*
X-304819Y175024D01*
X-304662Y175033D01*
X-304495Y175042D01*
X-304403D01*
X-304338Y175033D01*
D02*
G37*
G36*
X-316792Y175117D02*
X-316709D01*
X-316625Y175107D01*
X-316514Y175089D01*
X-316404Y175070D01*
X-316163Y175024D01*
X-315886Y174950D01*
X-315618Y174839D01*
X-315479Y174774D01*
X-315340Y174700D01*
X-315331Y174691D01*
X-315312Y174682D01*
X-315275Y174654D01*
X-315220Y174626D01*
X-315165Y174580D01*
X-315091Y174525D01*
X-314933Y174395D01*
X-314767Y174229D01*
X-314582Y174025D01*
X-314406Y173785D01*
X-314258Y173517D01*
Y173508D01*
X-314240Y173480D01*
X-314221Y173443D01*
X-314203Y173388D01*
X-314166Y173314D01*
X-314138Y173230D01*
X-314101Y173129D01*
X-314064Y173018D01*
X-314037Y172897D01*
X-314000Y172768D01*
X-313963Y172629D01*
X-313935Y172481D01*
X-313898Y172158D01*
X-313879Y171816D01*
Y171807D01*
Y171779D01*
Y171742D01*
Y171686D01*
X-313889Y171612D01*
Y171529D01*
X-313898Y171437D01*
X-313907Y171344D01*
X-313935Y171122D01*
X-313981Y170882D01*
X-314037Y170632D01*
X-314120Y170392D01*
Y170383D01*
X-314129Y170364D01*
X-314147Y170327D01*
X-314166Y170290D01*
X-314194Y170235D01*
X-314221Y170170D01*
X-314296Y170022D01*
X-314397Y169846D01*
X-314527Y169662D01*
X-314674Y169477D01*
X-314841Y169292D01*
X-314832D01*
X-314813Y169273D01*
X-314785Y169255D01*
X-314739Y169227D01*
X-314693Y169190D01*
X-314628Y169153D01*
X-314490Y169070D01*
X-314323Y168968D01*
X-314138Y168866D01*
X-313944Y168783D01*
X-313759Y168700D01*
X-314009Y168118D01*
X-314018D01*
X-314037Y168127D01*
X-314074Y168145D01*
X-314129Y168164D01*
X-314194Y168192D01*
X-314268Y168228D01*
X-314351Y168265D01*
X-314443Y168312D01*
X-314647Y168423D01*
X-314878Y168552D01*
X-315128Y168718D01*
X-315386Y168903D01*
X-315396D01*
X-315414Y168885D01*
X-315460Y168866D01*
X-315507Y168839D01*
X-315581Y168811D01*
X-315655Y168774D01*
X-315747Y168746D01*
X-315849Y168709D01*
X-315960Y168672D01*
X-316080Y168635D01*
X-316348Y168571D01*
X-316644Y168524D01*
X-316801Y168515D01*
X-316958Y168506D01*
X-317041D01*
X-317106Y168515D01*
X-317180D01*
X-317272Y168524D01*
X-317374Y168543D01*
X-317485Y168561D01*
X-317726Y168608D01*
X-317994Y168682D01*
X-318271Y168783D01*
X-318400Y168848D01*
X-318539Y168922D01*
X-318548Y168931D01*
X-318567Y168940D01*
X-318604Y168968D01*
X-318650Y168996D01*
X-318715Y169042D01*
X-318780Y169098D01*
X-318937Y169227D01*
X-319112Y169393D01*
X-319288Y169597D01*
X-319464Y169828D01*
X-319621Y170096D01*
Y170105D01*
X-319639Y170133D01*
X-319658Y170170D01*
X-319676Y170226D01*
X-319704Y170299D01*
X-319741Y170383D01*
X-319778Y170484D01*
X-319806Y170595D01*
X-319843Y170716D01*
X-319880Y170845D01*
X-319907Y170984D01*
X-319944Y171141D01*
X-319981Y171465D01*
X-320000Y171807D01*
Y171816D01*
Y171853D01*
Y171899D01*
X-319991Y171964D01*
Y172047D01*
X-319981Y172149D01*
X-319972Y172260D01*
X-319954Y172380D01*
X-319907Y172648D01*
X-319843Y172934D01*
X-319750Y173240D01*
X-319621Y173535D01*
X-319612Y173545D01*
X-319602Y173572D01*
X-319584Y173609D01*
X-319547Y173665D01*
X-319510Y173730D01*
X-319464Y173804D01*
X-319334Y173979D01*
X-319186Y174164D01*
X-318992Y174358D01*
X-318780Y174552D01*
X-318530Y174719D01*
X-318521Y174728D01*
X-318493Y174737D01*
X-318456Y174756D01*
X-318400Y174784D01*
X-318336Y174811D01*
X-318262Y174848D01*
X-318169Y174885D01*
X-318068Y174922D01*
X-317948Y174959D01*
X-317827Y174996D01*
X-317559Y175061D01*
X-317263Y175107D01*
X-317106Y175126D01*
X-316856D01*
X-316792Y175117D01*
D02*
G37*
G36*
X332287Y168617D02*
X331409D01*
X328062Y173637D01*
Y168617D01*
X327248D01*
Y175015D01*
X328118D01*
X331474Y169985D01*
Y175015D01*
X332287D01*
Y168617D01*
D02*
G37*
G36*
X336346D02*
X335560D01*
Y173619D01*
X335551Y173609D01*
X335505Y173572D01*
X335449Y173517D01*
X335357Y173452D01*
X335255Y173369D01*
X335126Y173277D01*
X334978Y173175D01*
X334811Y173073D01*
X334802D01*
X334793Y173064D01*
X334738Y173027D01*
X334645Y172981D01*
X334534Y172925D01*
X334405Y172861D01*
X334266Y172796D01*
X334127Y172731D01*
X333989Y172676D01*
Y173434D01*
X333998D01*
X334016Y173452D01*
X334053Y173461D01*
X334100Y173489D01*
X334155Y173517D01*
X334220Y173554D01*
X334377Y173646D01*
X334562Y173748D01*
X334747Y173878D01*
X334941Y174025D01*
X335135Y174183D01*
X335144Y174192D01*
X335154Y174201D01*
X335181Y174229D01*
X335218Y174257D01*
X335302Y174349D01*
X335412Y174460D01*
X335523Y174590D01*
X335644Y174737D01*
X335745Y174885D01*
X335838Y175042D01*
X336346D01*
Y168617D01*
D02*
G37*
G36*
X323208Y175117D02*
X323291D01*
X323375Y175107D01*
X323486Y175089D01*
X323596Y175070D01*
X323837Y175024D01*
X324114Y174950D01*
X324382Y174839D01*
X324521Y174774D01*
X324660Y174700D01*
X324669Y174691D01*
X324688Y174682D01*
X324725Y174654D01*
X324780Y174626D01*
X324835Y174580D01*
X324909Y174525D01*
X325067Y174395D01*
X325233Y174229D01*
X325418Y174025D01*
X325594Y173785D01*
X325742Y173517D01*
Y173508D01*
X325760Y173480D01*
X325779Y173443D01*
X325797Y173388D01*
X325834Y173314D01*
X325862Y173230D01*
X325899Y173129D01*
X325936Y173018D01*
X325963Y172897D01*
X326000Y172768D01*
X326037Y172629D01*
X326065Y172481D01*
X326102Y172158D01*
X326121Y171816D01*
Y171807D01*
Y171779D01*
Y171742D01*
Y171686D01*
X326111Y171612D01*
Y171529D01*
X326102Y171437D01*
X326093Y171344D01*
X326065Y171122D01*
X326019Y170882D01*
X325963Y170632D01*
X325880Y170392D01*
Y170383D01*
X325871Y170364D01*
X325853Y170327D01*
X325834Y170290D01*
X325806Y170235D01*
X325779Y170170D01*
X325704Y170022D01*
X325603Y169846D01*
X325473Y169662D01*
X325326Y169477D01*
X325159Y169292D01*
X325168D01*
X325187Y169273D01*
X325215Y169255D01*
X325261Y169227D01*
X325307Y169190D01*
X325372Y169153D01*
X325510Y169070D01*
X325677Y168968D01*
X325862Y168866D01*
X326056Y168783D01*
X326241Y168700D01*
X325991Y168118D01*
X325982D01*
X325963Y168127D01*
X325926Y168145D01*
X325871Y168164D01*
X325806Y168192D01*
X325732Y168228D01*
X325649Y168265D01*
X325557Y168312D01*
X325353Y168423D01*
X325122Y168552D01*
X324872Y168718D01*
X324613Y168903D01*
X324604D01*
X324586Y168885D01*
X324540Y168866D01*
X324493Y168839D01*
X324419Y168811D01*
X324345Y168774D01*
X324253Y168746D01*
X324151Y168709D01*
X324040Y168672D01*
X323920Y168635D01*
X323652Y168571D01*
X323356Y168524D01*
X323199Y168515D01*
X323042Y168506D01*
X322959D01*
X322894Y168515D01*
X322820D01*
X322727Y168524D01*
X322626Y168543D01*
X322515Y168561D01*
X322274Y168608D01*
X322006Y168682D01*
X321729Y168783D01*
X321600Y168848D01*
X321461Y168922D01*
X321452Y168931D01*
X321433Y168940D01*
X321396Y168968D01*
X321350Y168996D01*
X321285Y169042D01*
X321220Y169098D01*
X321063Y169227D01*
X320888Y169393D01*
X320712Y169597D01*
X320536Y169828D01*
X320379Y170096D01*
Y170105D01*
X320361Y170133D01*
X320342Y170170D01*
X320324Y170226D01*
X320296Y170299D01*
X320259Y170383D01*
X320222Y170484D01*
X320194Y170595D01*
X320157Y170716D01*
X320120Y170845D01*
X320093Y170984D01*
X320056Y171141D01*
X320019Y171465D01*
X320000Y171807D01*
Y171816D01*
Y171853D01*
Y171899D01*
X320009Y171964D01*
Y172047D01*
X320019Y172149D01*
X320028Y172260D01*
X320046Y172380D01*
X320093Y172648D01*
X320157Y172934D01*
X320250Y173240D01*
X320379Y173535D01*
X320388Y173545D01*
X320398Y173572D01*
X320416Y173609D01*
X320453Y173665D01*
X320490Y173730D01*
X320536Y173804D01*
X320666Y173979D01*
X320814Y174164D01*
X321008Y174358D01*
X321220Y174552D01*
X321470Y174719D01*
X321479Y174728D01*
X321507Y174737D01*
X321544Y174756D01*
X321600Y174784D01*
X321664Y174811D01*
X321738Y174848D01*
X321831Y174885D01*
X321932Y174922D01*
X322052Y174959D01*
X322173Y174996D01*
X322441Y175061D01*
X322737Y175107D01*
X322894Y175126D01*
X323144D01*
X323208Y175117D01*
D02*
G37*
G36*
X166320Y170928D02*
Y170919D01*
Y170882D01*
Y170836D01*
Y170771D01*
X166310Y170688D01*
Y170595D01*
X166301Y170484D01*
X166292Y170373D01*
X166264Y170124D01*
X166227Y169865D01*
X166172Y169615D01*
X166135Y169495D01*
X166098Y169384D01*
Y169375D01*
X166089Y169356D01*
X166070Y169329D01*
X166052Y169292D01*
X165996Y169190D01*
X165913Y169061D01*
X165802Y168913D01*
X165672Y168765D01*
X165506Y168608D01*
X165303Y168469D01*
X165293D01*
X165275Y168450D01*
X165247Y168441D01*
X165201Y168413D01*
X165145Y168386D01*
X165072Y168358D01*
X164998Y168330D01*
X164905Y168293D01*
X164803Y168256D01*
X164692Y168228D01*
X164572Y168201D01*
X164433Y168173D01*
X164295Y168155D01*
X164147Y168136D01*
X163814Y168118D01*
X163731D01*
X163666Y168127D01*
X163592D01*
X163500Y168136D01*
X163398Y168145D01*
X163296Y168155D01*
X163065Y168192D01*
X162815Y168247D01*
X162575Y168321D01*
X162344Y168423D01*
X162335D01*
X162316Y168441D01*
X162288Y168460D01*
X162251Y168478D01*
X162150Y168552D01*
X162030Y168654D01*
X161891Y168783D01*
X161761Y168931D01*
X161632Y169116D01*
X161530Y169319D01*
Y169329D01*
X161521Y169347D01*
X161512Y169384D01*
X161493Y169430D01*
X161475Y169486D01*
X161456Y169560D01*
X161429Y169643D01*
X161410Y169745D01*
X161392Y169856D01*
X161364Y169976D01*
X161346Y170105D01*
X161327Y170244D01*
X161308Y170401D01*
X161299Y170568D01*
X161290Y170743D01*
Y170928D01*
Y174626D01*
X162141D01*
Y170928D01*
Y170919D01*
Y170891D01*
Y170845D01*
Y170790D01*
X162150Y170725D01*
Y170642D01*
X162159Y170466D01*
X162178Y170263D01*
X162205Y170059D01*
X162242Y169865D01*
X162261Y169782D01*
X162288Y169699D01*
X162298Y169680D01*
X162316Y169634D01*
X162362Y169569D01*
X162418Y169477D01*
X162483Y169384D01*
X162575Y169282D01*
X162686Y169181D01*
X162815Y169098D01*
X162834Y169088D01*
X162880Y169061D01*
X162964Y169033D01*
X163074Y168996D01*
X163204Y168950D01*
X163370Y168922D01*
X163546Y168894D01*
X163740Y168885D01*
X163832D01*
X163888Y168894D01*
X163971D01*
X164054Y168903D01*
X164258Y168940D01*
X164480Y168987D01*
X164692Y169061D01*
X164896Y169162D01*
X164988Y169227D01*
X165072Y169301D01*
X165081Y169310D01*
X165090Y169319D01*
X165108Y169347D01*
X165136Y169384D01*
X165164Y169440D01*
X165201Y169495D01*
X165238Y169578D01*
X165275Y169662D01*
X165312Y169763D01*
X165340Y169883D01*
X165377Y170022D01*
X165404Y170170D01*
X165432Y170336D01*
X165450Y170512D01*
X165469Y170716D01*
Y170928D01*
Y174626D01*
X166320D01*
Y170928D01*
D02*
G37*
G36*
X170369Y168228D02*
X169583D01*
Y173230D01*
X169574Y173221D01*
X169528Y173184D01*
X169472Y173129D01*
X169380Y173064D01*
X169278Y172981D01*
X169149Y172888D01*
X169001Y172787D01*
X168834Y172685D01*
X168825D01*
X168816Y172676D01*
X168760Y172639D01*
X168668Y172592D01*
X168557Y172537D01*
X168428Y172472D01*
X168289Y172407D01*
X168150Y172343D01*
X168012Y172287D01*
Y173046D01*
X168021D01*
X168039Y173064D01*
X168076Y173073D01*
X168123Y173101D01*
X168178Y173129D01*
X168243Y173166D01*
X168400Y173258D01*
X168585Y173360D01*
X168770Y173489D01*
X168964Y173637D01*
X169158Y173794D01*
X169167Y173804D01*
X169177Y173813D01*
X169204Y173841D01*
X169241Y173868D01*
X169324Y173961D01*
X169435Y174072D01*
X169546Y174201D01*
X169667Y174349D01*
X169768Y174497D01*
X169861Y174654D01*
X170369D01*
Y168228D01*
D02*
G37*
%LPC*%
G36*
X-19209Y410630D02*
X-21326D01*
Y408725D01*
X-21317Y408614D01*
X-21308Y408484D01*
X-21298Y408337D01*
X-21280Y408189D01*
X-21252Y408041D01*
X-21215Y407911D01*
X-21206Y407893D01*
X-21188Y407856D01*
X-21160Y407800D01*
X-21123Y407726D01*
X-21067Y407643D01*
X-21003Y407560D01*
X-20919Y407477D01*
X-20827Y407412D01*
X-20818Y407403D01*
X-20781Y407384D01*
X-20725Y407356D01*
X-20651Y407320D01*
X-20568Y407292D01*
X-20476Y407264D01*
X-20365Y407246D01*
X-20254Y407236D01*
X-20244D01*
X-20235D01*
X-20180Y407246D01*
X-20096Y407255D01*
X-19986Y407273D01*
X-19875Y407320D01*
X-19745Y407375D01*
X-19625Y407458D01*
X-19505Y407569D01*
X-19496Y407588D01*
X-19459Y407634D01*
X-19412Y407708D01*
X-19357Y407828D01*
X-19301Y407967D01*
X-19255Y408152D01*
X-19218Y408364D01*
X-19209Y408614D01*
Y410630D01*
D02*
G37*
G36*
X-316940Y174395D02*
X-317032D01*
X-317097Y174386D01*
X-317180Y174377D01*
X-317272Y174358D01*
X-317374Y174340D01*
X-317485Y174312D01*
X-317615Y174275D01*
X-317735Y174238D01*
X-317864Y174183D01*
X-318003Y174118D01*
X-318132Y174044D01*
X-318262Y173951D01*
X-318391Y173859D01*
X-318512Y173739D01*
X-318521Y173730D01*
X-318539Y173711D01*
X-318567Y173674D01*
X-318604Y173619D01*
X-318659Y173554D01*
X-318706Y173471D01*
X-318761Y173369D01*
X-318817Y173258D01*
X-318881Y173129D01*
X-318937Y172981D01*
X-318983Y172824D01*
X-319029Y172648D01*
X-319075Y172463D01*
X-319103Y172260D01*
X-319122Y172038D01*
X-319131Y171807D01*
Y171788D01*
Y171751D01*
Y171686D01*
X-319122Y171603D01*
X-319112Y171501D01*
X-319094Y171381D01*
X-319075Y171243D01*
X-319057Y171104D01*
X-318983Y170790D01*
X-318937Y170632D01*
X-318872Y170475D01*
X-318807Y170318D01*
X-318724Y170170D01*
X-318632Y170022D01*
X-318521Y169893D01*
X-318512Y169883D01*
X-318493Y169865D01*
X-318456Y169828D01*
X-318410Y169791D01*
X-318345Y169736D01*
X-318271Y169680D01*
X-318188Y169625D01*
X-318086Y169560D01*
X-317985Y169495D01*
X-317864Y169440D01*
X-317735Y169384D01*
X-317596Y169329D01*
X-317439Y169292D01*
X-317282Y169255D01*
X-317115Y169236D01*
X-316940Y169227D01*
X-316856D01*
X-316773Y169236D01*
X-316662Y169245D01*
X-316524Y169264D01*
X-316385Y169301D01*
X-316228Y169338D01*
X-316080Y169393D01*
X-316098Y169403D01*
X-316145Y169440D01*
X-316228Y169486D01*
X-316329Y169541D01*
X-316459Y169597D01*
X-316598Y169662D01*
X-316755Y169717D01*
X-316921Y169763D01*
X-316709Y170373D01*
X-316699D01*
X-316672Y170364D01*
X-316635Y170355D01*
X-316588Y170336D01*
X-316524Y170318D01*
X-316450Y170290D01*
X-316283Y170226D01*
X-316089Y170133D01*
X-315886Y170031D01*
X-315692Y169911D01*
X-315497Y169763D01*
X-315488Y169772D01*
X-315460Y169791D01*
X-315423Y169837D01*
X-315377Y169893D01*
X-315322Y169967D01*
X-315257Y170050D01*
X-315192Y170152D01*
X-315118Y170272D01*
X-315054Y170410D01*
X-314989Y170568D01*
X-314924Y170734D01*
X-314869Y170910D01*
X-314813Y171113D01*
X-314776Y171326D01*
X-314758Y171557D01*
X-314748Y171807D01*
Y171816D01*
Y171843D01*
Y171880D01*
Y171936D01*
X-314758Y172010D01*
Y172084D01*
X-314767Y172176D01*
X-314785Y172269D01*
X-314813Y172481D01*
X-314859Y172713D01*
X-314924Y172944D01*
X-315017Y173166D01*
Y173175D01*
X-315026Y173193D01*
X-315044Y173221D01*
X-315063Y173258D01*
X-315128Y173369D01*
X-315211Y173498D01*
X-315322Y173646D01*
X-315460Y173794D01*
X-315618Y173942D01*
X-315793Y174072D01*
X-315802D01*
X-315812Y174090D01*
X-315840Y174099D01*
X-315886Y174127D01*
X-315932Y174146D01*
X-315987Y174173D01*
X-316126Y174238D01*
X-316292Y174294D01*
X-316487Y174349D01*
X-316709Y174386D01*
X-316940Y174395D01*
D02*
G37*
G36*
X323060D02*
X322968D01*
X322903Y174386D01*
X322820Y174377D01*
X322727Y174358D01*
X322626Y174340D01*
X322515Y174312D01*
X322385Y174275D01*
X322265Y174238D01*
X322136Y174183D01*
X321997Y174118D01*
X321868Y174044D01*
X321738Y173951D01*
X321609Y173859D01*
X321488Y173739D01*
X321479Y173730D01*
X321461Y173711D01*
X321433Y173674D01*
X321396Y173619D01*
X321341Y173554D01*
X321294Y173471D01*
X321239Y173369D01*
X321183Y173258D01*
X321119Y173129D01*
X321063Y172981D01*
X321017Y172824D01*
X320971Y172648D01*
X320925Y172463D01*
X320897Y172260D01*
X320878Y172038D01*
X320869Y171807D01*
Y171788D01*
Y171751D01*
Y171686D01*
X320878Y171603D01*
X320888Y171501D01*
X320906Y171381D01*
X320925Y171243D01*
X320943Y171104D01*
X321017Y170790D01*
X321063Y170632D01*
X321128Y170475D01*
X321193Y170318D01*
X321276Y170170D01*
X321368Y170022D01*
X321479Y169893D01*
X321488Y169883D01*
X321507Y169865D01*
X321544Y169828D01*
X321590Y169791D01*
X321655Y169736D01*
X321729Y169680D01*
X321812Y169625D01*
X321914Y169560D01*
X322015Y169495D01*
X322136Y169440D01*
X322265Y169384D01*
X322404Y169329D01*
X322561Y169292D01*
X322718Y169255D01*
X322885Y169236D01*
X323060Y169227D01*
X323144D01*
X323227Y169236D01*
X323338Y169245D01*
X323476Y169264D01*
X323615Y169301D01*
X323772Y169338D01*
X323920Y169393D01*
X323902Y169403D01*
X323855Y169440D01*
X323772Y169486D01*
X323671Y169541D01*
X323541Y169597D01*
X323402Y169662D01*
X323245Y169717D01*
X323079Y169763D01*
X323291Y170373D01*
X323301D01*
X323328Y170364D01*
X323365Y170355D01*
X323412Y170336D01*
X323476Y170318D01*
X323550Y170290D01*
X323717Y170226D01*
X323911Y170133D01*
X324114Y170031D01*
X324308Y169911D01*
X324503Y169763D01*
X324512Y169772D01*
X324540Y169791D01*
X324577Y169837D01*
X324623Y169893D01*
X324678Y169967D01*
X324743Y170050D01*
X324808Y170152D01*
X324882Y170272D01*
X324946Y170410D01*
X325011Y170568D01*
X325076Y170734D01*
X325131Y170910D01*
X325187Y171113D01*
X325224Y171326D01*
X325242Y171557D01*
X325252Y171807D01*
Y171816D01*
Y171843D01*
Y171880D01*
Y171936D01*
X325242Y172010D01*
Y172084D01*
X325233Y172176D01*
X325215Y172269D01*
X325187Y172481D01*
X325140Y172713D01*
X325076Y172944D01*
X324983Y173166D01*
Y173175D01*
X324974Y173193D01*
X324956Y173221D01*
X324937Y173258D01*
X324872Y173369D01*
X324789Y173498D01*
X324678Y173646D01*
X324540Y173794D01*
X324382Y173942D01*
X324207Y174072D01*
X324198D01*
X324188Y174090D01*
X324160Y174099D01*
X324114Y174127D01*
X324068Y174146D01*
X324013Y174173D01*
X323874Y174238D01*
X323708Y174294D01*
X323513Y174349D01*
X323291Y174386D01*
X323060Y174395D01*
D02*
G37*
%LPD*%
D12*
X-46070Y449280D02*
X-7270D01*
X-46070Y373680D02*
Y449280D01*
Y373680D02*
X-7270D01*
Y449280D01*
X-64000Y-69250D02*
Y193500D01*
X-256000D02*
X-64000D01*
X-256000Y-69250D02*
Y193500D01*
Y-69250D02*
X-64000D01*
X-128969Y410990D02*
Y444990D01*
X-171031D02*
X-128969D01*
X-171031Y410990D02*
Y444990D01*
Y410990D02*
X-128969D01*
X-339223Y187000D02*
X-300777D01*
Y153000D02*
Y187000D01*
X-339223Y153000D02*
X-300777D01*
X-339223D02*
Y187000D01*
X300777Y153000D02*
Y187000D01*
Y153000D02*
X339223D01*
Y187000D01*
X300777D02*
X339223D01*
X144290Y153500D02*
Y186500D01*
Y153500D02*
X178290D01*
Y186500D01*
X144290D02*
X178290D01*
M02*
