G04*
G04 #@! TF.GenerationSoftware,Altium Limited,Altium Designer,23.10.1 (27)*
G04*
G04 Layer_Color=32768*
%FSLAX44Y44*%
%MOMM*%
G71*
G04*
G04 #@! TF.SameCoordinates,E252026D-ABAD-487A-9E39-ED487C9B17EB*
G04*
G04*
G04 #@! TF.FilePolarity,Positive*
G04*
G01*
G75*
%ADD10C,0.1000*%
%ADD12C,0.2000*%
%ADD63C,0.0500*%
D10*
X540330Y136650D02*
Y263350D01*
X354080Y136650D02*
X540330D01*
X354080D02*
Y263350D01*
X540330D01*
X650000Y345000D02*
Y355000D01*
X645000Y350000D02*
X655000D01*
X-1300000Y345000D02*
Y355000D01*
X-1305000Y350000D02*
X-1295000D01*
X-650000Y345000D02*
Y355000D01*
X-655000Y350000D02*
X-645000D01*
X1300000Y345000D02*
Y355000D01*
X1295000Y350000D02*
X1305000D01*
X-540330Y136650D02*
X-354080D01*
Y263350D01*
X-540330D02*
X-354080D01*
X-540330Y136650D02*
Y263350D01*
X-337740Y328930D02*
X-327740D01*
X-332740Y323930D02*
Y333930D01*
X12060Y407590D02*
Y611340D01*
Y407590D02*
X194060D01*
Y611340D01*
X12060D02*
X194060D01*
X154530Y8330D02*
Y93330D01*
X22530Y8330D02*
X154530D01*
X22530D02*
Y93330D01*
X154530D01*
X105000Y120000D02*
X115000D01*
X110000Y115000D02*
Y125000D01*
D12*
X-46070Y449280D02*
X-7270D01*
X-46070Y373680D02*
Y449280D01*
Y373680D02*
X-7270D01*
Y449280D01*
X-64000Y-69250D02*
Y193500D01*
X-256000D02*
X-64000D01*
X-256000Y-69250D02*
Y193500D01*
Y-69250D02*
X-64000D01*
X-128969Y410990D02*
Y444990D01*
X-171031D02*
X-128969D01*
X-171031Y410990D02*
Y444990D01*
Y410990D02*
X-128969D01*
X-339223Y187000D02*
X-300777D01*
Y153000D02*
Y187000D01*
X-339223Y153000D02*
X-300777D01*
X-339223D02*
Y187000D01*
X300777Y153000D02*
Y187000D01*
Y153000D02*
X339223D01*
Y187000D01*
X300777D02*
X339223D01*
X144290Y153500D02*
Y186500D01*
Y153500D02*
X178290D01*
Y186500D01*
X144290D02*
X178290D01*
D63*
X629500Y313500D02*
X670500D01*
X629500Y386500D02*
X670500D01*
X629500Y313500D02*
Y386500D01*
X670500Y313500D02*
Y386500D01*
X-1320500Y313500D02*
X-1279500D01*
X-1320500Y386500D02*
X-1279500D01*
X-1320500Y313500D02*
Y386500D01*
X-1279500Y313500D02*
Y386500D01*
X-670500Y313500D02*
X-629500D01*
X-670500Y386500D02*
X-629500D01*
X-670500Y313500D02*
Y386500D01*
X-629500Y313500D02*
Y386500D01*
X1279500Y313500D02*
X1320500D01*
X1279500Y386500D02*
X1320500D01*
X1279500Y313500D02*
Y386500D01*
X1320500Y313500D02*
Y386500D01*
X92790Y314960D02*
X102790D01*
X97790Y309960D02*
Y319960D01*
X194790Y226460D02*
Y403460D01*
X790D02*
X194790D01*
X790Y226460D02*
Y403460D01*
Y226460D02*
X194790D01*
X-318740Y301930D02*
Y355930D01*
X-346740Y301930D02*
Y355930D01*
X-318740D01*
X-346740Y301930D02*
X-318740D01*
X94500Y104400D02*
Y135600D01*
X125500Y104400D02*
Y135600D01*
X94500D02*
X125500D01*
X94500Y104400D02*
X125500D01*
M02*
