G04*
G04 #@! TF.GenerationSoftware,Altium Limited,Altium Designer,23.10.1 (27)*
G04*
G04 Layer_Physical_Order=1*
G04 Layer_Color=255*
%FSLAX44Y44*%
%MOMM*%
G71*
G04*
G04 #@! TF.SameCoordinates,E252026D-ABAD-487A-9E39-ED487C9B17EB*
G04*
G04*
G04 #@! TF.FilePolarity,Positive*
G04*
G01*
G75*
%ADD13C,0.2540*%
%ADD18R,3.8000X1.0500*%
%ADD19R,9.4500X10.6700*%
%ADD20R,3.6800X1.6500*%
%ADD21R,1.5240X2.0320*%
%ADD22R,2.0320X1.5240*%
%ADD23R,0.9000X0.9000*%
%ADD24R,1.5000X0.9000*%
%ADD25R,0.9000X1.5000*%
%ADD26R,1.5240X1.0160*%
G04:AMPARAMS|DCode=27|XSize=1.5052mm|YSize=0.4549mm|CornerRadius=0.2275mm|HoleSize=0mm|Usage=FLASHONLY|Rotation=180.000|XOffset=0mm|YOffset=0mm|HoleType=Round|Shape=RoundedRectangle|*
%AMROUNDEDRECTD27*
21,1,1.5052,0.0000,0,0,180.0*
21,1,1.0503,0.4549,0,0,180.0*
1,1,0.4549,-0.5252,0.0000*
1,1,0.4549,0.5252,0.0000*
1,1,0.4549,0.5252,0.0000*
1,1,0.4549,-0.5252,0.0000*
%
%ADD27ROUNDEDRECTD27*%
%ADD28R,1.5052X0.4549*%
%ADD29R,1.5242X0.5780*%
G04:AMPARAMS|DCode=30|XSize=1.5242mm|YSize=0.578mm|CornerRadius=0.289mm|HoleSize=0mm|Usage=FLASHONLY|Rotation=0.000|XOffset=0mm|YOffset=0mm|HoleType=Round|Shape=RoundedRectangle|*
%AMROUNDEDRECTD30*
21,1,1.5242,0.0000,0,0,0.0*
21,1,0.9463,0.5780,0,0,0.0*
1,1,0.5780,0.4731,0.0000*
1,1,0.5780,-0.4731,0.0000*
1,1,0.5780,-0.4731,0.0000*
1,1,0.5780,0.4731,0.0000*
%
%ADD30ROUNDEDRECTD30*%
%ADD31O,0.4500X2.0000*%
%ADD32R,6.5000X3.5000*%
%ADD33R,1.7500X1.4000*%
%ADD34R,2.2000X0.8000*%
%ADD35R,6.4000X5.8000*%
%ADD36R,0.8000X0.5500*%
%ADD37R,0.9000X0.8000*%
%ADD49C,0.4000*%
%ADD55C,0.5100*%
%ADD56C,0.3900*%
%ADD57C,1.5000*%
%ADD58R,1.5000X1.5000*%
%ADD59C,2.7000*%
%ADD60C,4.0500*%
%ADD61C,1.2700*%
G36*
X191746Y598451D02*
Y598451D01*
X196232Y594794D01*
X197121Y593090D01*
X197143Y593037D01*
X199180Y591030D01*
Y410210D01*
X199180Y410210D01*
X198553D01*
X201774Y402434D01*
X209550Y399213D01*
X209550Y397781D01*
X209550Y397781D01*
X209550Y397781D01*
X211011Y399241D01*
X211158Y399389D01*
X215290Y399840D01*
X1384206D01*
X1389357Y397790D01*
X1389370Y397785D01*
X1389380Y397781D01*
X1389409Y397773D01*
X1394607Y395979D01*
X1396001Y391160D01*
X1396022Y391108D01*
X1398060Y389100D01*
Y12794D01*
X1396010Y7643D01*
X1392193Y3224D01*
X1391921Y2912D01*
X1391921Y2912D01*
X1386514Y1480D01*
X-62460D01*
Y6130D01*
X-72500D01*
X-82540D01*
Y1480D01*
X-237460D01*
Y6130D01*
X-247500D01*
X-257540D01*
Y1480D01*
X-1386513D01*
X-1391920Y2912D01*
X-1396299Y6825D01*
X-1396629Y7619D01*
X-1396628Y7620D01*
X-1398060Y7620D01*
Y393700D01*
X-1396629D01*
X-1396429Y394181D01*
X-1393822Y396263D01*
X-1391920Y397781D01*
X-1391920D01*
X-1391866Y397803D01*
X-1391041Y398641D01*
X-1386514Y399840D01*
X-196850D01*
Y399213D01*
X-189074Y402434D01*
X-185859Y410196D01*
X-184431Y410187D01*
X-184421Y410209D01*
X-186481Y416209D01*
X-186480Y593090D01*
X-185153D01*
X-184004Y595866D01*
X-180466Y597713D01*
X-179070Y598441D01*
X-179070Y598441D01*
X-179023Y598461D01*
X-178082Y599414D01*
X-173620Y600500D01*
X186595D01*
X191746Y598451D01*
D02*
G37*
%LPC*%
G36*
X-28060Y585350D02*
X-36830D01*
Y576580D01*
X-28060D01*
Y585350D01*
D02*
G37*
G36*
X-39370D02*
X-48140D01*
Y576580D01*
X-39370D01*
Y585350D01*
D02*
G37*
G36*
X-110667Y584080D02*
X-117933D01*
X-123070Y578943D01*
Y571677D01*
X-117933Y566540D01*
X-110667D01*
X-105530Y571677D01*
Y578943D01*
X-110667Y584080D01*
D02*
G37*
G36*
X-136067D02*
X-143333D01*
X-148470Y578943D01*
Y571677D01*
X-143333Y566540D01*
X-136067D01*
X-130930Y571677D01*
Y578943D01*
X-136067Y584080D01*
D02*
G37*
G36*
X-28060Y574040D02*
X-36830D01*
Y565270D01*
X-28060D01*
Y574040D01*
D02*
G37*
G36*
X-39370D02*
X-48140D01*
Y565270D01*
X-39370D01*
Y574040D01*
D02*
G37*
G36*
X-59867Y584080D02*
X-67133D01*
X-72270Y578943D01*
Y571677D01*
X-67635Y567042D01*
Y535416D01*
X-71120Y530860D01*
X-71470Y530756D01*
X-72498Y530967D01*
X-77470Y535233D01*
Y544830D01*
X-84765D01*
Y567042D01*
X-80130Y571677D01*
Y578943D01*
X-85267Y584080D01*
X-92533D01*
X-97670Y578943D01*
Y571677D01*
X-93035Y567042D01*
Y544830D01*
X-100330D01*
Y532897D01*
X-121093Y512135D01*
X-153670D01*
Y516890D01*
X-176530D01*
Y499110D01*
X-167965D01*
Y480352D01*
X-171450Y476866D01*
Y470554D01*
X-166986Y466090D01*
X-160674D01*
X-156593Y470171D01*
X-147258D01*
X-138890Y461803D01*
Y457411D01*
X-139159Y456760D01*
Y455069D01*
X-139429Y454417D01*
Y445819D01*
X-143672Y441577D01*
X-144247D01*
X-144247Y441577D01*
X-146960Y440453D01*
X-153040D01*
X-153324Y440570D01*
X-155753Y441577D01*
X-155753Y441577D01*
X-155919Y441577D01*
X-166256D01*
X-168969Y440453D01*
X-169414Y439379D01*
X-169606Y439300D01*
X-169606Y439300D01*
X-177204Y431702D01*
X-178009Y429758D01*
X-178009Y429757D01*
Y356739D01*
X-183193Y351555D01*
X-188570Y354663D01*
X-188570Y358396D01*
Y370840D01*
X-211430D01*
Y366085D01*
X-218570D01*
Y370840D01*
X-232424D01*
X-247938Y386354D01*
X-250861Y387565D01*
X-321420D01*
X-321420Y387565D01*
X-324344Y386354D01*
Y386354D01*
X-329817Y380880D01*
X-336373D01*
X-341510Y375743D01*
Y369187D01*
X-348423Y362275D01*
X-631051D01*
X-636440Y367866D01*
Y376406D01*
X-636440Y379030D01*
Y379031D01*
X-636440Y379250D01*
X-636440Y379250D01*
X-637556Y381944D01*
X-640250Y383060D01*
X-640805Y382830D01*
X-642944Y381944D01*
X-643246Y381944D01*
X-644056D01*
X-646750Y383060D01*
X-649444Y381944D01*
X-650556D01*
X-653250Y383060D01*
X-655944Y381944D01*
X-656754D01*
X-657056Y381944D01*
X-659750Y383060D01*
X-662444Y381944D01*
X-663560Y379250D01*
X-663560Y379250D01*
X-663560Y379031D01*
Y373537D01*
X-675283Y361814D01*
X-1281242D01*
X-1286440Y367279D01*
Y376406D01*
X-1286440Y379030D01*
Y379031D01*
X-1286440Y379250D01*
X-1286440Y379250D01*
X-1287556Y381944D01*
X-1290250Y383060D01*
X-1290881Y382799D01*
X-1292944Y381944D01*
X-1293246Y381944D01*
X-1294056D01*
X-1296750Y383060D01*
X-1296750Y383060D01*
X-1300000Y382107D01*
X-1303250Y383060D01*
X-1303250Y383060D01*
X-1305944Y381944D01*
X-1306754D01*
X-1307056Y381944D01*
X-1309750Y383060D01*
X-1312444Y381944D01*
X-1313560Y379250D01*
X-1313560Y379250D01*
X-1313560Y379031D01*
Y372284D01*
X-1313885Y371500D01*
X-1313584Y370775D01*
Y363450D01*
X-1313455Y363137D01*
Y361236D01*
X-1312244Y358312D01*
X-1308688Y354756D01*
X-1305764Y353545D01*
X-1305764Y353545D01*
X-673570D01*
X-670646Y354756D01*
X-668514Y356889D01*
X-662373Y357744D01*
X-659386Y354756D01*
X-659386Y354756D01*
X-656462Y353545D01*
X-637736D01*
X-636625Y354005D01*
X-350113D01*
X-345446Y349068D01*
X-345595Y348285D01*
X-349192Y343790D01*
X-352696D01*
X-632076D01*
X-637122D01*
Y343789D01*
X-641450Y343789D01*
X-655234D01*
X-655234Y343790D01*
X-657178Y342984D01*
X-657178Y342984D01*
X-660351Y339811D01*
X-662444Y338944D01*
X-668167Y340806D01*
X-670935Y343574D01*
X-672879Y344379D01*
X-672880Y344379D01*
X-676346D01*
X-1281682D01*
X-1287365D01*
Y344379D01*
X-1291056Y344379D01*
X-1304644D01*
X-1306588Y343574D01*
X-1306588Y343574D01*
X-1310351Y339811D01*
X-1312444Y338944D01*
X-1313560Y336250D01*
Y323594D01*
X-1313560Y320970D01*
Y320970D01*
X-1313560Y320750D01*
X-1313560Y320750D01*
X-1312444Y318056D01*
X-1309750Y316940D01*
X-1309119Y317202D01*
X-1307056Y318056D01*
X-1306754Y318056D01*
X-1305944D01*
X-1303250Y316940D01*
X-1303250Y316940D01*
X-1300000Y317893D01*
X-1296750Y316940D01*
X-1296750Y316940D01*
X-1293916Y317084D01*
X-1291520Y316091D01*
Y328500D01*
X-1290250D01*
Y329770D01*
X-1285065D01*
Y336250D01*
X-1283643Y338379D01*
X-1283308Y338881D01*
X-1281714D01*
X-675802D01*
X-674018Y338881D01*
X-666592Y331454D01*
Y331454D01*
X-666592Y331454D01*
X-663560Y326710D01*
X-663560Y320750D01*
X-663560Y320750D01*
X-662444Y318056D01*
X-659750Y316940D01*
X-659195Y317170D01*
X-657056Y318056D01*
X-656754Y318056D01*
X-655944D01*
X-653250Y316940D01*
X-650556Y318056D01*
X-649444Y318056D01*
X-646750Y316940D01*
X-643916Y317084D01*
X-641520Y316091D01*
Y328500D01*
X-640250D01*
Y329770D01*
X-635065D01*
Y336250D01*
X-634037Y337789D01*
X-633702Y338291D01*
X-632113D01*
X-352068D01*
X-350331Y338291D01*
X-345792Y333752D01*
X-345792Y333752D01*
X-344486Y332446D01*
X-342542Y331641D01*
X-342542Y331641D01*
X-340667Y331641D01*
X-335489D01*
Y322200D01*
X-342760D01*
Y305660D01*
X-322720D01*
Y312800D01*
X-307340D01*
X-305396Y313605D01*
X-304591Y315549D01*
Y363340D01*
X-303707D01*
X-298570Y368477D01*
Y371167D01*
X-292727Y376122D01*
X-291980Y375974D01*
Y373380D01*
X-281940D01*
X-271900D01*
Y379295D01*
X-252574D01*
X-241430Y368152D01*
Y353060D01*
X-218570D01*
Y357815D01*
X-211430D01*
Y353060D01*
X-196938D01*
X-193627Y348150D01*
X-193472Y347060D01*
X-193554Y346919D01*
X-210219D01*
X-210219Y346919D01*
Y346919D01*
X-217300D01*
X-219244Y346114D01*
X-219886Y345472D01*
X-219886D01*
X-219886Y345472D01*
X-222458Y342900D01*
X-222960Y342900D01*
X-241430D01*
Y325120D01*
X-237349D01*
X-231349Y319328D01*
Y309896D01*
X-231756Y309880D01*
X-231818Y309818D01*
X-236220Y305416D01*
Y299104D01*
X-233001Y295885D01*
X-234761Y289885D01*
X-285680D01*
X-285680Y289885D01*
X-288604Y288674D01*
X-288604Y288674D01*
X-324417Y252860D01*
X-341430D01*
Y245941D01*
X-352553D01*
X-352553Y245941D01*
X-355477Y244730D01*
X-355477Y244730D01*
X-367973Y232235D01*
X-380380D01*
X-381139Y231920D01*
X-403350D01*
Y218880D01*
X-362810D01*
Y225703D01*
X-350841Y237672D01*
X-341430D01*
Y235080D01*
X-318570D01*
Y247013D01*
X-283967Y281615D01*
X-129940D01*
X-127016Y282826D01*
X-72703Y337140D01*
X-58570D01*
Y346279D01*
X-55986D01*
X-53062Y347491D01*
X-38446Y362106D01*
X-38446Y362106D01*
X-37235Y365030D01*
Y373410D01*
X-16105D01*
Y347220D01*
X-14894Y344296D01*
X1520Y327882D01*
Y296190D01*
X31156D01*
Y268240D01*
X32367Y265316D01*
X98255Y199427D01*
Y199040D01*
X98570Y198281D01*
Y190928D01*
X46606Y138964D01*
X45395Y136040D01*
Y78900D01*
X37260D01*
Y77145D01*
X20320D01*
Y78740D01*
X13741D01*
X13507Y79090D01*
X16714Y85090D01*
X21590D01*
Y91440D01*
X11430D01*
Y92710D01*
X10160D01*
Y100330D01*
X3084D01*
X-353Y101978D01*
X-2928Y104591D01*
X-3426Y105794D01*
X-13970Y116337D01*
Y128270D01*
X-36830D01*
Y110490D01*
X-19817D01*
X-15657Y106330D01*
X-18143Y100330D01*
X-36830D01*
Y82550D01*
X-21925D01*
Y78750D01*
X-20714Y75827D01*
X-4154Y59266D01*
X-1230Y58055D01*
X22284D01*
X22381Y58095D01*
X37260D01*
Y56960D01*
X61800D01*
Y59545D01*
X64950D01*
X67874Y60756D01*
X71990Y64873D01*
X77990Y62387D01*
Y52100D01*
X147070D01*
Y81376D01*
X147070Y81833D01*
X147111Y82532D01*
X148430Y87807D01*
X150315Y88587D01*
X155290Y93563D01*
X161290Y91077D01*
X161290Y90923D01*
X161290Y90923D01*
X161290Y90512D01*
Y77140D01*
X184150D01*
Y87106D01*
X186733Y88176D01*
X191300Y92743D01*
X197300Y90257D01*
Y87300D01*
X208730D01*
Y96190D01*
X206865D01*
X203503Y102190D01*
X204117Y103297D01*
X205690Y105080D01*
X221430D01*
Y122860D01*
X214135D01*
Y142962D01*
X214525Y145278D01*
X219150Y148570D01*
X232860D01*
Y171430D01*
X228925D01*
Y193438D01*
X227714Y196361D01*
X226455Y196882D01*
X224203Y203116D01*
X271300Y250213D01*
X277300Y247727D01*
Y245240D01*
X290000D01*
Y243970D01*
X291270D01*
Y233810D01*
X302700D01*
Y243683D01*
X308700Y245870D01*
X311030Y244905D01*
X318570D01*
Y235080D01*
X334310D01*
X335070Y234765D01*
X335070Y234765D01*
X339096D01*
X340597Y234143D01*
X340597Y234143D01*
X354902D01*
X359929Y229054D01*
X359464Y226835D01*
X339210D01*
X339210Y226835D01*
X336286Y225624D01*
X335583Y224920D01*
X318570D01*
Y207140D01*
X325865D01*
Y181503D01*
X325789Y181471D01*
X319789Y183660D01*
Y183660D01*
X314149D01*
X313647Y183660D01*
Y195132D01*
X313647Y195132D01*
X312842Y197076D01*
X305032Y204886D01*
X301639Y209481D01*
Y209680D01*
X301632Y209699D01*
X301430Y215394D01*
Y224920D01*
X278570D01*
Y207140D01*
X296111D01*
X296141Y207140D01*
X296946Y205196D01*
X308149Y193993D01*
X308149Y183660D01*
X302007D01*
Y183660D01*
X296215Y182249D01*
X285336D01*
X285320Y182656D01*
X285258Y182718D01*
X280856Y187120D01*
X274544D01*
X270080Y182656D01*
Y176343D01*
X274544Y171880D01*
X280856D01*
X285254Y176277D01*
X285320Y176343D01*
X285336Y176750D01*
X296215D01*
X302007Y175340D01*
Y175340D01*
X310905D01*
X315675Y169531D01*
X315683Y169381D01*
X315042Y166499D01*
X314874Y166377D01*
X312168D01*
Y160500D01*
Y154623D01*
X315629D01*
X319785Y156344D01*
X321397Y160235D01*
X321507Y160500D01*
X321508Y160502D01*
X321970Y161309D01*
X325931Y165497D01*
X333833D01*
X337017Y166816D01*
X338336Y170000D01*
X337017Y173184D01*
X334135Y174378D01*
Y207140D01*
X341430D01*
Y218565D01*
X373830D01*
X374590Y218880D01*
X400557D01*
X403350Y218880D01*
X406557Y214209D01*
Y203925D01*
X383752Y181120D01*
X362810D01*
Y168080D01*
X403350D01*
Y181120D01*
X403287D01*
X400990Y186663D01*
X413616Y199289D01*
X414827Y202212D01*
X414827Y202212D01*
Y235291D01*
X413616Y238214D01*
X413616Y238214D01*
X410628Y241202D01*
X407705Y242413D01*
X341477D01*
X341430Y242432D01*
Y252860D01*
X325689D01*
X324930Y253175D01*
X312743D01*
X302644Y263274D01*
X299720Y264485D01*
X275590D01*
X275590Y264485D01*
X272666Y263274D01*
X209166Y199774D01*
X208254Y197572D01*
X174006D01*
X172720Y198105D01*
X121430D01*
Y202860D01*
X105812D01*
X105314Y204064D01*
X105314Y204064D01*
X39425Y269952D01*
Y296190D01*
X69060D01*
Y333730D01*
X7367D01*
X-7835Y348933D01*
Y373410D01*
X-7000D01*
Y392450D01*
X-45885D01*
X-46340Y392450D01*
X-51885Y393548D01*
Y416555D01*
X-53096Y419479D01*
X-53096Y419479D01*
X-54418Y420800D01*
X-56137Y422572D01*
X-58570Y427436D01*
X-58570Y428015D01*
X-54995Y434015D01*
X-46340D01*
Y430510D01*
X-21730D01*
X-20970Y430195D01*
X-10487D01*
X12422Y407286D01*
X15345Y406075D01*
X111430D01*
X114354Y407286D01*
X126767Y419700D01*
X130146Y416320D01*
X147974D01*
X160580Y428926D01*
Y446754D01*
X147974Y459360D01*
X130146D01*
X117540Y446754D01*
Y428926D01*
X120919Y425547D01*
X109717Y414345D01*
X84280D01*
X81795Y420345D01*
X89850Y428400D01*
Y436570D01*
X44270D01*
Y428400D01*
X52326Y420345D01*
X49840Y414345D01*
X17058D01*
X-5851Y437254D01*
X-7000Y437730D01*
Y449550D01*
X-46340D01*
Y442285D01*
X-58570D01*
Y442860D01*
X-81430D01*
Y432078D01*
X-87067Y429225D01*
X-91110Y431510D01*
Y431510D01*
X-108890D01*
Y428645D01*
X-126798D01*
X-128532Y431240D01*
X-130566Y436149D01*
X-129907Y437740D01*
X-131031Y440453D01*
X-132351Y441000D01*
Y453490D01*
X-121110D01*
Y466190D01*
X-127913D01*
X-128147Y466540D01*
X-124940Y472540D01*
X-119840D01*
Y478890D01*
X-130000D01*
Y480160D01*
X-131270D01*
Y487780D01*
X-140160D01*
Y480923D01*
X-145792Y477249D01*
X-156593D01*
X-159695Y480352D01*
Y499110D01*
X-153670D01*
Y503865D01*
X-121093D01*
X-94397Y477170D01*
X-96345Y471312D01*
X-96637Y470925D01*
X-101600Y465962D01*
Y463550D01*
X-83820D01*
Y465962D01*
X-85243Y467385D01*
X-82758Y473385D01*
X158307D01*
X174935Y456757D01*
Y396240D01*
X176146Y393316D01*
X200886Y368576D01*
X200886Y368576D01*
X203810Y367365D01*
X636416D01*
Y363450D01*
X636545Y363137D01*
Y361236D01*
X637756Y358312D01*
X641312Y354756D01*
X644236Y353545D01*
X644236Y353545D01*
X662264D01*
X663375Y354005D01*
X1276890D01*
X1279814Y355216D01*
X1285969Y361371D01*
X1287556Y361056D01*
X1290250Y359940D01*
X1292944Y361056D01*
X1294056D01*
X1296750Y359940D01*
X1299444Y361056D01*
X1300556D01*
X1303250Y359940D01*
X1305944Y361056D01*
X1306754D01*
X1307056Y361056D01*
X1309750Y359940D01*
X1312444Y361056D01*
X1313560Y363750D01*
X1313560Y363750D01*
X1313560Y363969D01*
X1313560Y363969D01*
X1313560Y367032D01*
Y376406D01*
X1313560Y379030D01*
Y379031D01*
X1313560Y379250D01*
X1313560Y379250D01*
X1312444Y381944D01*
X1309750Y383060D01*
X1309195Y382830D01*
X1307056Y381944D01*
X1306754Y381944D01*
X1305944D01*
X1303250Y383060D01*
X1300556Y381944D01*
X1299444D01*
X1296750Y383060D01*
X1296750Y383060D01*
X1293500Y382107D01*
X1290250Y383060D01*
X1290250Y383060D01*
X1290250Y383060D01*
X1290250Y383060D01*
X1287556Y381944D01*
X1287556D01*
X1286440Y379250D01*
X1286440Y379031D01*
X1286440Y379031D01*
X1286440Y379011D01*
X1286440Y379011D01*
X1286440Y376406D01*
Y373537D01*
X1275177Y362275D01*
X668949D01*
X663560Y367866D01*
Y376406D01*
X663560Y379250D01*
X662444Y381944D01*
X659750Y383060D01*
X659750Y383060D01*
X659054Y382856D01*
X656500Y382107D01*
X653250Y383060D01*
X653250Y383060D01*
X650556Y381944D01*
X649444D01*
X646750Y383060D01*
X644056Y381944D01*
X643246D01*
X642944Y381944D01*
X640250Y383060D01*
X637556Y381944D01*
X636440Y379250D01*
X631847Y375635D01*
X205523D01*
X183205Y397953D01*
Y458470D01*
X181994Y461394D01*
X167587Y475800D01*
X170073Y481800D01*
X177204D01*
X186600Y491196D01*
Y496570D01*
X154520D01*
Y491196D01*
X158061Y487655D01*
X155576Y481655D01*
X50544D01*
X48059Y487655D01*
X51600Y491196D01*
Y496570D01*
X19520D01*
Y491196D01*
X23061Y487655D01*
X20576Y481655D01*
X-87187D01*
X-98643Y493110D01*
X-96157Y499110D01*
X-96058Y499110D01*
X-78390D01*
X-77470Y499110D01*
X-72390Y496889D01*
Y496570D01*
X-63500D01*
Y504190D01*
X-62230D01*
Y505460D01*
X-52070D01*
Y511810D01*
X-60584D01*
X-61089Y512108D01*
X-61444Y512475D01*
X-63449Y517810D01*
X-63083Y518160D01*
X-53340D01*
Y530860D01*
X-59365D01*
Y567042D01*
X-54730Y571677D01*
Y578943D01*
X-59867Y584080D01*
D02*
G37*
G36*
X-161467D02*
X-168733D01*
X-173870Y578943D01*
Y571677D01*
X-169235Y567042D01*
Y544830D01*
X-176530D01*
Y527050D01*
X-153670D01*
Y544830D01*
X-160965D01*
Y567042D01*
X-156330Y571677D01*
Y578943D01*
X-161467Y584080D01*
D02*
G37*
G36*
X177204Y513880D02*
X171830D01*
Y499110D01*
X186600D01*
Y504484D01*
X177204Y513880D01*
D02*
G37*
G36*
X169290D02*
X163916D01*
X154520Y504484D01*
Y499110D01*
X169290D01*
Y513880D01*
D02*
G37*
G36*
X42204D02*
X36830D01*
Y499110D01*
X51600D01*
Y504484D01*
X42204Y513880D01*
D02*
G37*
G36*
X34290D02*
X28916D01*
X19520Y504484D01*
Y499110D01*
X34290D01*
Y513880D01*
D02*
G37*
G36*
X-52070Y502920D02*
X-60960D01*
Y496570D01*
X-52070D01*
Y502920D01*
D02*
G37*
G36*
X-119840Y487780D02*
X-128730D01*
Y481430D01*
X-119840D01*
Y487780D01*
D02*
G37*
G36*
X-83820Y461010D02*
X-91440D01*
Y453390D01*
X-89028D01*
X-83820Y458598D01*
Y461010D01*
D02*
G37*
G36*
X-93980D02*
X-101600D01*
Y458598D01*
X-96392Y453390D01*
X-93980D01*
Y461010D01*
D02*
G37*
G36*
X76500Y460630D02*
X68330D01*
Y439110D01*
X89850D01*
Y447280D01*
X76500Y460630D01*
D02*
G37*
G36*
X65790D02*
X57620D01*
X44270Y447280D01*
Y439110D01*
X65790D01*
Y460630D01*
D02*
G37*
G36*
X-271900Y370840D02*
X-280670D01*
Y362070D01*
X-271900D01*
Y370840D01*
D02*
G37*
G36*
X-283210D02*
X-291980D01*
Y362070D01*
X-283210D01*
Y370840D01*
D02*
G37*
G36*
X416432Y350520D02*
X414020D01*
Y342900D01*
X421640D01*
Y345312D01*
X416432Y350520D01*
D02*
G37*
G36*
X411480D02*
X409068D01*
X403860Y345312D01*
Y342900D01*
X411480D01*
Y350520D01*
D02*
G37*
G36*
X238632D02*
X236220D01*
Y342900D01*
X243840D01*
Y345312D01*
X238632Y350520D01*
D02*
G37*
G36*
X233680D02*
X231268D01*
X226060Y345312D01*
Y342900D01*
X233680D01*
Y350520D01*
D02*
G37*
G36*
X421640Y340360D02*
X414020D01*
Y332740D01*
X416432D01*
X421640Y337948D01*
Y340360D01*
D02*
G37*
G36*
X411480D02*
X403860D01*
Y337948D01*
X409068Y332740D01*
X411480D01*
Y340360D01*
D02*
G37*
G36*
X243840D02*
X236220D01*
Y332740D01*
X238632D01*
X243840Y337948D01*
Y340360D01*
D02*
G37*
G36*
X233680D02*
X226060D01*
Y337948D01*
X231268Y332740D01*
X233680D01*
Y340360D01*
D02*
G37*
G36*
X1311020Y340909D02*
Y329770D01*
X1314935D01*
Y336250D01*
X1313416Y339916D01*
X1311020Y340909D01*
D02*
G37*
G36*
X195330Y335000D02*
X161560D01*
Y316230D01*
X195330D01*
Y335000D01*
D02*
G37*
G36*
X159020D02*
X125250D01*
Y316230D01*
X159020D01*
Y335000D01*
D02*
G37*
G36*
X-635065Y327230D02*
X-638980D01*
Y316091D01*
X-636584Y317084D01*
X-635065Y320750D01*
Y327230D01*
D02*
G37*
G36*
X-1285065D02*
X-1288980D01*
Y316091D01*
X-1286584Y317084D01*
X-1285065Y320750D01*
Y327230D01*
D02*
G37*
G36*
X1314935D02*
X1311020D01*
Y316091D01*
X1313416Y317084D01*
X1314935Y320750D01*
Y327230D01*
D02*
G37*
G36*
X644766Y343790D02*
X642822Y342984D01*
Y342984D01*
X639649Y339811D01*
X637556Y338944D01*
X636440Y336250D01*
Y335139D01*
X630648Y329139D01*
X586756D01*
X586740Y329546D01*
X586678Y329608D01*
X582276Y334010D01*
X575964D01*
X571500Y329546D01*
Y323234D01*
X575964Y318770D01*
X582276D01*
X586673Y323167D01*
X586740Y323234D01*
X586756Y323641D01*
X633550D01*
X636440Y320750D01*
X637556Y318056D01*
X640250Y316940D01*
X640881Y317201D01*
X642944Y318056D01*
X643246Y318056D01*
X644056D01*
X646750Y316940D01*
X649444Y318056D01*
X650556Y318056D01*
X653250Y316940D01*
X655720Y317963D01*
X656084Y317084D01*
X658480Y316092D01*
Y328500D01*
X659750D01*
Y329770D01*
X664935D01*
Y336250D01*
X665876Y337658D01*
X666211Y338160D01*
X667804D01*
X1274919D01*
X1276702Y338160D01*
X1278800Y336062D01*
Y336062D01*
X1278800Y336062D01*
Y336062D01*
X1278800D01*
X1283408Y331454D01*
Y331454D01*
X1283408Y331454D01*
X1286440Y326710D01*
X1286440Y320992D01*
X1286440Y320750D01*
X1287556Y318056D01*
X1290250Y316940D01*
X1290250Y316940D01*
X1290946Y317144D01*
X1293500Y317893D01*
X1296750Y316940D01*
X1296750Y316940D01*
X1299444Y318056D01*
X1300556Y318056D01*
X1303250Y316940D01*
X1306084Y317084D01*
X1308480Y316091D01*
Y328500D01*
Y340909D01*
X1306084Y339916D01*
X1303250Y340060D01*
X1300556Y338944D01*
X1299444D01*
X1296750Y340060D01*
X1296750Y340060D01*
X1293500Y339107D01*
X1290250Y340060D01*
X1290250Y340060D01*
X1287556Y338944D01*
X1281832Y340806D01*
X1279785Y342853D01*
X1277841Y343658D01*
X1277841Y343658D01*
X1274374D01*
X667836D01*
X664462D01*
X662905Y343733D01*
X661734Y343790D01*
X658517Y343789D01*
X644766D01*
X644766Y343790D01*
D02*
G37*
G36*
X664935Y327230D02*
X661020D01*
Y316091D01*
X663416Y317084D01*
X664935Y320750D01*
Y327230D01*
D02*
G37*
G36*
X1353682Y308890D02*
X1351270D01*
Y301270D01*
X1358890D01*
Y303682D01*
X1353682Y308890D01*
D02*
G37*
G36*
X1348730D02*
X1346318D01*
X1341110Y303682D01*
Y301270D01*
X1348730D01*
Y308890D01*
D02*
G37*
G36*
X1203682D02*
X1201270D01*
Y301270D01*
X1208890D01*
Y303682D01*
X1203682Y308890D01*
D02*
G37*
G36*
X1198730D02*
X1196318D01*
X1191110Y303682D01*
Y301270D01*
X1198730D01*
Y308890D01*
D02*
G37*
G36*
X1053682D02*
X1051270D01*
Y301270D01*
X1058890D01*
Y303682D01*
X1053682Y308890D01*
D02*
G37*
G36*
X1048730D02*
X1046318D01*
X1041110Y303682D01*
Y301270D01*
X1048730D01*
Y308890D01*
D02*
G37*
G36*
X903682D02*
X901270D01*
Y301270D01*
X908890D01*
Y303682D01*
X903682Y308890D01*
D02*
G37*
G36*
X898730D02*
X896318D01*
X891110Y303682D01*
Y301270D01*
X898730D01*
Y308890D01*
D02*
G37*
G36*
X753682D02*
X751270D01*
Y301270D01*
X758890D01*
Y303682D01*
X753682Y308890D01*
D02*
G37*
G36*
X748730D02*
X746318D01*
X741110Y303682D01*
Y301270D01*
X748730D01*
Y308890D01*
D02*
G37*
G36*
X195330Y313690D02*
X161560D01*
Y294920D01*
X195330D01*
Y313690D01*
D02*
G37*
G36*
X159020D02*
X125250D01*
Y294920D01*
X159020D01*
Y313690D01*
D02*
G37*
G36*
X1358890Y298730D02*
X1351270D01*
Y291110D01*
X1353682D01*
X1358890Y296318D01*
Y298730D01*
D02*
G37*
G36*
X1348730D02*
X1341110D01*
Y296318D01*
X1346318Y291110D01*
X1348730D01*
Y298730D01*
D02*
G37*
G36*
X1208890D02*
X1201270D01*
Y291110D01*
X1203682D01*
X1208890Y296318D01*
Y298730D01*
D02*
G37*
G36*
X1198730D02*
X1191110D01*
Y296318D01*
X1196318Y291110D01*
X1198730D01*
Y298730D01*
D02*
G37*
G36*
X1058890D02*
X1051270D01*
Y291110D01*
X1053682D01*
X1058890Y296318D01*
Y298730D01*
D02*
G37*
G36*
X1048730D02*
X1041110D01*
Y296318D01*
X1046318Y291110D01*
X1048730D01*
Y298730D01*
D02*
G37*
G36*
X908890D02*
X901270D01*
Y291110D01*
X903682D01*
X908890Y296318D01*
Y298730D01*
D02*
G37*
G36*
X898730D02*
X891110D01*
Y296318D01*
X896318Y291110D01*
X898730D01*
Y298730D01*
D02*
G37*
G36*
X758890D02*
X751270D01*
Y291110D01*
X753682D01*
X758890Y296318D01*
Y298730D01*
D02*
G37*
G36*
X748730D02*
X741110D01*
Y296318D01*
X746318Y291110D01*
X748730D01*
Y298730D01*
D02*
G37*
G36*
X-756478Y282920D02*
X-758890D01*
Y275300D01*
X-751270D01*
Y277712D01*
X-756478Y282920D01*
D02*
G37*
G36*
X-761430D02*
X-763842D01*
X-769050Y277712D01*
Y275300D01*
X-761430D01*
Y282920D01*
D02*
G37*
G36*
X-906478D02*
X-908890D01*
Y275300D01*
X-901270D01*
Y277712D01*
X-906478Y282920D01*
D02*
G37*
G36*
X-911430D02*
X-913842D01*
X-919050Y277712D01*
Y275300D01*
X-911430D01*
Y282920D01*
D02*
G37*
G36*
X-1056478D02*
X-1058890D01*
Y275300D01*
X-1051270D01*
Y277712D01*
X-1056478Y282920D01*
D02*
G37*
G36*
X-1061430D02*
X-1063842D01*
X-1069050Y277712D01*
Y275300D01*
X-1061430D01*
Y282920D01*
D02*
G37*
G36*
X-1206478D02*
X-1208890D01*
Y275300D01*
X-1201270D01*
Y277712D01*
X-1206478Y282920D01*
D02*
G37*
G36*
X-1211430D02*
X-1213842D01*
X-1219050Y277712D01*
Y275300D01*
X-1211430D01*
Y282920D01*
D02*
G37*
G36*
X-1356478D02*
X-1358890D01*
Y275300D01*
X-1351270D01*
Y277712D01*
X-1356478Y282920D01*
D02*
G37*
G36*
X-1361430D02*
X-1363842D01*
X-1369050Y277712D01*
Y275300D01*
X-1361430D01*
Y282920D01*
D02*
G37*
G36*
X-751270Y272760D02*
X-758890D01*
Y265140D01*
X-756478D01*
X-751270Y270347D01*
Y272760D01*
D02*
G37*
G36*
X-761430D02*
X-769050D01*
Y270347D01*
X-763842Y265140D01*
X-761430D01*
Y272760D01*
D02*
G37*
G36*
X-901270D02*
X-908890D01*
Y265140D01*
X-906478D01*
X-901270Y270347D01*
Y272760D01*
D02*
G37*
G36*
X-911430D02*
X-919050D01*
Y270347D01*
X-913842Y265140D01*
X-911430D01*
Y272760D01*
D02*
G37*
G36*
X-1051270D02*
X-1058890D01*
Y265140D01*
X-1056478D01*
X-1051270Y270347D01*
Y272760D01*
D02*
G37*
G36*
X-1061430D02*
X-1069050D01*
Y270347D01*
X-1063842Y265140D01*
X-1061430D01*
Y272760D01*
D02*
G37*
G36*
X-1201270D02*
X-1208890D01*
Y265140D01*
X-1206478D01*
X-1201270Y270347D01*
Y272760D01*
D02*
G37*
G36*
X-1211430D02*
X-1219050D01*
Y270347D01*
X-1213842Y265140D01*
X-1211430D01*
Y272760D01*
D02*
G37*
G36*
X-1351270D02*
X-1358890D01*
Y265140D01*
X-1356478D01*
X-1351270Y270347D01*
Y272760D01*
D02*
G37*
G36*
X-1361430D02*
X-1369050D01*
Y270347D01*
X-1363842Y265140D01*
X-1361430D01*
Y272760D01*
D02*
G37*
G36*
X-212218Y260350D02*
X-214630D01*
Y252730D01*
X-207010D01*
Y255142D01*
X-212218Y260350D01*
D02*
G37*
G36*
X-217170D02*
X-219582D01*
X-224790Y255142D01*
Y252730D01*
X-217170D01*
Y260350D01*
D02*
G37*
G36*
X-267300Y254130D02*
X-278730D01*
Y245240D01*
X-267300D01*
Y254130D01*
D02*
G37*
G36*
X-281270D02*
X-292700D01*
Y245240D01*
X-281270D01*
Y254130D01*
D02*
G37*
G36*
X-207010Y250190D02*
X-214630D01*
Y242570D01*
X-212218D01*
X-207010Y247778D01*
Y250190D01*
D02*
G37*
G36*
X-217170D02*
X-224790D01*
Y247778D01*
X-219582Y242570D01*
X-217170D01*
Y250190D01*
D02*
G37*
G36*
X288730Y242700D02*
X277300D01*
Y233810D01*
X288730D01*
Y242700D01*
D02*
G37*
G36*
X-267300D02*
X-278730D01*
Y233810D01*
X-267300D01*
Y242700D01*
D02*
G37*
G36*
X-281270D02*
X-292700D01*
Y233810D01*
X-281270D01*
Y242700D01*
D02*
G37*
G36*
X-175914Y264160D02*
X-182226D01*
X-186690Y259696D01*
Y253384D01*
X-183430Y250123D01*
X-182548Y246502D01*
X-182984Y243234D01*
X-245474Y180744D01*
X-246498Y178270D01*
X-256270D01*
X-256270Y166730D01*
X-256270Y160730D01*
X-256270Y154030D01*
X-256270Y148030D01*
X-256270Y141330D01*
X-256270Y135330D01*
X-256270Y128630D01*
X-260538Y124449D01*
X-263366Y124449D01*
X-264718Y125802D01*
X-297802Y158886D01*
X-298398Y159482D01*
X-299975Y161102D01*
X-293377Y167699D01*
X-293377Y167699D01*
X-291655Y169422D01*
X-278056Y183021D01*
X-278056Y183021D01*
X-277251Y184965D01*
X-277251D01*
Y207140D01*
X-276749Y207140D01*
X-268570D01*
Y224920D01*
X-291430D01*
Y207140D01*
X-282749D01*
X-282749Y186104D01*
X-296248Y172604D01*
X-296901Y172661D01*
X-302983Y173184D01*
X-306167Y174503D01*
X-306763D01*
Y199468D01*
X-306763Y199468D01*
X-307974Y202392D01*
X-318570Y212987D01*
Y224920D01*
X-341430D01*
Y211720D01*
X-341745Y210960D01*
Y210133D01*
X-369553Y182324D01*
X-370052Y181120D01*
X-403350D01*
Y168080D01*
X-362810D01*
Y176540D01*
X-362495Y177300D01*
Y177687D01*
X-334686Y205496D01*
X-334686Y205496D01*
X-334005Y207140D01*
X-324417D01*
X-315033Y197756D01*
Y185645D01*
X-320211Y183660D01*
Y183660D01*
X-337993D01*
Y175340D01*
X-336093D01*
X-334841Y175102D01*
X-333426Y172377D01*
X-333502Y171263D01*
X-336313Y165350D01*
X-337989Y164656D01*
X-339184Y161770D01*
X-329102D01*
Y160500D01*
X-327832D01*
Y154623D01*
X-324370D01*
X-320215Y156344D01*
X-314593Y158331D01*
X-310623D01*
X-304741Y158048D01*
X-301500Y154808D01*
X-269277Y122585D01*
X-266448Y119756D01*
X-266448Y119756D01*
X-264504Y118951D01*
X-259091Y117534D01*
X-256270Y114770D01*
X-256270Y109930D01*
X-256270Y103230D01*
X-256270Y97230D01*
Y95122D01*
X-262254Y92620D01*
X-262270Y92620D01*
X-268566D01*
X-273030Y88156D01*
Y81844D01*
X-269443Y78257D01*
X-268937Y75000D01*
X-269443Y71743D01*
X-273030Y68156D01*
Y61844D01*
X-269443Y58257D01*
X-268937Y55000D01*
X-269443Y51743D01*
X-273030Y48156D01*
Y41844D01*
X-269449Y38263D01*
X-268947Y34977D01*
X-269457Y31749D01*
X-273050Y28156D01*
Y21844D01*
X-268586Y17380D01*
X-262322D01*
X-262106Y17247D01*
X-257540Y13628D01*
Y8670D01*
X-247500D01*
X-237460D01*
Y14440D01*
X-238730D01*
Y25870D01*
X-238730D01*
Y27030D01*
X-238730D01*
X-238730Y38570D01*
X-238730Y44570D01*
X-238730Y51270D01*
X-238730Y57270D01*
X-238730Y63970D01*
X-238730Y69970D01*
X-238730Y76670D01*
X-238730D01*
Y77830D01*
X-238730D01*
X-238730Y89370D01*
X-238730Y95370D01*
X-238730Y102070D01*
X-238730Y108070D01*
X-238730Y114770D01*
X-238730Y120770D01*
X-238730Y127470D01*
X-238730Y133470D01*
X-238730Y140170D01*
X-238730Y146170D01*
X-238730Y152870D01*
X-238730Y158870D01*
X-238730Y165570D01*
X-238730Y173690D01*
X-238415Y174450D01*
Y176107D01*
X-228463Y186059D01*
X-222920Y183763D01*
Y176230D01*
X-216220D01*
X-211380Y176230D01*
Y176230D01*
X-210220D01*
Y176230D01*
X-198680Y176230D01*
X-192680Y176230D01*
X-185980Y176230D01*
X-179980Y176230D01*
X-173280Y176230D01*
X-167280Y176230D01*
X-160580Y176230D01*
X-154580Y176230D01*
X-147880Y176230D01*
X-141880Y176230D01*
X-135180Y176230D01*
X-129180Y176230D01*
X-122480Y176230D01*
X-116480Y176230D01*
X-109890D01*
Y174960D01*
X-104120D01*
Y185000D01*
X-101580D01*
Y174960D01*
X-97395D01*
Y31030D01*
X-96184Y28107D01*
X-87204Y19127D01*
X-86458Y18817D01*
X-82540Y14440D01*
Y8670D01*
X-72500D01*
X-62460D01*
Y12305D01*
X-57150Y13970D01*
X-56655Y13970D01*
X-39370D01*
Y16185D01*
X-33020D01*
Y13970D01*
X-15240D01*
Y16185D01*
X2540D01*
Y13970D01*
X20320D01*
Y16185D01*
X34820D01*
X37744Y17396D01*
X43108Y22760D01*
X61800D01*
X61800Y33300D01*
X61800Y39300D01*
Y44700D01*
X37260D01*
X37260Y34160D01*
X36944Y28291D01*
X33108Y24455D01*
X20320D01*
Y26670D01*
X2540D01*
Y24455D01*
X-15240D01*
Y26670D01*
X-33020D01*
Y24455D01*
X-39370D01*
Y26670D01*
X-55337D01*
X-59031Y29603D01*
X-59494Y32683D01*
X-58420Y33020D01*
X-57730Y33020D01*
X-49530D01*
Y40640D01*
Y48260D01*
X-57730D01*
X-58420Y48260D01*
X-58913Y48415D01*
X-63730Y51270D01*
Y52430D01*
X-63730D01*
Y63970D01*
X-63730D01*
Y65130D01*
X-63730D01*
Y76670D01*
X-63730D01*
Y77830D01*
X-63730D01*
Y89370D01*
X-63730D01*
Y90530D01*
X-63730D01*
Y102070D01*
X-63730D01*
Y103230D01*
X-63730D01*
Y114770D01*
X-63730D01*
Y115930D01*
X-63730D01*
Y127470D01*
X-63730D01*
Y128630D01*
X-63730D01*
Y140170D01*
X-63730D01*
Y141330D01*
X-63730D01*
Y151508D01*
X-63212Y153752D01*
X-60894Y157695D01*
X-60506Y157856D01*
X-59471Y158891D01*
X-33816Y184546D01*
X-32346Y186016D01*
X-31541Y187960D01*
X-31541Y187960D01*
Y200644D01*
X-31134Y200660D01*
X-31067Y200727D01*
X-26670Y205124D01*
Y211436D01*
X-31134Y215900D01*
X-37352D01*
X-37446Y215900D01*
X-37745Y215623D01*
X-43923Y221801D01*
X-48387Y226265D01*
X-75430Y253308D01*
X-76796Y254674D01*
X-78740Y255479D01*
X-78740Y255479D01*
X-80653D01*
X-171372D01*
X-171450Y255557D01*
Y259696D01*
X-175914Y264160D01*
D02*
G37*
G36*
X309628Y166377D02*
X306167D01*
X302011Y164656D01*
X300816Y161770D01*
X309628D01*
Y166377D01*
D02*
G37*
G36*
Y159230D02*
X300816D01*
X302011Y156344D01*
X306167Y154623D01*
X309628D01*
Y159230D01*
D02*
G37*
G36*
X-330372D02*
X-339184D01*
X-337989Y156344D01*
X-333833Y154623D01*
X-330372D01*
Y159230D01*
D02*
G37*
G36*
X29082Y148590D02*
X26670D01*
Y140970D01*
X34290D01*
Y143382D01*
X29082Y148590D01*
D02*
G37*
G36*
X24130D02*
X21718D01*
X16510Y143382D01*
Y140970D01*
X24130D01*
Y148590D01*
D02*
G37*
G36*
X34290Y138430D02*
X26670D01*
Y130810D01*
X29082D01*
X34290Y136018D01*
Y138430D01*
D02*
G37*
G36*
X24130D02*
X16510D01*
Y136018D01*
X21718Y130810D01*
X24130D01*
Y138430D01*
D02*
G37*
G36*
X-123960Y105640D02*
X-129730D01*
Y99870D01*
X-123960D01*
Y105640D01*
D02*
G37*
G36*
X-160270D02*
X-166040D01*
Y99870D01*
X-160270D01*
Y105640D01*
D02*
G37*
G36*
X-132270D02*
X-143730D01*
Y98600D01*
X-146270D01*
Y105640D01*
X-157730D01*
Y98600D01*
X-159000D01*
Y97330D01*
X-166040D01*
Y91560D01*
Y85870D01*
X-159000D01*
Y83330D01*
X-166040D01*
Y77560D01*
Y71870D01*
X-159000D01*
Y70600D01*
X-157730D01*
Y63560D01*
X-146270D01*
Y70600D01*
X-143730D01*
Y63560D01*
X-132270D01*
Y70600D01*
X-131000D01*
Y71870D01*
X-123960D01*
Y77560D01*
Y83330D01*
X-131000D01*
Y85870D01*
X-123960D01*
Y91560D01*
Y97330D01*
X-131000D01*
Y98600D01*
X-132270D01*
Y105640D01*
D02*
G37*
G36*
X21590Y100330D02*
X12700D01*
Y93980D01*
X21590D01*
Y100330D01*
D02*
G37*
G36*
X222700Y96190D02*
X211270D01*
Y87300D01*
X222700D01*
Y96190D01*
D02*
G37*
G36*
Y84760D02*
X211270D01*
Y75870D01*
X222700D01*
Y84760D01*
D02*
G37*
G36*
X208730D02*
X197300D01*
Y75870D01*
X208730D01*
Y84760D01*
D02*
G37*
G36*
X-123960Y69330D02*
X-129730D01*
Y63560D01*
X-123960D01*
Y69330D01*
D02*
G37*
G36*
X-160270D02*
X-166040D01*
Y63560D01*
X-160270D01*
Y69330D01*
D02*
G37*
G36*
X398652Y68580D02*
X396240D01*
Y60960D01*
X403860D01*
Y63372D01*
X398652Y68580D01*
D02*
G37*
G36*
X393700D02*
X391288D01*
X386080Y63372D01*
Y60960D01*
X393700D01*
Y68580D01*
D02*
G37*
G36*
X283082Y67310D02*
X280670D01*
Y59690D01*
X288290D01*
Y62102D01*
X283082Y67310D01*
D02*
G37*
G36*
X278130D02*
X275718D01*
X270510Y62102D01*
Y59690D01*
X278130D01*
Y67310D01*
D02*
G37*
G36*
X1353682Y58890D02*
X1351270D01*
Y51270D01*
X1358890D01*
Y53682D01*
X1353682Y58890D01*
D02*
G37*
G36*
X1348730D02*
X1346318D01*
X1341110Y53682D01*
Y51270D01*
X1348730D01*
Y58890D01*
D02*
G37*
G36*
X1203682D02*
X1201270D01*
Y51270D01*
X1208890D01*
Y53682D01*
X1203682Y58890D01*
D02*
G37*
G36*
X1198730D02*
X1196318D01*
X1191110Y53682D01*
Y51270D01*
X1198730D01*
Y58890D01*
D02*
G37*
G36*
X1053682D02*
X1051270D01*
Y51270D01*
X1058890D01*
Y53682D01*
X1053682Y58890D01*
D02*
G37*
G36*
X1048730D02*
X1046318D01*
X1041110Y53682D01*
Y51270D01*
X1048730D01*
Y58890D01*
D02*
G37*
G36*
X903682D02*
X901270D01*
Y51270D01*
X908890D01*
Y53682D01*
X903682Y58890D01*
D02*
G37*
G36*
X898730D02*
X896318D01*
X891110Y53682D01*
Y51270D01*
X898730D01*
Y58890D01*
D02*
G37*
G36*
X753682D02*
X751270D01*
Y51270D01*
X758890D01*
Y53682D01*
X753682Y58890D01*
D02*
G37*
G36*
X748730D02*
X746318D01*
X741110Y53682D01*
Y51270D01*
X748730D01*
Y58890D01*
D02*
G37*
G36*
X403860Y58420D02*
X396240D01*
Y50800D01*
X398652D01*
X403860Y56008D01*
Y58420D01*
D02*
G37*
G36*
X393700D02*
X386080D01*
Y56008D01*
X391288Y50800D01*
X393700D01*
Y58420D01*
D02*
G37*
G36*
X288290Y57150D02*
X280670D01*
Y49530D01*
X283082D01*
X288290Y54738D01*
Y57150D01*
D02*
G37*
G36*
X278130D02*
X270510D01*
Y54738D01*
X275718Y49530D01*
X278130D01*
Y57150D01*
D02*
G37*
G36*
X-38100Y48260D02*
X-40290Y48260D01*
X-46990D01*
Y40640D01*
Y33020D01*
X-40290D01*
X-34290Y33020D01*
X-32100Y33020D01*
X-25400D01*
Y40640D01*
Y48260D01*
X-32100D01*
X-38100Y48260D01*
D02*
G37*
G36*
X678233Y48770D02*
X670967D01*
X666332Y44135D01*
X608770D01*
Y48770D01*
X591230D01*
Y31230D01*
X608770D01*
Y35865D01*
X666332D01*
X670967Y31230D01*
X678233D01*
X683370Y36367D01*
Y43633D01*
X678233Y48770D01*
D02*
G37*
G36*
X-591230D02*
X-608770D01*
Y44135D01*
X-666332D01*
X-670967Y48770D01*
X-678233D01*
X-683370Y43633D01*
Y36367D01*
X-678233Y31230D01*
X-670967D01*
X-666332Y35865D01*
X-608770D01*
Y31230D01*
X-591230D01*
Y48770D01*
D02*
G37*
G36*
X21590Y48260D02*
X12700D01*
Y41910D01*
X21590D01*
Y48260D01*
D02*
G37*
G36*
X-22860D02*
Y41910D01*
X-13970D01*
Y48260D01*
X-22860D01*
D02*
G37*
G36*
X10160D02*
X1270D01*
Y41910D01*
X10160D01*
Y48260D01*
D02*
G37*
G36*
X710040Y50040D02*
X701270D01*
Y41270D01*
X710040D01*
Y50040D01*
D02*
G37*
G36*
X-689960D02*
X-698730D01*
Y41270D01*
X-689960D01*
Y50040D01*
D02*
G37*
G36*
X-701270D02*
X-710040D01*
Y41270D01*
X-701270D01*
Y50040D01*
D02*
G37*
G36*
X698730D02*
X689960D01*
Y41270D01*
X698730D01*
Y50040D01*
D02*
G37*
G36*
X1358890Y48730D02*
X1351270D01*
Y41110D01*
X1353682D01*
X1358890Y46318D01*
Y48730D01*
D02*
G37*
G36*
X1348730D02*
X1341110D01*
Y46318D01*
X1346318Y41110D01*
X1348730D01*
Y48730D01*
D02*
G37*
G36*
X1208890D02*
X1201270D01*
Y41110D01*
X1203682D01*
X1208890Y46318D01*
Y48730D01*
D02*
G37*
G36*
X1198730D02*
X1191110D01*
Y46318D01*
X1196318Y41110D01*
X1198730D01*
Y48730D01*
D02*
G37*
G36*
X1058890D02*
X1051270D01*
Y41110D01*
X1053682D01*
X1058890Y46318D01*
Y48730D01*
D02*
G37*
G36*
X1048730D02*
X1041110D01*
Y46318D01*
X1046318Y41110D01*
X1048730D01*
Y48730D01*
D02*
G37*
G36*
X908890D02*
X901270D01*
Y41110D01*
X903682D01*
X908890Y46318D01*
Y48730D01*
D02*
G37*
G36*
X898730D02*
X891110D01*
Y46318D01*
X896318Y41110D01*
X898730D01*
Y48730D01*
D02*
G37*
G36*
X758890D02*
X751270D01*
Y41110D01*
X753682D01*
X758890Y46318D01*
Y48730D01*
D02*
G37*
G36*
X748730D02*
X741110D01*
Y46318D01*
X746318Y41110D01*
X748730D01*
Y48730D01*
D02*
G37*
G36*
X21590Y39370D02*
X12700D01*
Y33020D01*
X21590D01*
Y39370D01*
D02*
G37*
G36*
X10160D02*
X1270D01*
Y33020D01*
X10160D01*
Y39370D01*
D02*
G37*
G36*
X-13970D02*
X-22860D01*
Y33020D01*
X-13970D01*
Y39370D01*
D02*
G37*
G36*
X-747588Y40160D02*
X-750000D01*
Y32540D01*
X-742380D01*
Y34952D01*
X-747588Y40160D01*
D02*
G37*
G36*
X-752540D02*
X-754952D01*
X-760160Y34952D01*
Y32540D01*
X-752540D01*
Y40160D01*
D02*
G37*
G36*
X-897588D02*
X-900000D01*
Y32540D01*
X-892380D01*
Y34952D01*
X-897588Y40160D01*
D02*
G37*
G36*
X-902540D02*
X-904952D01*
X-910160Y34952D01*
Y32540D01*
X-902540D01*
Y40160D01*
D02*
G37*
G36*
X-1047588D02*
X-1050000D01*
Y32540D01*
X-1042380D01*
Y34952D01*
X-1047588Y40160D01*
D02*
G37*
G36*
X-1052540D02*
X-1054952D01*
X-1060160Y34952D01*
Y32540D01*
X-1052540D01*
Y40160D01*
D02*
G37*
G36*
X-1197588D02*
X-1200000D01*
Y32540D01*
X-1192380D01*
Y34952D01*
X-1197588Y40160D01*
D02*
G37*
G36*
X-1202540D02*
X-1204952D01*
X-1210160Y34952D01*
Y32540D01*
X-1202540D01*
Y40160D01*
D02*
G37*
G36*
X-1347588D02*
X-1350000D01*
Y32540D01*
X-1342380D01*
Y34952D01*
X-1347588Y40160D01*
D02*
G37*
G36*
X-1352540D02*
X-1354952D01*
X-1360160Y34952D01*
Y32540D01*
X-1352540D01*
Y40160D01*
D02*
G37*
G36*
X531590Y254620D02*
X434550D01*
Y145380D01*
X478935D01*
Y131530D01*
X480146Y128606D01*
X565830Y42923D01*
Y36367D01*
X570967Y31230D01*
X578232D01*
X583370Y36367D01*
Y43633D01*
X578232Y48770D01*
X571677D01*
X487205Y133243D01*
Y145380D01*
X531590D01*
Y254620D01*
D02*
G37*
G36*
X-434550D02*
X-531590D01*
Y145380D01*
X-487205D01*
Y133243D01*
X-571677Y48770D01*
X-578232D01*
X-583370Y43633D01*
Y36367D01*
X-578232Y31230D01*
X-570967D01*
X-565830Y36367D01*
Y42923D01*
X-480146Y128606D01*
X-478935Y131530D01*
Y145380D01*
X-434550D01*
Y254620D01*
D02*
G37*
G36*
X710040Y38730D02*
X701270D01*
Y29960D01*
X710040D01*
Y38730D01*
D02*
G37*
G36*
X698730D02*
X689960D01*
Y29960D01*
X698730D01*
Y38730D01*
D02*
G37*
G36*
X-689960D02*
X-698730D01*
Y29960D01*
X-689960D01*
Y38730D01*
D02*
G37*
G36*
X-701270D02*
X-710040D01*
Y29960D01*
X-701270D01*
Y38730D01*
D02*
G37*
G36*
X-742380Y30000D02*
X-750000D01*
Y22380D01*
X-747588D01*
X-742380Y27587D01*
Y30000D01*
D02*
G37*
G36*
X-752540D02*
X-760160D01*
Y27587D01*
X-754952Y22380D01*
X-752540D01*
Y30000D01*
D02*
G37*
G36*
X-892380D02*
X-900000D01*
Y22380D01*
X-897588D01*
X-892380Y27587D01*
Y30000D01*
D02*
G37*
G36*
X-902540D02*
X-910160D01*
Y27587D01*
X-904952Y22380D01*
X-902540D01*
Y30000D01*
D02*
G37*
G36*
X-1042380D02*
X-1050000D01*
Y22380D01*
X-1047588D01*
X-1042380Y27587D01*
Y30000D01*
D02*
G37*
G36*
X-1052540D02*
X-1060160D01*
Y27587D01*
X-1054952Y22380D01*
X-1052540D01*
Y30000D01*
D02*
G37*
G36*
X-1192380D02*
X-1200000D01*
Y22380D01*
X-1197588D01*
X-1192380Y27587D01*
Y30000D01*
D02*
G37*
G36*
X-1202540D02*
X-1210160D01*
Y27587D01*
X-1204952Y22380D01*
X-1202540D01*
Y30000D01*
D02*
G37*
G36*
X-1342380D02*
X-1350000D01*
Y22380D01*
X-1347588D01*
X-1342380Y27587D01*
Y30000D01*
D02*
G37*
G36*
X-1352540D02*
X-1360160D01*
Y27587D01*
X-1354952Y22380D01*
X-1352540D01*
Y30000D01*
D02*
G37*
G36*
X147070Y49560D02*
X113800D01*
Y19290D01*
X147070D01*
Y49560D01*
D02*
G37*
G36*
X111260D02*
X77990D01*
Y19290D01*
X111260D01*
Y49560D01*
D02*
G37*
%LPD*%
G36*
X-159735Y413029D02*
X-155753D01*
X-153489Y413966D01*
X-148104Y414655D01*
X-146526Y414695D01*
X-145516Y414695D01*
X-139371D01*
X-138721Y414426D01*
X-137392D01*
Y413097D01*
X-136355Y410594D01*
X-128098Y402337D01*
X-125595Y401301D01*
X-108890D01*
Y398490D01*
X-91110D01*
Y401895D01*
X-81430D01*
Y397140D01*
X-60155D01*
Y387122D01*
X-64417Y382860D01*
X-81430D01*
Y365080D01*
X-58570D01*
Y377012D01*
X-53096Y382486D01*
X-53096Y382486D01*
X-51885Y385410D01*
X-46340Y384312D01*
Y373410D01*
X-45505D01*
Y366743D01*
X-53963Y358284D01*
X-58570Y354920D01*
X-81430D01*
Y340107D01*
X-131652Y289885D01*
X-193229D01*
X-194989Y295885D01*
X-191770Y299104D01*
Y305416D01*
X-196167Y309813D01*
X-196234Y309880D01*
X-196641Y309896D01*
Y325120D01*
X-188570D01*
Y334191D01*
X-184150Y337611D01*
X-182206Y338416D01*
X-169506Y351116D01*
X-169506Y351116D01*
X-168701Y353060D01*
X-168701Y353060D01*
Y411395D01*
X-166256Y413029D01*
X-162275D01*
Y418240D01*
X-159735D01*
Y413029D01*
D02*
G37*
G36*
X142750Y171270D02*
X149290D01*
Y168730D01*
X142750D01*
Y164710D01*
X144020Y159236D01*
Y156480D01*
X149013D01*
X149290Y156365D01*
X157960D01*
X160884Y157576D01*
X162020Y158713D01*
X168020Y156480D01*
X169155Y150845D01*
Y122860D01*
X161290D01*
Y111257D01*
X145678Y95646D01*
X80081D01*
X80081Y95646D01*
X77157Y94435D01*
X69466Y86744D01*
X68255Y83820D01*
Y78683D01*
X67800Y78379D01*
X61800Y78900D01*
Y78900D01*
X53665D01*
Y134328D01*
X92570Y173233D01*
X98570Y170748D01*
Y157140D01*
X105865D01*
Y136040D01*
X101270D01*
Y129500D01*
Y122960D01*
X107040D01*
Y122960D01*
X112352Y121300D01*
X114230Y119423D01*
Y114730D01*
X125770D01*
Y125270D01*
X120078D01*
X114135Y131213D01*
Y157140D01*
X121430D01*
Y167959D01*
X121954Y168176D01*
X128942Y175165D01*
X142750D01*
Y171270D01*
D02*
G37*
%LPC*%
G36*
X-129668Y358140D02*
X-132080D01*
Y350520D01*
X-124460D01*
Y352932D01*
X-129668Y358140D01*
D02*
G37*
G36*
X-134620D02*
X-137032D01*
X-142240Y352932D01*
Y350520D01*
X-134620D01*
Y358140D01*
D02*
G37*
G36*
X-124460Y347980D02*
X-132080D01*
Y340360D01*
X-129668D01*
X-124460Y345568D01*
Y347980D01*
D02*
G37*
G36*
X-134620D02*
X-142240D01*
Y345568D01*
X-137032Y340360D01*
X-134620D01*
Y347980D01*
D02*
G37*
G36*
X154812Y148590D02*
X152400D01*
Y140970D01*
X160020D01*
Y143382D01*
X154812Y148590D01*
D02*
G37*
G36*
X149860D02*
X147448D01*
X142240Y143382D01*
Y140970D01*
X149860D01*
Y148590D01*
D02*
G37*
G36*
X160020Y138430D02*
X152400D01*
Y130810D01*
X154812D01*
X160020Y136018D01*
Y138430D01*
D02*
G37*
G36*
X149860D02*
X142240D01*
Y136018D01*
X147448Y130810D01*
X149860D01*
Y138430D01*
D02*
G37*
G36*
X98730Y136040D02*
X92960D01*
Y130770D01*
X98730D01*
Y136040D01*
D02*
G37*
G36*
Y128230D02*
X92960D01*
Y122960D01*
X98730D01*
Y128230D01*
D02*
G37*
G36*
X105770Y115770D02*
X94230D01*
Y105230D01*
X105770D01*
Y115770D01*
D02*
G37*
%LPD*%
D13*
X-151130Y441960D02*
X-149061Y439891D01*
Y435746D02*
Y439891D01*
Y435746D02*
X-144556Y431240D01*
X-144555D02*
X-138995D01*
X-144556D02*
X-144555D01*
X-138855Y431380D02*
X-125730D01*
X-138995Y431240D02*
X-138855Y431380D01*
X-161005Y424740D02*
X-160620Y425124D01*
X-150671D01*
X-144555Y431240D01*
X277700Y179500D02*
X310898D01*
X298890Y207140D02*
X310898Y195132D01*
X661866Y340909D02*
X1277841D01*
X640250Y327295D02*
Y336524D01*
X661734Y341040D02*
X661866Y340909D01*
X1277841D02*
X1290250Y328500D01*
X640250Y336524D02*
X644766Y341040D01*
X661734D01*
X-342542Y334390D02*
X-334228D01*
X-349192Y341040D02*
X-342542Y334390D01*
X-332740Y313930D02*
Y332902D01*
X-334228Y334390D02*
X-332740Y332902D01*
X-659750Y336524D02*
X-655234Y341040D01*
X-659750Y328500D02*
Y336524D01*
X-655234Y341040D02*
X-349192D01*
X-1309750Y328500D02*
Y336524D01*
X-1304644Y341630D02*
X-672879D01*
X-1309750Y336524D02*
X-1304644Y341630D01*
X-672879D02*
X-659750Y328500D01*
X-161005Y418240D02*
Y424740D01*
X-62450Y159800D02*
X-34290Y187960D01*
Y208280D01*
X-72500Y159800D02*
X-62450D01*
X-159000Y84600D02*
X-145000D01*
Y98600D01*
Y84600D02*
X-131000D01*
X-145000Y70600D02*
Y84600D01*
X-175260Y429758D02*
X-167662Y437356D01*
X-186690Y344170D02*
X-175260Y355600D01*
Y429758D01*
X-171450Y353060D02*
Y426355D01*
X-184150Y340360D02*
X-171450Y353060D01*
Y426355D02*
X-166565Y431240D01*
X-161005D01*
X-265410Y45000D02*
X-264910Y45500D01*
X-247500D01*
X-267154Y26025D02*
X-257167D01*
X-253730Y29462D02*
Y29570D01*
X-257167Y26025D02*
X-253730Y29462D01*
X-268179Y25000D02*
X-267154Y26025D01*
X-253730Y29570D02*
X-250500Y32800D01*
X-247500D01*
X-248962Y59661D02*
X-247500Y58200D01*
X-257322Y59661D02*
X-248962D01*
X-262661Y65000D02*
X-257322Y59661D01*
X-265410Y65000D02*
X-262661D01*
X-253800Y74130D02*
X-250730D01*
X-247500Y70900D01*
X-264670Y85000D02*
X-253800Y74130D01*
X-265410Y85000D02*
X-264670D01*
X-193650Y340360D02*
X-184150D01*
X-217300Y344170D02*
X-186690D01*
X-227460Y334010D02*
X-217300Y344170D01*
X-176321Y256540D02*
X-172511Y252730D01*
X-78740D02*
X-34290Y208280D01*
X-179070Y256540D02*
X-176321D01*
X-172511Y252730D02*
X-78740D01*
X-176530Y228620D02*
X-69870D01*
X-217150Y182000D02*
Y185000D01*
X-69870Y228620D02*
X-55880Y214630D01*
X-217150Y188000D02*
X-176530Y228620D01*
X-200000Y334010D02*
X-193650Y340360D01*
X-200000Y334010D02*
X-199390Y333400D01*
Y302260D02*
Y333400D01*
X-230000Y334010D02*
X-228600Y332610D01*
Y302260D02*
Y332610D01*
X-167662Y437356D02*
X-161389D01*
X-161005Y437740D01*
X-217150Y185000D02*
Y188000D01*
X639345Y326390D02*
X640250Y327295D01*
X579120Y326390D02*
X639345D01*
X-280000Y184965D02*
Y216030D01*
X-303885Y161080D02*
X-280000Y184965D01*
X-307340Y315549D02*
Y372110D01*
X-331120Y315549D02*
X-307340D01*
X310898Y179500D02*
Y195132D01*
X290000Y216030D02*
X292540D01*
X298890Y209680D01*
Y207140D02*
Y209680D01*
X-332740Y313930D02*
X-331120Y315549D01*
X-303885Y161080D02*
X-264504Y121700D01*
X-247500D01*
X-327800Y174288D02*
Y178198D01*
Y174288D02*
X-314593Y161080D01*
X-329102Y179500D02*
X-327800Y178198D01*
X-314593Y161080D02*
X-303885D01*
D18*
X383080Y225400D02*
D03*
Y174600D02*
D03*
X-383080Y225400D02*
D03*
Y174600D02*
D03*
D19*
X483070Y200000D02*
D03*
X-483070D02*
D03*
D20*
X-26670Y382930D02*
D03*
Y440030D02*
D03*
D21*
X223970Y160000D02*
D03*
X196030D02*
D03*
D22*
X172720Y113970D02*
D03*
Y86030D02*
D03*
X-280000Y243970D02*
D03*
Y216030D02*
D03*
X-70000Y373970D02*
D03*
Y346030D02*
D03*
X-230000Y334010D02*
D03*
Y361950D02*
D03*
X-200000Y334010D02*
D03*
Y361950D02*
D03*
X-70000Y433970D02*
D03*
Y406030D02*
D03*
X-330000Y243970D02*
D03*
Y216030D02*
D03*
X-165100Y508000D02*
D03*
Y535940D02*
D03*
X-88900Y508000D02*
D03*
Y535940D02*
D03*
X330000Y243970D02*
D03*
Y216030D02*
D03*
X290000D02*
D03*
Y243970D02*
D03*
X110000Y193970D02*
D03*
Y166030D02*
D03*
X-25400Y119380D02*
D03*
Y91440D02*
D03*
X210000Y113970D02*
D03*
Y86030D02*
D03*
D23*
X-159000Y70600D02*
D03*
Y84600D02*
D03*
Y98600D02*
D03*
X-131000D02*
D03*
Y84600D02*
D03*
Y70600D02*
D03*
X-145000Y98600D02*
D03*
Y84600D02*
D03*
Y70600D02*
D03*
D24*
X-247500Y7400D02*
D03*
Y20100D02*
D03*
Y32800D02*
D03*
Y45500D02*
D03*
Y58200D02*
D03*
Y70900D02*
D03*
Y83600D02*
D03*
Y96300D02*
D03*
Y109000D02*
D03*
Y121700D02*
D03*
Y134400D02*
D03*
Y147100D02*
D03*
Y159800D02*
D03*
Y172500D02*
D03*
X-72500D02*
D03*
Y159800D02*
D03*
Y147100D02*
D03*
Y134400D02*
D03*
Y121700D02*
D03*
Y109000D02*
D03*
Y96300D02*
D03*
Y83600D02*
D03*
Y70900D02*
D03*
Y58200D02*
D03*
Y45500D02*
D03*
Y32800D02*
D03*
Y20100D02*
D03*
Y7400D02*
D03*
D25*
X-217150Y185000D02*
D03*
X-204450D02*
D03*
X-191750D02*
D03*
X-179050D02*
D03*
X-166350D02*
D03*
X-153650D02*
D03*
X-140950D02*
D03*
X-128250D02*
D03*
X-115550D02*
D03*
X-102850D02*
D03*
D26*
X-130000Y480160D02*
D03*
Y459840D02*
D03*
X-100000Y404840D02*
D03*
Y425160D02*
D03*
X-62230Y524510D02*
D03*
Y504190D02*
D03*
X11430Y92710D02*
D03*
Y72390D02*
D03*
Y40640D02*
D03*
Y20320D02*
D03*
X-24130Y40640D02*
D03*
Y20320D02*
D03*
X-48260Y40640D02*
D03*
Y20320D02*
D03*
D27*
X-161005Y418240D02*
D03*
Y424740D02*
D03*
Y431240D02*
D03*
Y437740D02*
D03*
X-138995D02*
D03*
Y431240D02*
D03*
Y424740D02*
D03*
D28*
Y418240D02*
D03*
D29*
X-329102Y179500D02*
D03*
X310898D02*
D03*
D30*
X-329102Y160500D02*
D03*
X-310898Y170000D02*
D03*
X329102D02*
D03*
X310898Y160500D02*
D03*
D31*
X640250Y328500D02*
D03*
X646750D02*
D03*
X653250D02*
D03*
X659750D02*
D03*
X640250Y371500D02*
D03*
X646750D02*
D03*
X653250D02*
D03*
X659750D02*
D03*
X-1309750Y328500D02*
D03*
X-1303250D02*
D03*
X-1296750D02*
D03*
X-1290250D02*
D03*
X-1309750Y371500D02*
D03*
X-1303250D02*
D03*
X-1296750D02*
D03*
X-1290250D02*
D03*
X-659750Y328500D02*
D03*
X-653250D02*
D03*
X-646750D02*
D03*
X-640250D02*
D03*
X-659750Y371500D02*
D03*
X-653250D02*
D03*
X-646750D02*
D03*
X-640250D02*
D03*
X1290250Y328500D02*
D03*
X1296750D02*
D03*
X1303250D02*
D03*
X1309750D02*
D03*
X1290250Y371500D02*
D03*
X1296750D02*
D03*
X1303250D02*
D03*
X1309750D02*
D03*
D32*
X35290Y314960D02*
D03*
X160290D02*
D03*
D33*
X-332740Y343930D02*
D03*
Y313930D02*
D03*
D34*
X49530Y73630D02*
D03*
Y62230D02*
D03*
Y39430D02*
D03*
Y28030D02*
D03*
D35*
X112530Y50830D02*
D03*
D36*
X173290Y179500D02*
D03*
Y160500D02*
D03*
X149290D02*
D03*
Y170000D02*
D03*
Y179500D02*
D03*
D37*
X100000Y129500D02*
D03*
Y110500D02*
D03*
X120000Y120000D02*
D03*
D49*
X-136144Y437740D02*
X-135890Y437994D01*
X-131540Y458300D02*
X-130000Y459840D01*
X-138995Y437740D02*
X-136144D01*
X-135890Y437994D02*
Y454417D01*
X-135620Y454687D01*
Y456760D01*
X-132540Y459840D02*
X-130000D01*
X-135620Y456760D02*
X-132540Y459840D01*
X-133852Y413097D02*
Y417965D01*
X-138721D02*
X-133852D01*
X-125595Y404840D02*
X-100000D01*
X-133852Y413097D02*
X-125595Y404840D01*
X-135620Y462920D02*
X-132540Y459840D01*
X-135620Y462920D02*
Y463538D01*
X-145792Y473710D02*
X-135620Y463538D01*
X-163830Y473710D02*
X-145792D01*
X-100000Y425240D02*
X-90900D01*
D55*
X173253Y193438D02*
X212090D01*
Y196850D01*
Y193438D02*
X224790D01*
X212090Y196850D02*
X275590Y260350D01*
X299720D01*
X224790Y163916D02*
Y193438D01*
X299720Y260350D02*
X311030Y249040D01*
X324930D01*
X335070Y238900D01*
X-35670Y382980D02*
X-17670D01*
X160020Y477520D02*
X179070Y458470D01*
X-88900Y477520D02*
X160020D01*
X179070Y396240D02*
Y458470D01*
Y396240D02*
X203810Y371500D01*
X-659450Y360667D02*
X-656462Y357680D01*
X-637736D01*
X-659450Y360667D02*
Y371200D01*
X-1305764Y357680D02*
X-673570D01*
X-659750Y371500D01*
X-1309450Y363450D02*
Y371200D01*
Y363450D02*
X-1309320Y363320D01*
X-1309750Y371500D02*
X-1309450Y371200D01*
X-1309320Y361236D02*
Y363320D01*
X-637736Y357680D02*
X-637276Y358140D01*
X-346710D01*
X-659750Y371500D02*
X-659450Y371200D01*
X-346710Y358140D02*
X-332740Y372110D01*
X-242550Y174450D02*
Y177820D01*
X-179070Y241300D02*
X-144310D01*
X-242550Y177820D02*
X-179070Y241300D01*
X-244500Y172500D02*
X-242550Y174450D01*
X-247500Y172500D02*
X-244500D01*
X-366630Y177300D02*
Y179400D01*
X-337610Y208420D01*
Y210960D02*
X-332540Y216030D01*
X-337610Y208420D02*
Y210960D01*
X-332540Y216030D02*
X-327460D01*
X-383080Y174600D02*
X-369330D01*
X-366630Y177300D01*
X-380380Y228100D02*
X-366260D01*
X-383080Y225400D02*
X-380380Y228100D01*
X-366260D02*
X-352553Y241807D01*
X-332163D01*
X-330000Y243970D01*
X-327460D01*
X332540Y216030D02*
X339210Y222700D01*
X373830D01*
X330000Y216030D02*
X332540D01*
X373830Y222700D02*
X377190Y226060D01*
X335070Y238900D02*
X339975D01*
X383080Y174600D02*
X410692Y202212D01*
X340597Y238278D02*
X407705D01*
X410692Y202212D02*
Y235291D01*
X407705Y238278D02*
X410692Y235291D01*
X339975Y238900D02*
X340597Y238278D01*
X-65820Y438150D02*
X-28500D01*
X-70000Y433970D02*
X-65820Y438150D01*
X-28500D02*
X-26670Y439980D01*
X-20970Y434330D02*
X-8775D01*
X15345Y410210D02*
X111430D01*
X-8775Y434330D02*
X15345Y410210D01*
X-26670Y440030D02*
X-20970Y434330D01*
X111430Y410210D02*
X139060Y437840D01*
X-250861Y383430D02*
X-229381Y361950D01*
X-41370Y365030D02*
Y377280D01*
X-70000Y346030D02*
X-65616Y350414D01*
X-55986D01*
X-41370Y365030D01*
X-56020Y385410D02*
Y416555D01*
X-67460Y373970D02*
X-56020Y385410D01*
X-285680Y285750D02*
X-129940D01*
X-327460Y243970D02*
X-285680Y285750D01*
X-129940D02*
X-70460Y345229D01*
X168160Y170700D02*
X192520D01*
X206558Y148442D02*
X210000Y145000D01*
X192520Y170700D02*
X206558Y156662D01*
Y148442D02*
Y156662D01*
X172720Y86030D02*
X177790Y91100D01*
X183810D01*
X201610Y108900D01*
X147391Y91511D02*
X164780Y108900D01*
X172720Y113970D02*
X173290Y114540D01*
X167650Y108900D02*
X172720Y113970D01*
X164780Y108900D02*
X167650D01*
X72390Y71120D02*
Y83820D01*
X80081Y91511D01*
X22324Y62230D02*
X56530D01*
X57980Y63680D01*
X80081Y91511D02*
X147391D01*
X64950Y63680D02*
X72390Y71120D01*
X57980Y63680D02*
X64950D01*
X204930Y108900D02*
X210000Y113970D01*
X201610Y108900D02*
X204930D01*
X173290Y114540D02*
Y160500D01*
X157960D02*
X168160Y170700D01*
X149290Y160500D02*
X157960D01*
X-332740Y372110D02*
X-321420Y383430D01*
X-250861D01*
X-229381Y361950D02*
X-200000D01*
X-100000Y406030D02*
X-70000D01*
X-90900Y425240D02*
X-85203Y419543D01*
X-59008D02*
X-56020Y416555D01*
X-85203Y419543D02*
X-59008D01*
X-70000Y373970D02*
X-67460D01*
X-41370Y377280D02*
X-35670Y382980D01*
X-163830Y473710D02*
Y506730D01*
X-165100Y508000D02*
X-163830Y506730D01*
X-85090Y179759D02*
Y211630D01*
X-85090Y179759D02*
X-85090Y179759D01*
X-93260Y31030D02*
X-84280Y22050D01*
X-93980Y195328D02*
X-93260Y194608D01*
X-85090Y38892D02*
Y179759D01*
X-93260Y31030D02*
Y194608D01*
X-114300Y215900D02*
X-93980Y195580D01*
X-85090Y38892D02*
X-80949Y34750D01*
X-93980Y195328D02*
Y195580D01*
X-163830Y215900D02*
X-114300D01*
X110000Y166030D02*
X115070Y171100D01*
X119030D01*
X127230Y179300D01*
X149090D01*
X149290Y179500D01*
X-80949Y34750D02*
X-74450D01*
X8890Y72390D02*
X11430D01*
X-6350Y87630D02*
X8890Y72390D01*
X-74450Y34750D02*
X-72500Y32800D01*
X-119380Y508000D02*
X-88900Y477520D01*
X203810Y371500D02*
X640250D01*
X640550Y371200D01*
X640680Y361236D02*
Y363320D01*
X662264Y357680D02*
X662725Y358140D01*
X1276890D01*
X640550Y363450D02*
Y371200D01*
X1276890Y358140D02*
X1290250Y371500D01*
X640680Y361236D02*
X644236Y357680D01*
X640550Y363450D02*
X640680Y363320D01*
X644236Y357680D02*
X662264D01*
X-1309320Y361236D02*
X-1305764Y357680D01*
X-63500Y525780D02*
X-62230Y524510D01*
X-63500Y525780D02*
Y575310D01*
X-84280Y22050D02*
X-74450D01*
X-72500Y20100D01*
X107460Y193970D02*
X110000D01*
X49530Y73630D02*
Y136040D01*
X107460Y193970D01*
X483070Y131530D02*
X574600Y40000D01*
X483070Y131530D02*
Y200000D01*
X600000Y40000D02*
X674600D01*
X172720Y193970D02*
X173290Y193400D01*
Y179500D02*
Y193400D01*
X110000Y193970D02*
X172720D01*
X210000Y113970D02*
Y145000D01*
X-6350Y87630D02*
Y102870D01*
X-22860Y119380D02*
X-6350Y102870D01*
X-17790Y78750D02*
X-1230Y62190D01*
X-17790Y78750D02*
Y86370D01*
X-1230Y62190D02*
X22284D01*
X-25400Y119380D02*
X-22860D01*
Y91440D02*
X-17790Y86370D01*
X-25400Y91440D02*
X-22860D01*
X22284Y62190D02*
X22324Y62230D01*
X12050Y73010D02*
X48910D01*
X11430Y72390D02*
X12050Y73010D01*
X48910D02*
X49530Y73630D01*
X42530Y28030D02*
X49530D01*
X11430Y20320D02*
X34820D01*
X42530Y28030D01*
X-24130Y20320D02*
X11430D01*
X-48260D02*
X-24130D01*
X-48370Y20210D02*
X-48260Y20320D01*
X-72500Y20100D02*
X-72390Y20210D01*
X-48370D01*
X35290Y268240D02*
X102390Y201140D01*
X35290Y268240D02*
Y314960D01*
X102390Y199040D02*
X105850Y195580D01*
X102390Y199040D02*
Y201140D01*
X119500Y120000D02*
X120000D01*
X110000Y129500D02*
Y166030D01*
Y129500D02*
X119500Y120000D01*
X329686Y170000D02*
X330000Y170314D01*
X329102Y170000D02*
X329686D01*
X330000Y170314D02*
Y216030D01*
X-163820Y508000D02*
X-119380D01*
X-332740Y343930D02*
Y372110D01*
X-327460Y216030D02*
X-310898Y199468D01*
Y170000D02*
Y199468D01*
X-483070Y131530D02*
Y200000D01*
X-574600Y40000D02*
X-483070Y131530D01*
X-674600Y40000D02*
X-600000D01*
X-11970Y347220D02*
Y377280D01*
X-17670Y382980D02*
X-11970Y377280D01*
Y347220D02*
X20290Y314960D01*
X35290D01*
X-80020Y513070D02*
X-71110Y521980D01*
X-64760D02*
X-62230Y524510D01*
X-83830Y513070D02*
X-80020D01*
X-71110Y521980D02*
X-64760D01*
X-88900Y508000D02*
X-83830Y513070D01*
X-165100Y535940D02*
Y575310D01*
X-91440Y535940D02*
X-88900D01*
X-119380Y508000D02*
X-91440Y535940D01*
X-88900D02*
Y575310D01*
D56*
X-137160Y425160D02*
X-100000D01*
D57*
X-332740Y372110D02*
D03*
X-307340D02*
D03*
X-674600Y40000D02*
D03*
X-165100Y575310D02*
D03*
X-139700D02*
D03*
X-114300D02*
D03*
X-88900D02*
D03*
X-63500D02*
D03*
X574600Y40000D02*
D03*
X674600D02*
D03*
X-574600D02*
D03*
D58*
X-281940Y372110D02*
D03*
X-700000Y40000D02*
D03*
X-38100Y575310D02*
D03*
X600000Y40000D02*
D03*
X700000D02*
D03*
X-600000D02*
D03*
D59*
X35560Y497840D02*
D03*
X170560D02*
D03*
D60*
X139060Y437840D02*
D03*
X67060D02*
D03*
D61*
X277700Y179500D02*
D03*
X-265410Y45000D02*
D03*
X-133350Y349250D02*
D03*
X-215900Y251460D02*
D03*
X-92710Y462280D02*
D03*
X412750Y341630D02*
D03*
X234950D02*
D03*
X394970Y59690D02*
D03*
X279400Y58420D02*
D03*
X25400Y139700D02*
D03*
X151130D02*
D03*
X-144310Y241300D02*
D03*
X-55880Y214630D02*
D03*
X-179070Y256540D02*
D03*
X-1351270Y31270D02*
D03*
X-1360160Y274030D02*
D03*
X-1201270Y31270D02*
D03*
X-1210160Y274030D02*
D03*
X-1060160D02*
D03*
X-1051270Y31270D02*
D03*
X-910160Y274030D02*
D03*
X-901270Y31270D02*
D03*
X-760160Y274030D02*
D03*
X-751270Y31270D02*
D03*
X750000Y50000D02*
D03*
Y300000D02*
D03*
X900000Y50000D02*
D03*
Y300000D02*
D03*
X1050000Y50000D02*
D03*
Y300000D02*
D03*
X1200000D02*
D03*
Y50000D02*
D03*
X1350000Y300000D02*
D03*
Y50000D02*
D03*
X-199390Y302260D02*
D03*
X-228600D02*
D03*
X-265410Y85000D02*
D03*
Y65000D02*
D03*
X-265430Y25000D02*
D03*
X-163830Y473710D02*
D03*
Y215900D02*
D03*
X-85090Y211630D02*
D03*
X-34290Y208280D02*
D03*
X579120Y326390D02*
D03*
M02*
